WantedSans-Split-Hangeul.glyphspackage
{
glyphname = "kiyeokSiosCompa-ko";
layers = (
{
layerId = m01;
shapes = (
{
closed = 1;
nodes = (
(238,1182,l),
(238,1052,l),
(645,1052,l),
(645,259,l),
(801,259,l),
(801,1182,l)
);
},
{
closed = 1;
nodes = (
(1161,1200,l),
(1161,868,ls),
(1161,666,o),
(1060,452,o),
(836,361,c),
(921,245,l),
(1172,354,o),
(1283,607,o),
(1283,868,cs),
(1283,1200,l)
);
},
{
closed = 1;
nodes = (
(1191,1200,l),
(1191,868,ls),
(1191,607,o),
(1300,354,o),
(1553,245,c),
(1638,361,l),
(1413,452,o),
(1312,666,o),
(1312,868,cs),
(1312,1200,l)
);
}
);
width = 1770;
},
{
layerId = "94F54C43-8AEE-4ED6-B3C2-2A9D33534E61";
shapes = (
{
closed = 1;
nodes = (
(145,1259,l),
(145,974,l),
(469,974,l),
(469,235,l),
(823,235,l),
(823,1259,l)
);
},
{
closed = 1;
nodes = (
(1043,1271,l),
(1043,959,ls),
(1043,735,o),
(976,547,o),
(715,467,c),
(896,211,l),
(1215,323,o),
(1306,600,o),
(1306,959,cs),
(1306,1271,l)
);
},
{
closed = 1;
nodes = (
(1117,1271,l),
(1117,959,ls),
(1117,600,o),
(1208,323,o),
(1527,211,c),
(1707,467,l),
(1447,547,o),
(1381,735,o),
(1381,959,cs),
(1381,1271,l)
);
}
);
width = 1770;
}
);
unicode = 12595;
}
{
glyphname = "nieunCompa-ko";
layers = (
{
layerId = m01;
shapes = (
{
closed = 1;
nodes = (
(340,402,l),
(340,273,l),
(1473,273,l),
(1473,402,l)
);
},
{
closed = 1;
nodes = (
(340,1185,l),
(340,354,l),
(496,354,l),
(496,1185,l)
);
}
);
width = 1770;
},
{
layerId = "94F54C43-8AEE-4ED6-B3C2-2A9D33534E61";
shapes = (
{
closed = 1;
nodes = (
(271,558,l),
(271,275,l),
(1497,275,l),
(1497,558,l)
);
},
{
closed = 1;
nodes = (
(271,1266,l),
(271,451,l),
(633,451,l),
(633,1266,l)
);
}
);
width = 1770;
}
);
unicode = 12596;
}
{
glyphname = "tikeutCompa-ko";
layers = (
{
layerId = m01;
shapes = (
{
closed = 1;
nodes = (
(343,1193,l),
(343,344,l),
(500,344,l),
(500,1064,l),
(1436,1064,l),
(1436,1193,l)
);
},
{
closed = 1;
nodes = (
(343,390,l),
(343,261,l),
(1453,261,l),
(1453,390,l)
);
}
);
width = 1770;
},
{
layerId = "94F54C43-8AEE-4ED6-B3C2-2A9D33534E61";
shapes = (
{
closed = 1;
nodes = (
(280,1269,l),
(280,431,l),
(642,431,l),
(642,986,l),
(1477,986,l),
(1477,1269,l)
);
},
{
closed = 1;
nodes = (
(280,514,l),
(280,231,l),
(1490,231,l),
(1490,514,l)
);
}
);
width = 1770;
}
);
unicode = 12599;
}
{
glyphname = "rieulKiyeokCompa-ko";
layers = (
{
layerId = m01;
shapes = (
{
closed = 1;
nodes = (
(268,1201,l),
(268,1071,l),
(704,1071,l),
(704,799,l),
(273,799,l),
(273,284,l),
(428,284,l),
(428,671,l),
(860,671,l),
(860,1201,l)
);
},
{
closed = 1;
nodes = (
(925,1201,l),
(925,1071,l),
(1361,1071,l),
(1361,262,l),
(1517,262,l),
(1517,1201,l)
);
},
{
closed = 1;
nodes = (
(273,385,l),
(273,257,l),
(377,257,ls),
(587,257,o),
(758,263,o),
(969,304,c),
(952,432,l),
(743,392,o),
(570,385,o),
(377,385,cs)
);
}
);
width = 1770;
},
{
layerId = "94F54C43-8AEE-4ED6-B3C2-2A9D33534E61";
shapes = (
{
closed = 1;
nodes = (
(151,1276,l),
(151,994,l),
(469,994,l),
(469,903,l),
(151,903,l),
(151,274,l),
(507,274,l),
(507,617,l),
(824,617,l),
(824,1276,l)
);
},
{
closed = 1;
nodes = (
(885,1276,l),
(885,994,l),
(1217,994,l),
(1217,238,l),
(1573,238,l),
(1573,1276,l)
);
},
{
closed = 1;
nodes = (
(151,518,l),
(151,235,l),
(292,235,ls),
(580,235,o),
(754,238,o),
(936,277,c),
(908,557,l),
(734,523,o),
(581,518,o),
(292,518,cs)
);
}
);
width = 1770;
}
);
unicode = 12602;
}
{
glyphname = "rieulMieumCompa-ko";
layers = (
{
layerId = m01;
shapes = (
{
closed = 1;
nodes = (
(266,1198,l),
(266,1069,l),
(693,1069,l),
(693,799,l),
(271,799,l),
(271,281,l),
(425,281,l),
(425,670,l),
(847,670,l),
(847,1198,l)
);
},
{
closed = 1;
nodes = (
(271,386,l),
(271,257,l),
(365,257,ls),
(529,257,o),
(689,261,o),
(894,297,c),
(879,425,l),
(682,390,o),
(532,386,o),
(365,386,cs)
);
},
{
closed = 1;
nodes = (
(935,1200,l),
(935,260,l),
(1539,260,l),
(1539,1200,l)
);
},
{
closed = 1;
nodes = (
(1399,1071,l),
(1399,386,l),
(1075,386,l),
(1075,1071,l)
);
}
);
width = 1770;
},
{
layerId = "94F54C43-8AEE-4ED6-B3C2-2A9D33534E61";
shapes = (
{
closed = 1;
nodes = (
(140,1277,l),
(140,995,l),
(462,995,l),
(462,903,l),
(143,903,l),
(143,275,l),
(498,275,l),
(498,617,l),
(817,617,l),
(817,1277,l)
);
},
{
closed = 1;
nodes = (
(143,517,l),
(143,235,l),
(275,235,ls),
(541,235,o),
(704,238,o),
(872,277,c),
(842,557,l),
(680,521,o),
(541,517,o),
(275,517,cs)
);
},
{
closed = 1;
nodes = (
(917,1281,l),
(917,242,l),
(1637,242,l),
(1637,1281,l)
);
},
{
closed = 1;
nodes = (
(1324,999,l),
(1324,523,l),
(1231,523,l),
(1231,999,l)
);
}
);
width = 1770;
}
);
unicode = 12603;
}
{
glyphname = "rieulPhieuphCompa-ko";
layers = (
{
layerId = m01;
shapes = (
{
closed = 1;
nodes = (
(266,1198,l),
(266,1069,l),
(672,1069,l),
(672,799,l),
(271,799,l),
(271,281,l),
(426,281,l),
(426,670,l),
(829,670,l),
(829,1198,l)
);
},
{
closed = 1;
nodes = (
(915,1197,l),
(915,1068,l),
(1562,1068,l),
(1562,1197,l)
);
},
{
closed = 1;
nodes = (
(908,386,l),
(908,257,l),
(1573,257,l),
(1573,386,l)
);
},
{
closed = 1;
nodes = (
(1018,1097,l),
(1018,332,l),
(1159,332,l),
(1159,1097,l)
);
},
{
closed = 1;
nodes = (
(1319,1097,l),
(1319,332,l),
(1459,332,l),
(1459,1097,l)
);
},
{
closed = 1;
nodes = (
(271,386,l),
(271,257,l),
(365,257,ls),
(539,257,o),
(704,263,o),
(891,308,c),
(872,438,l),
(696,392,o),
(539,386,o),
(365,386,cs)
);
}
);
width = 1770;
},
{
layerId = "94F54C43-8AEE-4ED6-B3C2-2A9D33534E61";
shapes = (
{
closed = 1;
nodes = (
(143,1277,l),
(143,995,l),
(450,995,l),
(450,903,l),
(145,903,l),
(145,275,l),
(500,275,l),
(500,617,l),
(804,617,l),
(804,1277,l)
);
},
{
closed = 1;
nodes = (
(867,1275,l),
(867,992,l),
(1671,992,l),
(1671,1275,l)
);
},
{
closed = 1;
nodes = (
(870,517,l),
(870,235,l),
(1668,235,l),
(1668,517,l)
);
},
{
closed = 1;
nodes = (
(939,1044,l),
(939,385,l),
(1245,385,l),
(1245,1044,l)
);
},
{
closed = 1;
nodes = (
(1292,1044,l),
(1292,385,l),
(1599,385,l),
(1599,1044,l)
);
},
{
closed = 1;
nodes = (
(145,517,l),
(145,235,l),
(275,235,ls),
(533,235,o),
(692,238,o),
(860,272,c),
(831,554,l),
(666,520,o),
(535,517,o),
(275,517,cs)
);
}
);
width = 1770;
}
);
unicode = 12607;
}
{
glyphname = "ssangpieupCompa-ko";
layers = (
{
layerId = m01;
shapes = (
{
closed = 1;
nodes = (
(292,1197,l),
(292,258,l),
(865,258,l),
(865,1197,l),
(720,1197,l),
(720,871,l),
(438,871,l),
(438,1197,l)
);
},
{
closed = 1;
nodes = (
(438,743,l),
(720,743,l),
(720,388,l),
(438,388,l)
);
},
{
closed = 1;
nodes = (
(942,1198,l),
(942,258,l),
(1514,258,l),
(1514,1198,l),
(1368,1198,l),
(1368,872,l),
(1087,872,l),
(1087,1198,l)
);
},
{
closed = 1;
nodes = (
(1087,743,l),
(1368,743,l),
(1368,390,l),
(1087,390,l)
);
}
);
width = 1770;
},
{
layerId = "94F54C43-8AEE-4ED6-B3C2-2A9D33534E61";
shapes = (
{
closed = 1;
nodes = (
(186,1269,l),
(186,237,l),
(874,237,l),
(874,1269,l),
(546,1269,l),
(546,1028,l),
(511,1028,l),
(511,1269,l)
);
},
{
closed = 1;
nodes = (
(511,741,l),
(546,741,l),
(546,525,l),
(511,525,l)
);
},
{
closed = 1;
nodes = (
(918,1272,l),
(918,239,l),
(1606,239,l),
(1606,1272,l),
(1278,1272,l),
(1278,1030,l),
(1243,1030,l),
(1243,1272,l)
);
},
{
closed = 1;
nodes = (
(1243,743,l),
(1278,743,l),
(1278,527,l),
(1243,527,l)
);
}
);
width = 1770;
}
);
unicode = 12611;
}
{
glyphname = "ssangSiosCompa-ko";
layers = (
{
layerId = m01;
shapes = (
{
closed = 1;
nodes = (
(495,1180,l),
(495,945,ls),
(495,762,o),
(400,516,o),
(172,405,c),
(264,289,l),
(512,417,o),
(618,704,o),
(618,945,cs),
(618,1180,l)
);
},
{
closed = 1;
nodes = (
(534,1180,l),
(534,938,ls),
(534,706,o),
(639,394,o),
(899,263,c),
(971,385,l),
(749,505,o),
(653,758,o),
(653,938,cs),
(653,1180,l)
);
},
{
closed = 1;
nodes = (
(1148,1180,l),
(1148,938,ls),
(1148,748,o),
(1049,501,o),
(827,385,c),
(899,263,l),
(1147,385,o),
(1266,673,o),
(1266,938,cs),
(1266,1180,l)
);
},
{
closed = 1;
nodes = (
(1182,1180,l),
(1182,945,ls),
(1182,685,o),
(1286,412,o),
(1539,291,c),
(1628,408,l),
(1400,510,o),
(1306,743,o),
(1306,945,cs),
(1306,1180,l)
);
}
);
width = 1770;
},
{
layerId = "94F54C43-8AEE-4ED6-B3C2-2A9D33534E61";
shapes = (
{
closed = 1;
nodes = (
(394,1227,l),
(394,1200,ls),
(394,915,o),
(325,666,o),
(38,549,c),
(232,289,l),
(565,434,o),
(661,779,o),
(661,1200,cs),
(661,1227,l)
);
},
{
closed = 1;
nodes = (
(500,1227,l),
(500,1203,ls),
(500,817,o),
(581,432,o),
(913,272,c),
(1068,537,l),
(811,685,o),
(756,941,o),
(756,1203,cs),
(756,1227,l)
);
},
{
closed = 1;
nodes = (
(1080,1227,l),
(1080,1203,ls),
(1080,944,o),
(1022,686,o),
(758,537,c),
(913,272,l),
(1211,412,o),
(1335,744,o),
(1335,1203,cs),
(1335,1227,l)
);
},
{
closed = 1;
nodes = (
(1172,1227,l),
(1172,1200,ls),
(1172,784,o),
(1268,435,o),
(1602,289,c),
(1796,548,l),
(1510,668,o),
(1442,921,o),
(1442,1200,cs),
(1442,1227,l)
);
}
);
width = 1770;
}
);
unicode = 12614;
}
{
glyphname = "chieuchCompa-ko";
layers = (
{
layerId = m01;
shapes = (
{
closed = 1;
nodes = (
(797,935,l),
(797,863,ls),
(797,596,o),
(586,398,o),
(285,329,c),
(362,204,l),
(690,291,o),
(932,518,o),
(932,863,cs),
(932,935,l)
);
},
{
closed = 1;
nodes = (
(845,935,l),
(845,863,ls),
(845,518,o),
(1089,291,o),
(1417,204,c),
(1492,329,l),
(1191,398,o),
(980,596,o),
(980,863,cs),
(980,935,l)
);
},
{
closed = 1;
nodes = (
(333,1048,l),
(333,917,l),
(1445,917,l),
(1445,1048,l)
);
},
{
closed = 1;
nodes = (
(811,1305,l),
(811,983,l),
(969,983,l),
(969,1305,l)
);
}
);
width = 1770;
},
{
layerId = "94F54C43-8AEE-4ED6-B3C2-2A9D33534E61";
shapes = (
{
closed = 1;
nodes = (
(661,866,l),
(661,863,ls),
(661,694,o),
(585,513,o),
(173,463,c),
(330,184,l),
(803,264,o),
(962,525,o),
(962,863,cs),
(962,866,l)
);
},
{
closed = 1;
nodes = (
(798,866,l),
(798,863,ls),
(798,525,o),
(956,264,o),
(1429,184,c),
(1587,463,l),
(1176,513,o),
(1098,694,o),
(1098,863,cs),
(1098,866,l)
);
},
{
closed = 1;
nodes = (
(255,1138,l),
(255,849,l),
(1511,849,l),
(1511,1138,l)
);
},
{
closed = 1;
nodes = (
(703,1420,l),
(703,991,l),
(1062,991,l),
(1062,1420,l)
);
}
);
width = 1770;
}
);
unicode = 12618;
}
{
glyphname = "khieukhCompa-ko";
layers = (
{
layerId = m01;
shapes = (
{
closed = 1;
nodes = (
(349,1216,l),
(349,1087,l),
(1294,1087,l),
(1294,243,l),
(1452,243,l),
(1452,1216,l)
);
},
{
closed = 1;
nodes = (
(1349,791,l),
(310,745,l),
(332,603,l),
(1349,665,l)
);
}
);
width = 1770;
},
{
layerId = "94F54C43-8AEE-4ED6-B3C2-2A9D33534E61";
shapes = (
{
closed = 1;
nodes = (
(321,1285,l),
(321,1003,l),
(1154,1003,l),
(1154,216,l),
(1515,216,l),
(1515,1285,l)
);
},
{
closed = 1;
nodes = (
(1242,833,l),
(261,795,l),
(300,495,l),
(1242,562,l)
);
}
);
width = 1770;
}
);
unicode = 12619;
}
{
glyphname = "phieuphCompa-ko";
layers = (
{
layerId = m01;
shapes = (
{
closed = 1;
nodes = (
(317,1192,l),
(317,1063,l),
(1472,1063,l),
(1472,1192,l)
);
},
{
closed = 1;
nodes = (
(291,379,l),
(291,249,l),
(1499,249,l),
(1499,379,l)
);
},
{
closed = 1;
nodes = (
(553,1091,l),
(553,327,l),
(709,327,l),
(709,1091,l)
);
},
{
closed = 1;
nodes = (
(1080,1091,l),
(1080,327,l),
(1237,327,l),
(1237,1091,l)
);
}
);
width = 1770;
},
{
layerId = "94F54C43-8AEE-4ED6-B3C2-2A9D33534E61";
shapes = (
{
closed = 1;
nodes = (
(269,1276,l),
(269,994,l),
(1502,994,l),
(1502,1276,l)
);
},
{
closed = 1;
nodes = (
(244,494,l),
(244,210,l),
(1529,210,l),
(1529,494,l)
);
},
{
closed = 1;
nodes = (
(400,1044,l),
(400,384,l),
(756,384,l),
(756,1044,l)
);
},
{
closed = 1;
nodes = (
(1020,1044,l),
(1020,384,l),
(1377,384,l),
(1377,1044,l)
);
}
);
width = 1770;
}
);
unicode = 12621;
}
{
glyphname = "yaCompa-ko";
layers = (
{
layerId = m01;
shapes = (
{
closed = 1;
nodes = (
(807,1070,l),
(807,938,l),
(1262,938,l),
(1262,1070,l)
);
},
{
closed = 1;
nodes = (
(807,588,l),
(807,455,l),
(1262,455,l),
(1262,588,l)
);
},
{
closed = 1;
nodes = (
(696,1588,l),
(696,-156,l),
(854,-156,l),
(854,1588,l)
);
}
);
width = 1770;
},
{
layerId = "94F54C43-8AEE-4ED6-B3C2-2A9D33534E61";
shapes = (
{
closed = 1;
nodes = (
(876,1260,l),
(876,965,l),
(1301,965,l),
(1301,1260,l)
);
},
{
closed = 1;
nodes = (
(876,713,l),
(876,421,l),
(1301,421,l),
(1301,713,l)
);
},
{
closed = 1;
nodes = (
(606,1657,l),
(606,-203,l),
(966,-203,l),
(966,1657,l)
);
}
);
width = 1770;
}
);
unicode = 12625;
}
{
glyphname = "eoCompa-ko";
layers = (
{
layerId = m01;
shapes = (
{
closed = 1;
nodes = (
(985,1585,l),
(985,-159,l),
(1141,-159,l),
(1141,1585,l)
);
},
{
closed = 1;
nodes = (
(561,881,l),
(561,748,l),
(1029,748,l),
(1029,881,l)
);
}
);
width = 1770;
},
{
layerId = "94F54C43-8AEE-4ED6-B3C2-2A9D33534E61";
shapes = (
{
closed = 1;
nodes = (
(890,1663,l),
(890,-197,l),
(1249,-197,l),
(1249,1663,l)
);
},
{
closed = 1;
nodes = (
(541,1016,l),
(541,721,l),
(949,721,l),
(949,1016,l)
);
}
);
width = 1770;
}
);
unicode = 12627;
}
{
glyphname = "eCompa-ko";
layers = (
{
layerId = m01;
shapes = (
{
closed = 1;
nodes = (
(1118,1583,l),
(1118,-161,l),
(1270,-161,l),
(1270,1583,l)
);
},
{
closed = 1;
nodes = (
(434,887,l),
(434,755,l),
(837,755,l),
(837,887,l)
);
},
{
closed = 1;
nodes = (
(765,1557,l),
(765,-97,l),
(915,-97,l),
(915,1557,l)
);
}
);
width = 1770;
},
{
layerId = "94F54C43-8AEE-4ED6-B3C2-2A9D33534E61";
shapes = (
{
closed = 1;
nodes = (
(1043,1663,l),
(1043,-197,l),
(1383,-197,l),
(1383,1663,l)
);
},
{
closed = 1;
nodes = (
(411,1003,l),
(411,710,l),
(756,710,l),
(756,1003,l)
);
},
{
closed = 1;
nodes = (
(615,1625,l),
(615,-144,l),
(949,-144,l),
(949,1625,l)
);
}
);
width = 1770;
}
);
unicode = 12628;
}
{
glyphname = "yeCompa-ko";
layers = (
{
layerId = m01;
shapes = (
{
closed = 1;
nodes = (
(429,1107,l),
(429,974,l),
(826,974,l),
(826,1107,l)
);
},
{
closed = 1;
nodes = (
(426,639,l),
(426,509,l),
(824,509,l),
(824,639,l)
);
},
{
closed = 1;
nodes = (
(1114,1581,l),
(1114,-163,l),
(1266,-163,l),
(1266,1581,l)
);
},
{
closed = 1;
nodes = (
(766,1557,l),
(766,-98,l),
(915,-98,l),
(915,1557,l)
);
}
);
width = 1770;
},
{
layerId = "94F54C43-8AEE-4ED6-B3C2-2A9D33534E61";
shapes = (
{
closed = 1;
nodes = (
(383,1243,l),
(383,953,l),
(728,953,l),
(728,1243,l)
);
},
{
closed = 1;
nodes = (
(373,713,l),
(373,424,l),
(719,424,l),
(719,713,l)
);
},
{
closed = 1;
nodes = (
(1029,1660,l),
(1029,-199,l),
(1370,-199,l),
(1370,1660,l)
);
},
{
closed = 1;
nodes = (
(617,1622,l),
(617,-146,l),
(951,-146,l),
(951,1622,l)
);
}
);
width = 1770;
}
);
unicode = 12630;
}
{
glyphname = "oCompa-ko";
layers = (
{
layerId = m01;
shapes = (
{
closed = 1;
nodes = (
(75,506,l),
(75,375,l),
(1689,375,l),
(1689,506,l)
);
},
{
closed = 1;
nodes = (
(802,1248,l),
(802,461,l),
(959,461,l),
(959,1248,l)
);
}
);
width = 1770;
},
{
layerId = "94F54C43-8AEE-4ED6-B3C2-2A9D33534E61";
shapes = (
{
closed = 1;
nodes = (
(34,595,l),
(34,308,l),
(1738,308,l),
(1738,595,l)
);
},
{
closed = 1;
nodes = (
(705,1250,l),
(705,518,l),
(1064,518,l),
(1064,1250,l)
);
}
);
width = 1770;
}
);
unicode = 12631;
}
{
glyphname = "waCompa-ko";
layers = (
{
layerId = m01;
shapes = (
{
closed = 1;
nodes = (
(570,1036,l),
(570,400,l),
(725,400,l),
(725,1036,l)
);
},
{
closed = 1;
nodes = (
(1278,1583,l),
(1278,-162,l),
(1434,-162,l),
(1434,1583,l)
);
},
{
closed = 1;
nodes = (
(1374,868,l),
(1374,734,l),
(1707,734,l),
(1707,868,l)
);
},
{
closed = 1;
nodes = (
(111,283,l),
(418,283,o),
(838,293,o),
(1202,351,c),
(1188,467,l),
(836,424,o),
(401,417,o),
(89,417,c)
);
}
);
width = 1770;
},
{
layerId = "94F54C43-8AEE-4ED6-B3C2-2A9D33534E61";
shapes = (
{
closed = 1;
nodes = (
(402,1088,l),
(402,466,l),
(756,466,l),
(756,1088,l)
);
},
{
closed = 1;
nodes = (
(1209,1658,l),
(1209,-201,l),
(1568,-201,l),
(1568,1658,l)
);
},
{
closed = 1;
nodes = (
(1452,974,l),
(1452,677,l),
(1768,677,l),
(1768,974,l)
);
},
{
closed = 1;
nodes = (
(33,185,l),
(355,185,o),
(778,195,o),
(1153,264,c),
(1124,520,l),
(758,477,o),
(321,474,o),
(-1,474,c)
);
}
);
width = 1770;
}
);
unicode = 12632;
}
{
glyphname = "oeCompa-ko";
layers = (
{
layerId = m01;
shapes = (
{
closed = 1;
nodes = (
(655,1026,l),
(655,401,l),
(809,401,l),
(809,1026,l)
);
},
{
closed = 1;
nodes = (
(1379,1586,l),
(1379,-158,l),
(1536,-158,l),
(1536,1586,l)
);
},
{
closed = 1;
nodes = (
(192,314,l),
(498,314,o),
(916,322,o),
(1282,381,c),
(1269,498,l),
(913,450,o),
(478,448,o),
(168,448,c)
);
}
);
width = 1770;
},
{
layerId = "94F54C43-8AEE-4ED6-B3C2-2A9D33534E61";
shapes = (
{
closed = 1;
nodes = (
(522,1069,l),
(522,419,l),
(878,419,l),
(878,1069,l)
);
},
{
closed = 1;
nodes = (
(1330,1670,l),
(1330,-190,l),
(1692,-190,l),
(1692,1670,l)
);
},
{
closed = 1;
nodes = (
(132,247,l),
(465,247,o),
(886,252,o),
(1282,321,c),
(1254,582,l),
(870,535,o),
(429,533,o),
(90,533,c)
);
}
);
width = 1770;
}
);
unicode = 12634;
}
{
glyphname = "yoCompa-ko";
layers = (
{
layerId = m01;
shapes = (
{
closed = 1;
nodes = (
(89,458,l),
(89,328,l),
(1702,328,l),
(1702,458,l)
);
},
{
closed = 1;
nodes = (
(509,1243,l),
(509,405,l),
(664,405,l),
(664,1243,l)
);
},
{
closed = 1;
nodes = (
(1129,1243,l),
(1129,409,l),
(1285,409,l),
(1285,1243,l)
);
}
);
width = 1770;
},
{
layerId = "94F54C43-8AEE-4ED6-B3C2-2A9D33534E61";
shapes = (
{
closed = 1;
nodes = (
(31,537,l),
(31,250,l),
(1735,250,l),
(1735,537,l)
);
},
{
closed = 1;
nodes = (
(364,1228,l),
(364,447,l),
(718,447,l),
(718,1228,l)
);
},
{
closed = 1;
nodes = (
(1048,1228,l),
(1048,446,l),
(1402,446,l),
(1402,1228,l)
);
}
);
width = 1770;
}
);
unicode = 12635;
}
{
glyphname = "weoCompa-ko";
layers = (
{
layerId = m01;
shapes = (
{
closed = 1;
nodes = (
(592,723,l),
(592,-25,l),
(751,-25,l),
(751,723,l)
);
},
{
closed = 1;
nodes = (
(1444,1583,l),
(1444,-161,l),
(1601,-161,l),
(1601,1583,l)
);
},
{
closed = 1;
nodes = (
(147,678,l),
(486,679,o),
(922,689,o),
(1313,743,c),
(1302,861,l),
(916,817,o),
(471,813,o),
(123,810,c)
);
},
{
closed = 1;
nodes = (
(1015,484,l),
(1015,359,l),
(1481,359,l),
(1481,484,l)
);
}
);
width = 1770;
},
{
layerId = "94F54C43-8AEE-4ED6-B3C2-2A9D33534E61";
shapes = (
{
closed = 1;
nodes = (
(486,681,l),
(486,-64,l),
(848,-64,l),
(848,681,l)
);
},
{
closed = 1;
nodes = (
(1355,1668,l),
(1355,-192,l),
(1717,-192,l),
(1717,1668,l)
);
},
{
closed = 1;
nodes = (
(78,623,l),
(423,625,o),
(853,635,o),
(1259,706,c),
(1237,962,l),
(840,909,o),
(386,907,o),
(37,904,c)
);
},
{
closed = 1;
nodes = (
(1034,530,l),
(1034,257,l),
(1418,257,l),
(1418,530,l)
);
}
);
width = 1770;
}
);
unicode = 12637;
}
{
glyphname = "iCompa-ko";
layers = (
{
layerId = m01;
shapes = (
{
closed = 1;
nodes = (
(817,1586,l),
(817,-159,l),
(973,-159,l),
(973,1586,l)
);
}
);
width = 1770;
},
{
layerId = "94F54C43-8AEE-4ED6-B3C2-2A9D33534E61";
shapes = (
{
closed = 1;
nodes = (
(709,1667,l),
(709,-192,l),
(1068,-192,l),
(1068,1667,l)
);
}
);
width = 1770;
}
);
unicode = 12643;
}
{
glyphname = "cieucuParen-ko";
layers = (
{
layerId = m01;
shapes = (
{
alignment = 1;
ref = _part.cieucuParenparenleft;
},
{
alignment = 1;
pos = (518,0);
ref = _part.cieucuParenbase;
},
{
alignment = 1;
pos = (2196,0);
ref = _part.cieucuParenparenleft;
scale = (-1,1);
}
);
width = 2196;
},
{
background = {
shapes = (
{
closed = 1;
nodes = (
(2172,-234,l),
(2332,36,o),
(2436,348,o),
(2436,724,cs),
(2436,1100,o),
(2332,1412,o),
(2172,1684,c),
(1832,1684,l),
(1948,1482,o),
(2078,1084,o),
(2078,724,cs),
(2078,364,o),
(1948,-34,o),
(1832,-234,c)
);
},
{
closed = 1;
nodes = (
(736,-234,l),
(620,-34,o),
(490,364,o),
(490,724,cs),
(490,1084,o),
(620,1482,o),
(736,1684,c),
(396,1684,l),
(236,1412,o),
(132,1100,o),
(132,724,cs),
(132,348,o),
(236,36,o),
(396,-234,c)
);
},
{
closed = 1;
nodes = (
(1426,60,l),
(1426,550,l),
(1130,550,l),
(1130,60,l)
);
},
{
closed = 1;
nodes = (
(1920,490,l),
(1920,726,l),
(648,726,l),
(648,490,l)
);
},
{
closed = 1;
nodes = (
(1252,800,o),
(1368,1024,o),
(1368,1260,cs),
(1368,1278,l),
(1108,1278,l),
(1108,1260,ls),
(1108,1176,o),
(1082,1024,o),
(688,986,c),
(798,754,l)
);
},
{
closed = 1;
nodes = (
(1878,986,l),
(1480,1024,o),
(1460,1176,o),
(1460,1260,cs),
(1460,1278,l),
(1200,1278,l),
(1200,1260,ls),
(1200,1024,o),
(1318,800,o),
(1774,754,c)
);
},
{
closed = 1;
nodes = (
(1816,1176,l),
(1816,1404,l),
(752,1404,l),
(752,1176,l)
);
}
);
};
layerId = "94F54C43-8AEE-4ED6-B3C2-2A9D33534E61";
shapes = (
{
alignment = 1;
ref = _part.cieucuParenparenleft;
},
{
alignment = 1;
pos = (736,0);
ref = _part.cieucuParenbase;
},
{
alignment = 1;
pos = (2542,0);
ref = _part.cieucuParenparenleft;
scale = (-1,1);
}
);
width = 2542;
}
);
unicode = 12828;
}
{
glyphname = "gang-ko";
layers = (
{
layerId = m01;
shapes = (
{
closed = 1;
nodes = (
(1304,1614,l),
(1304,551,l),
(1461,551,l),
(1461,1614,l)
);
},
{
closed = 1;
nodes = (
(1418,1154,l),
(1418,1021,l),
(1727,1021,l),
(1727,1154,l)
);
},
{
closed = 1;
nodes = (
(809,1483,l),
(809,1413,ls),
(809,1077,o),
(531,808,o),
(74,674,c),
(140,547,l),
(657,697,o),
(978,1030,o),
(978,1483,c)
);
},
{
closed = 1;
nodes = (
(152,1483,l),
(152,1353,l),
(898,1353,l),
(898,1483,l)
);
},
{
closed = 1;
nodes = (
(546,528,o),
(317,398,o),
(317,185,cs),
(317,-28,o),
(546,-158,o),
(900,-158,cs),
(1256,-158,o),
(1481,-28,o),
(1481,185,cs),
(1481,398,o),
(1256,528,o),
(900,528,cs)
);
},
{
closed = 1;
nodes = (
(1162,403,o),
(1329,320,o),
(1329,185,cs),
(1329,50,o),
(1160,-32,o),
(900,-32,cs),
(641,-32,o),
(473,50,o),
(473,185,cs),
(473,320,o),
(640,403,o),
(900,403,cs)
);
}
);
width = 1770;
},
{
layerId = "94F54C43-8AEE-4ED6-B3C2-2A9D33534E61";
shapes = (
{
closed = 1;
nodes = (
(1173,1659,l),
(1173,615,l),
(1531,615,l),
(1531,1659,l)
);
},
{
closed = 1;
nodes = (
(1434,1269,l),
(1434,974,l),
(1757,974,l),
(1757,1269,l)
);
},
{
closed = 1;
nodes = (
(618,1552,l),
(618,1364,ls),
(618,1135,o),
(435,925,o),
(5,819,c),
(150,535,l),
(713,680,o),
(1008,1029,o),
(1008,1552,c)
);
},
{
closed = 1;
nodes = (
(99,1552,l),
(99,1268,l),
(844,1268,l),
(844,1552,l)
);
},
{
closed = 1;
nodes = (
(520,588,o),
(254,431,o),
(254,190,cs),
(254,-54,o),
(520,-213,o),
(905,-213,cs),
(1290,-213,o),
(1554,-54,o),
(1554,190,cs),
(1554,431,o),
(1290,588,o),
(905,588,cs)
);
},
{
closed = 1;
nodes = (
(1097,313,o),
(1200,277,o),
(1200,190,cs),
(1200,98,o),
(1096,63,o),
(905,63,cs),
(715,63,o),
(611,98,o),
(611,190,cs),
(611,277,o),
(713,313,o),
(905,313,cs)
);
}
);
width = 1770;
}
);
unicode = 44053;
}
{
glyphname = "gaj-ko";
layers = (
{
layerId = m01;
shapes = (
{
closed = 1;
nodes = (
(1304,1618,l),
(1304,600,l),
(1461,600,l),
(1461,1618,l)
);
},
{
closed = 1;
nodes = (
(1418,1160,l),
(1418,1028,l),
(1727,1028,l),
(1727,1160,l)
);
},
{
closed = 1;
nodes = (
(809,1499,l),
(809,1426,ls),
(809,1105,o),
(547,851,o),
(75,729,c),
(135,601,l),
(664,740,o),
(977,1052,o),
(977,1499,c)
);
},
{
closed = 1;
nodes = (
(154,1499,l),
(154,1372,l),
(900,1372,l),
(900,1499,l)
);
},
{
closed = 1;
nodes = (
(824,448,l),
(824,393,ls),
(824,189,o),
(557,13,o),
(254,-37,c),
(314,-158,l),
(658,-97,o),
(959,112,o),
(959,393,cs),
(959,448,l)
);
},
{
closed = 1;
nodes = (
(855,448,l),
(855,393,ls),
(855,117,o),
(1157,-99,o),
(1500,-159,c),
(1561,-37,l),
(1261,13,o),
(990,192,o),
(990,393,cs),
(990,448,l)
);
},
{
closed = 1;
nodes = (
(320,509,l),
(320,382,l),
(1493,382,l),
(1493,509,l)
);
}
);
width = 1770;
},
{
layerId = "94F54C43-8AEE-4ED6-B3C2-2A9D33534E61";
shapes = (
{
closed = 1;
nodes = (
(1173,1659,l),
(1173,663,l),
(1531,663,l),
(1531,1659,l)
);
},
{
closed = 1;
nodes = (
(1434,1283,l),
(1434,991,l),
(1757,991,l),
(1757,1283,l)
);
},
{
closed = 1;
nodes = (
(616,1568,l),
(616,1362,ls),
(616,1170,o),
(463,984,o),
(10,896,c),
(141,610,l),
(721,734,o),
(1010,1044,o),
(1010,1568,c)
);
},
{
closed = 1;
nodes = (
(106,1568,l),
(106,1285,l),
(851,1285,l),
(851,1568,l)
);
},
{
closed = 1;
nodes = (
(714,431,l),
(714,393,ls),
(714,279,o),
(631,114,o),
(176,71,c),
(302,-201,l),
(836,-144,o),
(1017,107,o),
(1017,393,cs),
(1017,431,l)
);
},
{
closed = 1;
nodes = (
(797,431,l),
(797,393,ls),
(797,118,o),
(978,-152,o),
(1512,-205,c),
(1636,67,l),
(1191,114,o),
(1101,287,o),
(1101,393,cs),
(1101,431,l)
);
},
{
closed = 1;
nodes = (
(263,593,l),
(263,316,l),
(1549,316,l),
(1549,593,l)
);
}
);
width = 1770;
}
);
unicode = 44054;
}
{
glyphname = "gaelg-ko";
layers = (
{
layerId = m01;
shapes = (
{
closed = 1;
nodes = (
(1004,595,l),
(1004,467,l),
(1425,467,l),
(1425,-160,l),
(1581,-160,l),
(1581,595,l)
);
},
{
closed = 1;
nodes = (
(1431,1613,l),
(1431,693,l),
(1581,693,l),
(1581,1613,l)
);
},
{
closed = 1;
nodes = (
(1140,1209,l),
(1140,1079,l),
(1483,1079,l),
(1483,1209,l)
);
},
{
closed = 1;
nodes = (
(1039,1581,l),
(1039,706,l),
(1188,706,l),
(1188,1581,l)
);
},
{
closed = 1;
nodes = (
(689,1508,l),
(689,1453,ls),
(689,1141,o),
(484,900,o),
(88,760,c),
(163,644,l),
(609,808,o),
(848,1100,o),
(848,1508,c)
);
},
{
closed = 1;
nodes = (
(159,1508,l),
(159,1379,l),
(756,1379,l),
(756,1508,l)
);
},
{
closed = 1;
nodes = (
(305,595,l),
(305,473,l),
(756,473,l),
(756,299,l),
(309,299,l),
(309,-64,l),
(462,-64,l),
(462,183,l),
(908,183,l),
(908,595,l)
);
},
{
closed = 1;
nodes = (
(309,-13,l),
(309,-138,l),
(419,-138,ls),
(715,-138,o),
(860,-135,o),
(1053,-98,c),
(1038,23,l),
(853,-8,o),
(708,-13,o),
(419,-13,cs)
);
}
);
width = 1770;
},
{
layerId = "94F54C43-8AEE-4ED6-B3C2-2A9D33534E61";
shapes = (
{
closed = 1;
nodes = (
(981,655,l),
(981,374,l),
(1293,374,l),
(1293,-199,l),
(1654,-199,l),
(1654,655,l)
);
},
{
closed = 1;
nodes = (
(1313,1660,l),
(1313,716,l),
(1654,716,l),
(1654,1660,l)
);
},
{
closed = 1;
nodes = (
(1149,1320,l),
(1149,1037,l),
(1396,1037,l),
(1396,1320,l)
);
},
{
closed = 1;
nodes = (
(901,1627,l),
(901,728,l),
(1235,728,l),
(1235,1627,l)
);
},
{
closed = 1;
nodes = (
(468,1553,l),
(468,1404,ls),
(468,1178,o),
(367,1028,o),
(1,926,c),
(165,668,l),
(643,820,o),
(834,1084,o),
(834,1553,c)
);
},
{
closed = 1;
nodes = (
(105,1553,l),
(105,1269,l),
(612,1269,l),
(612,1553,l)
);
},
{
closed = 1;
nodes = (
(246,655,l),
(246,394,l),
(568,394,l),
(568,361,l),
(246,361,l),
(246,-1,l),
(595,-1,l),
(595,117,l),
(916,117,l),
(916,655,l)
);
},
{
closed = 1;
nodes = (
(246,78,l),
(246,-191,l),
(383,-191,ls),
(717,-191,o),
(865,-189,o),
(1039,-158,c),
(1007,107,l),
(841,80,o),
(702,78,o),
(383,78,cs)
);
}
);
width = 1770;
}
);
unicode = 44069;
}
{
glyphname = "gaelp-ko";
layers = (
{
layerId = m01;
shapes = (
{
closed = 1;
nodes = (
(969,597,l),
(969,470,l),
(1613,470,l),
(1613,597,l)
);
},
{
closed = 1;
nodes = (
(960,-11,l),
(960,-138,l),
(1621,-138,l),
(1621,-11,l)
);
},
{
closed = 1;
nodes = (
(1074,511,l),
(1074,-84,l),
(1207,-84,l),
(1207,511,l)
);
},
{
closed = 1;
nodes = (
(1374,511,l),
(1374,-84,l),
(1509,-84,l),
(1509,511,l)
);
},
{
closed = 1;
nodes = (
(1431,1613,l),
(1431,693,l),
(1581,693,l),
(1581,1613,l)
);
},
{
closed = 1;
nodes = (
(1140,1209,l),
(1140,1079,l),
(1483,1079,l),
(1483,1209,l)
);
},
{
closed = 1;
nodes = (
(1039,1581,l),
(1039,706,l),
(1188,706,l),
(1188,1581,l)
);
},
{
closed = 1;
nodes = (
(689,1508,l),
(689,1453,ls),
(689,1141,o),
(484,900,o),
(88,760,c),
(163,644,l),
(609,808,o),
(848,1100,o),
(848,1508,c)
);
},
{
closed = 1;
nodes = (
(159,1508,l),
(159,1379,l),
(756,1379,l),
(756,1508,l)
);
},
{
closed = 1;
nodes = (
(307,597,l),
(307,474,l),
(732,474,l),
(732,303,l),
(310,303,l),
(310,-59,l),
(463,-59,l),
(463,187,l),
(885,187,l),
(885,597,l)
);
},
{
closed = 1;
nodes = (
(310,-13,l),
(310,-138,l),
(406,-138,ls),
(637,-138,o),
(761,-136,o),
(925,-105,c),
(908,18,l),
(751,-11,o),
(628,-13,o),
(406,-13,cs)
);
}
);
width = 1770;
},
{
layerId = "94F54C43-8AEE-4ED6-B3C2-2A9D33534E61";
shapes = (
{
closed = 1;
nodes = (
(958,655,l),
(958,380,l),
(1671,380,l),
(1671,655,l)
);
},
{
closed = 1;
nodes = (
(960,85,l),
(960,-191,l),
(1669,-191,l),
(1669,85,l)
);
},
{
closed = 1;
nodes = (
(1015,472,l),
(1015,-61,l),
(1300,-61,l),
(1300,472,l)
);
},
{
closed = 1;
nodes = (
(1329,472,l),
(1329,-61,l),
(1616,-61,l),
(1616,472,l)
);
},
{
closed = 1;
nodes = (
(1313,1660,l),
(1313,716,l),
(1654,716,l),
(1654,1660,l)
);
},
{
closed = 1;
nodes = (
(1149,1320,l),
(1149,1037,l),
(1396,1037,l),
(1396,1320,l)
);
},
{
closed = 1;
nodes = (
(901,1627,l),
(901,728,l),
(1235,728,l),
(1235,1627,l)
);
},
{
closed = 1;
nodes = (
(468,1553,l),
(468,1404,ls),
(468,1178,o),
(367,1028,o),
(1,926,c),
(165,668,l),
(643,820,o),
(834,1084,o),
(834,1553,c)
);
},
{
closed = 1;
nodes = (
(105,1553,l),
(105,1269,l),
(612,1269,l),
(612,1553,l)
);
},
{
closed = 1;
nodes = (
(245,655,l),
(245,394,l),
(543,394,l),
(543,360,l),
(246,360,l),
(246,-2,l),
(595,-2,l),
(595,117,l),
(892,117,l),
(892,655,l)
);
},
{
closed = 1;
nodes = (
(246,78,l),
(246,-191,l),
(369,-191,ls),
(643,-191,o),
(771,-189,o),
(926,-163,c),
(896,103,l),
(744,80,o),
(628,78,o),
(369,78,cs)
);
}
);
width = 1770;
}
);
unicode = 44074;
}
{
glyphname = "gaelh-ko";
layers = (
{
layerId = m01;
shapes = (
{
closed = 1;
nodes = (
(920,506,l),
(920,385,l),
(1677,385,l),
(1677,506,l)
);
},
{
closed = 1;
nodes = (
(1111,315,o),
(976,221,o),
(976,77,cs),
(976,-68,o),
(1111,-161,o),
(1297,-161,cs),
(1481,-161,o),
(1615,-68,o),
(1615,77,cs),
(1615,221,o),
(1481,315,o),
(1297,315,cs)
);
},
{
closed = 1;
nodes = (
(1402,204,o),
(1477,154,o),
(1477,77,cs),
(1477,-1,o),
(1402,-51,o),
(1297,-51,cs),
(1191,-51,o),
(1116,-1,o),
(1116,77,cs),
(1116,154,o),
(1191,204,o),
(1297,204,cs)
);
},
{
closed = 1;
nodes = (
(1220,673,l),
(1220,434,l),
(1374,434,l),
(1374,673,l)
);
},
{
closed = 1;
nodes = (
(1431,1613,l),
(1431,713,l),
(1581,713,l),
(1581,1613,l)
);
},
{
closed = 1;
nodes = (
(1140,1217,l),
(1140,1087,l),
(1483,1087,l),
(1483,1217,l)
);
},
{
closed = 1;
nodes = (
(1039,1581,l),
(1039,732,l),
(1188,732,l),
(1188,1581,l)
);
},
{
closed = 1;
nodes = (
(689,1508,l),
(689,1453,ls),
(689,1145,o),
(477,923,o),
(90,796,c),
(163,679,l),
(599,830,o),
(848,1103,o),
(848,1508,c)
);
},
{
closed = 1;
nodes = (
(159,1508,l),
(159,1379,l),
(756,1379,l),
(756,1508,l)
);
},
{
closed = 1;
nodes = (
(295,597,l),
(295,474,l),
(713,474,l),
(713,306,l),
(299,306,l),
(299,-52,l),
(450,-52,l),
(450,190,l),
(864,190,l),
(864,597,l)
);
},
{
closed = 1;
nodes = (
(299,-13,l),
(299,-138,l),
(396,-138,ls),
(643,-138,o),
(770,-135,o),
(942,-104,c),
(927,20,l),
(762,-10,o),
(635,-13,o),
(396,-13,cs)
);
}
);
width = 1770;
},
{
layerId = "94F54C43-8AEE-4ED6-B3C2-2A9D33534E61";
shapes = (
{
closed = 1;
nodes = (
(908,572,l),
(908,320,l),
(1720,320,l),
(1720,572,l)
);
},
{
closed = 1;
nodes = (
(1099,302,o),
(946,199,o),
(946,44,cs),
(946,-112,o),
(1099,-214,o),
(1308,-214,cs),
(1517,-214,o),
(1668,-112,o),
(1668,44,cs),
(1668,199,o),
(1517,302,o),
(1308,302,cs)
);
},
{
closed = 1;
nodes = (
(1329,65,o),
(1355,70,o),
(1355,44,cs),
(1355,18,o),
(1329,20,o),
(1308,20,cs),
(1285,20,o),
(1258,18,o),
(1258,44,cs),
(1258,70,o),
(1285,65,o),
(1308,65,cs)
);
},
{
closed = 1;
nodes = (
(1136,694,l),
(1136,404,l),
(1485,404,l),
(1485,694,l)
);
},
{
closed = 1;
nodes = (
(1313,1660,l),
(1313,746,l),
(1654,746,l),
(1654,1660,l)
);
},
{
closed = 1;
nodes = (
(1149,1327,l),
(1149,1045,l),
(1396,1045,l),
(1396,1327,l)
);
},
{
closed = 1;
nodes = (
(901,1627,l),
(901,755,l),
(1235,755,l),
(1235,1627,l)
);
},
{
closed = 1;
nodes = (
(468,1553,l),
(468,1400,ls),
(468,1184,o),
(370,1032,o),
(0,931,c),
(165,670,l),
(645,825,o),
(834,1084,o),
(834,1553,c)
);
},
{
closed = 1;
nodes = (
(105,1553,l),
(105,1269,l),
(612,1269,l),
(612,1553,l)
);
},
{
closed = 1;
nodes = (
(248,655,l),
(248,394,l),
(519,394,l),
(519,359,l),
(249,359,l),
(249,-4,l),
(598,-4,l),
(598,116,l),
(867,116,l),
(867,655,l)
);
},
{
closed = 1;
nodes = (
(249,78,l),
(249,-191,l),
(374,-191,ls),
(653,-191,o),
(784,-189,o),
(940,-161,c),
(911,106,l),
(759,80,o),
(639,78,o),
(374,78,cs)
);
}
);
width = 1770;
}
);
unicode = 44075;
}
{
glyphname = "gaem-ko";
layers = (
{
layerId = m01;
shapes = (
{
closed = 1;
nodes = (
(1431,1613,l),
(1431,595,l),
(1581,595,l),
(1581,1613,l)
);
},
{
closed = 1;
nodes = (
(1142,1174,l),
(1142,1046,l),
(1485,1046,l),
(1485,1174,l)
);
},
{
closed = 1;
nodes = (
(1039,1581,l),
(1039,607,l),
(1188,607,l),
(1188,1581,l)
);
},
{
closed = 1;
nodes = (
(693,1482,l),
(693,1433,ls),
(693,1095,o),
(486,832,o),
(88,670,c),
(169,553,l),
(618,743,o),
(852,1058,o),
(852,1482,c)
);
},
{
closed = 1;
nodes = (
(155,1482,l),
(155,1353,l),
(751,1353,l),
(751,1482,l)
);
},
{
closed = 1;
nodes = (
(406,502,l),
(406,-134,l),
(1581,-134,l),
(1581,502,l)
);
},
{
closed = 1;
nodes = (
(1428,375,l),
(1428,-7,l),
(562,-7,l),
(562,375,l)
);
}
);
width = 1770;
},
{
layerId = "94F54C43-8AEE-4ED6-B3C2-2A9D33534E61";
shapes = (
{
closed = 1;
nodes = (
(1313,1660,l),
(1313,603,l),
(1654,603,l),
(1654,1660,l)
);
},
{
closed = 1;
nodes = (
(1153,1269,l),
(1153,984,l),
(1401,984,l),
(1401,1269,l)
);
},
{
closed = 1;
nodes = (
(901,1627,l),
(901,615,l),
(1235,615,l),
(1235,1627,l)
);
},
{
closed = 1;
nodes = (
(487,1537,l),
(487,1403,ls),
(487,1122,o),
(396,946,o),
(7,805,c),
(177,549,l),
(683,743,o),
(845,1037,o),
(845,1537,c)
);
},
{
closed = 1;
nodes = (
(99,1537,l),
(99,1255,l),
(605,1255,l),
(605,1537,l)
);
},
{
closed = 1;
nodes = (
(341,532,l),
(341,-179,l),
(1654,-179,l),
(1654,532,l)
);
},
{
closed = 1;
nodes = (
(1301,253,l),
(1301,100,l),
(696,100,l),
(696,253,l)
);
}
);
width = 1770;
}
);
unicode = 44076;
}
{
glyphname = "gya-ko";
layers = (
{
layerId = m01;
shapes = (
{
closed = 1;
nodes = (
(1402,1136,l),
(1402,1004,l),
(1734,1004,l),
(1734,1136,l)
);
},
{
closed = 1;
nodes = (
(1402,604,l),
(1402,471,l),
(1734,471,l),
(1734,604,l)
);
},
{
closed = 1;
nodes = (
(1290,1615,l),
(1290,-161,l),
(1447,-161,l),
(1447,1615,l)
);
},
{
closed = 1;
nodes = (
(832,1424,l),
(832,1400,ls),
(832,923,o),
(575,543,o),
(84,298,c),
(171,177,l),
(751,464,o),
(986,921,o),
(986,1424,c)
);
},
{
closed = 1;
nodes = (
(167,1424,l),
(167,1293,l),
(913,1293,l),
(913,1424,l)
);
}
);
width = 1770;
},
{
layerId = "94F54C43-8AEE-4ED6-B3C2-2A9D33534E61";
shapes = (
{
closed = 1;
nodes = (
(1440,1234,l),
(1440,942,l),
(1757,942,l),
(1757,1234,l)
);
},
{
closed = 1;
nodes = (
(1440,683,l),
(1440,390,l),
(1757,390,l),
(1757,683,l)
);
},
{
closed = 1;
nodes = (
(1172,1662,l),
(1172,-202,l),
(1532,-202,l),
(1532,1662,l)
);
},
{
closed = 1;
nodes = (
(664,1477,l),
(664,1410,ls),
(664,887,o),
(449,600,o),
(-12,358,c),
(189,87,l),
(831,409,o),
(1018,888,o),
(1018,1477,c)
);
},
{
closed = 1;
nodes = (
(106,1477,l),
(106,1189,l),
(850,1189,l),
(850,1477,l)
);
}
);
width = 1770;
}
);
unicode = 44088;
}
{
glyphname = "gyags-ko";
layers = (
{
layerId = m01;
shapes = (
{
closed = 1;
nodes = (
(1304,1614,l),
(1304,598,l),
(1461,598,l),
(1461,1614,l)
);
},
{
closed = 1;
nodes = (
(809,1499,l),
(809,1431,ls),
(809,1100,o),
(535,841,o),
(69,716,c),
(134,591,l),
(658,733,o),
(973,1052,o),
(973,1499,c)
);
},
{
closed = 1;
nodes = (
(149,1499,l),
(149,1372,l),
(896,1372,l),
(896,1499,l)
);
},
{
closed = 1;
nodes = (
(1159,523,l),
(1159,392,ls),
(1159,217,o),
(1046,34,o),
(833,-46,c),
(919,-167,l),
(1162,-70,o),
(1284,158,o),
(1284,392,cs),
(1284,523,l)
);
},
{
closed = 1;
nodes = (
(1191,523,l),
(1191,392,ls),
(1191,158,o),
(1314,-70,o),
(1557,-167,c),
(1641,-46,l),
(1430,33,o),
(1316,216,o),
(1316,392,cs),
(1316,523,l)
);
},
{
closed = 1;
nodes = (
(241,501,l),
(241,371,l),
(662,371,l),
(662,-159,l),
(817,-159,l),
(817,501,l)
);
},
{
closed = 1;
nodes = (
(1418,1357,l),
(1418,1228,l),
(1727,1228,l),
(1727,1357,l)
);
},
{
closed = 1;
nodes = (
(1418,977,l),
(1418,848,l),
(1727,848,l),
(1727,977,l)
);
}
);
width = 1770;
},
{
layerId = "94F54C43-8AEE-4ED6-B3C2-2A9D33534E61";
shapes = (
{
closed = 1;
nodes = (
(1173,1659,l),
(1173,628,l),
(1531,628,l),
(1531,1659,l)
);
},
{
closed = 1;
nodes = (
(616,1568,l),
(616,1378,ls),
(616,1157,o),
(431,946,o),
(-11,844,c),
(135,569,l),
(701,709,o),
(999,1046,o),
(999,1568,c)
);
},
{
closed = 1;
nodes = (
(92,1568,l),
(92,1285,l),
(838,1285,l),
(838,1568,l)
);
},
{
closed = 1;
nodes = (
(1058,549,l),
(1058,461,ls),
(1058,293,o),
(991,151,o),
(771,77,c),
(952,-199,l),
(1242,-96,o),
(1333,158,o),
(1333,461,cs),
(1333,549,l)
);
},
{
closed = 1;
nodes = (
(1142,549,l),
(1142,461,ls),
(1142,156,o),
(1229,-96,o),
(1519,-199,c),
(1703,77,l),
(1483,149,o),
(1417,290,o),
(1417,461,cs),
(1417,549,l)
);
},
{
closed = 1;
nodes = (
(179,516,l),
(179,233,l),
(459,233,l),
(459,-197,l),
(815,-197,l),
(815,516,l)
);
},
{
closed = 1;
nodes = (
(1434,1486,l),
(1434,1204,l),
(1757,1204,l),
(1757,1486,l)
);
},
{
closed = 1;
nodes = (
(1434,1092,l),
(1434,810,l),
(1757,810,l),
(1757,1092,l)
);
}
);
width = 1770;
}
);
unicode = 44091;
}
{
glyphname = "gyanh-ko";
layers = (
{
layerId = m01;
shapes = (
{
closed = 1;
nodes = (
(1304,1614,l),
(1304,707,l),
(1461,707,l),
(1461,1614,l)
);
},
{
closed = 1;
nodes = (
(260,15,l),
(260,-115,l),
(346,-115,ls),
(466,-115,o),
(633,-107,o),
(804,-51,c),
(779,76,l),
(623,25,o),
(451,15,o),
(346,15,cs)
);
},
{
closed = 1;
nodes = (
(260,542,l),
(260,-21,l),
(414,-21,l),
(414,542,l)
);
},
{
closed = 1;
nodes = (
(740,526,l),
(740,407,l),
(1639,407,l),
(1639,526,l)
);
},
{
closed = 1;
nodes = (
(995,342,o),
(859,244,o),
(859,92,cs),
(859,-62,o),
(995,-160,o),
(1191,-160,cs),
(1384,-160,o),
(1522,-62,o),
(1522,92,cs),
(1522,244,o),
(1384,342,o),
(1191,342,cs)
);
},
{
closed = 1;
nodes = (
(1300,228,o),
(1381,175,o),
(1381,92,cs),
(1381,8,o),
(1301,-47,o),
(1191,-47,cs),
(1078,-47,o),
(1000,8,o),
(1000,92,cs),
(1000,175,o),
(1079,228,o),
(1191,228,cs)
);
},
{
closed = 1;
nodes = (
(1114,683,l),
(1114,441,l),
(1268,441,l),
(1268,683,l)
);
},
{
closed = 1;
nodes = (
(809,1522,l),
(809,1445,ls),
(809,1132,o),
(532,887,o),
(71,776,c),
(133,651,l),
(646,775,o),
(976,1079,o),
(976,1522,c)
);
},
{
closed = 1;
nodes = (
(149,1522,l),
(149,1392,l),
(896,1392,l),
(896,1522,l)
);
},
{
closed = 1;
nodes = (
(1409,1367,l),
(1409,1238,l),
(1719,1238,l),
(1719,1367,l)
);
},
{
closed = 1;
nodes = (
(1409,1039,l),
(1409,910,l),
(1719,910,l),
(1719,1039,l)
);
}
);
width = 1770;
},
{
layerId = "94F54C43-8AEE-4ED6-B3C2-2A9D33534E61";
shapes = (
{
closed = 1;
nodes = (
(1173,1657,l),
(1173,757,l),
(1531,757,l),
(1531,1657,l)
);
},
{
closed = 1;
nodes = (
(172,126,l),
(172,-159,l),
(289,-159,ls),
(529,-159,o),
(647,-149,o),
(781,-100,c),
(730,179,l),
(612,138,o),
(504,126,o),
(289,126,cs)
);
},
{
closed = 1;
nodes = (
(172,603,l),
(172,52,l),
(519,52,l),
(519,603,l)
);
},
{
closed = 1;
nodes = (
(715,592,l),
(715,342,l),
(1652,342,l),
(1652,592,l)
);
},
{
closed = 1;
nodes = (
(961,315,o),
(807,211,o),
(807,53,cs),
(807,-109,o),
(961,-209,o),
(1182,-209,cs),
(1406,-209,o),
(1559,-109,o),
(1559,53,cs),
(1559,211,o),
(1406,315,o),
(1182,315,cs)
);
},
{
closed = 1;
nodes = (
(1212,75,o),
(1241,77,o),
(1241,53,cs),
(1241,25,o),
(1213,27,o),
(1182,27,cs),
(1151,27,o),
(1126,25,o),
(1126,53,cs),
(1126,77,o),
(1152,75,o),
(1182,75,cs)
);
},
{
closed = 1;
nodes = (
(1012,694,l),
(1012,405,l),
(1359,405,l),
(1359,694,l)
);
},
{
closed = 1;
nodes = (
(616,1595,l),
(616,1385,ls),
(616,1210,o),
(437,1014,o),
(-5,936,c),
(133,658,l),
(689,769,o),
(1002,1083,o),
(1002,1595,c)
);
},
{
closed = 1;
nodes = (
(92,1595,l),
(92,1313,l),
(838,1313,l),
(838,1595,l)
);
},
{
closed = 1;
nodes = (
(1441,1501,l),
(1441,1218,l),
(1763,1218,l),
(1763,1501,l)
);
},
{
closed = 1;
nodes = (
(1441,1143,l),
(1441,858,l),
(1763,858,l),
(1763,1143,l)
);
}
);
width = 1770;
}
);
unicode = 44094;
}
{
glyphname = "gyalt-ko";
layers = (
{
layerId = m01;
shapes = (
{
closed = 1;
nodes = (
(1304,1614,l),
(1304,666,l),
(1461,666,l),
(1461,1614,l)
);
},
{
closed = 1;
nodes = (
(806,1530,l),
(806,1448,ls),
(806,1144,o),
(546,906,o),
(75,801,c),
(134,670,l),
(657,791,o),
(978,1083,o),
(978,1530,c)
);
},
{
closed = 1;
nodes = (
(157,1530,l),
(157,1401,l),
(903,1401,l),
(903,1530,l)
);
},
{
closed = 1;
nodes = (
(225,588,l),
(225,466,l),
(650,466,l),
(650,294,l),
(230,294,l),
(230,-57,l),
(382,-57,l),
(382,180,l),
(802,180,l),
(802,588,l)
);
},
{
closed = 1;
nodes = (
(230,-18,l),
(230,-138,l),
(322,-138,ls),
(555,-138,o),
(681,-137,o),
(853,-106,c),
(840,15,l),
(674,-14,o),
(551,-18,o),
(322,-18,cs)
);
},
{
closed = 1;
nodes = (
(903,-18,l),
(903,-138,l),
(1506,-138,l),
(1506,-18,l)
);
},
{
closed = 1;
nodes = (
(903,588,l),
(903,-67,l),
(1058,-67,l),
(1058,466,l),
(1483,466,l),
(1483,588,l)
);
},
{
closed = 1;
nodes = (
(1005,291,l),
(1005,177,l),
(1464,177,l),
(1464,291,l)
);
},
{
closed = 1;
nodes = (
(1418,1375,l),
(1418,1247,l),
(1727,1247,l),
(1727,1375,l)
);
},
{
closed = 1;
nodes = (
(1418,1024,l),
(1418,895,l),
(1727,895,l),
(1727,1024,l)
);
}
);
width = 1770;
},
{
layerId = "94F54C43-8AEE-4ED6-B3C2-2A9D33534E61";
shapes = (
{
closed = 1;
nodes = (
(1173,1659,l),
(1173,688,l),
(1531,688,l),
(1531,1659,l)
);
},
{
closed = 1;
nodes = (
(620,1612,l),
(620,1387,ls),
(620,1228,o),
(490,1054,o),
(12,987,c),
(135,695,l),
(737,795,o),
(1025,1082,o),
(1025,1612,c)
);
},
{
closed = 1;
nodes = (
(111,1612,l),
(111,1330,l),
(855,1330,l),
(855,1612,l)
);
},
{
closed = 1;
nodes = (
(159,629,l),
(159,371,l),
(468,371,l),
(468,335,l),
(160,335,l),
(160,-18,l),
(508,-18,l),
(508,96,l),
(816,96,l),
(816,629,l)
);
},
{
closed = 1;
nodes = (
(160,66,l),
(160,-191,l),
(283,-191,ls),
(543,-191,o),
(684,-191,o),
(855,-164,c),
(833,91,l),
(664,66,o),
(534,66,o),
(283,66,cs)
);
},
{
closed = 1;
nodes = (
(880,66,l),
(880,-191,l),
(1556,-191,l),
(1556,66,l)
);
},
{
closed = 1;
nodes = (
(880,629,l),
(880,-37,l),
(1227,-37,l),
(1227,371,l),
(1541,371,l),
(1541,629,l)
);
},
{
closed = 1;
nodes = (
(1115,340,l),
(1115,99,l),
(1527,99,l),
(1527,340,l)
);
},
{
closed = 1;
nodes = (
(1432,1504,l),
(1432,1224,l),
(1754,1224,l),
(1754,1504,l)
);
},
{
closed = 1;
nodes = (
(1432,1139,l),
(1432,857,l),
(1754,857,l),
(1754,1139,l)
);
}
);
width = 1770;
}
);
unicode = 44101;
}
{
glyphname = "gyalh-ko";
layers = (
{
layerId = m01;
shapes = (
{
closed = 1;
nodes = (
(1304,1614,l),
(1304,730,l),
(1461,730,l),
(1461,1614,l)
);
},
{
closed = 1;
nodes = (
(222,582,l),
(222,464,l),
(630,464,l),
(630,294,l),
(227,294,l),
(227,-68,l),
(378,-68,l),
(378,180,l),
(780,180,l),
(780,582,l)
);
},
{
closed = 1;
nodes = (
(227,-14,l),
(227,-136,l),
(321,-136,ls),
(559,-136,o),
(684,-132,o),
(849,-101,c),
(835,21,l),
(676,-11,o),
(553,-14,o),
(321,-14,cs)
);
},
{
closed = 1;
nodes = (
(841,515,l),
(841,395,l),
(1589,395,l),
(1589,515,l)
);
},
{
closed = 1;
nodes = (
(1033,324,o),
(902,230,o),
(902,82,cs),
(902,-68,o),
(1033,-160,o),
(1208,-160,cs),
(1384,-160,o),
(1513,-68,o),
(1513,82,cs),
(1513,230,o),
(1384,324,o),
(1208,324,cs)
);
},
{
closed = 1;
nodes = (
(1310,214,o),
(1379,162,o),
(1379,82,cs),
(1379,0,o),
(1310,-50,o),
(1208,-50,cs),
(1105,-50,o),
(1037,0,o),
(1037,82,cs),
(1037,162,o),
(1105,214,o),
(1208,214,cs)
);
},
{
closed = 1;
nodes = (
(1133,676,l),
(1133,441,l),
(1287,441,l),
(1287,676,l)
);
},
{
closed = 1;
nodes = (
(806,1530,l),
(806,1448,ls),
(806,1144,o),
(546,906,o),
(75,801,c),
(134,670,l),
(657,791,o),
(978,1083,o),
(978,1530,c)
);
},
{
closed = 1;
nodes = (
(157,1530,l),
(157,1401,l),
(903,1401,l),
(903,1530,l)
);
},
{
closed = 1;
nodes = (
(1418,1375,l),
(1418,1247,l),
(1727,1247,l),
(1727,1375,l)
);
},
{
closed = 1;
nodes = (
(1418,1028,l),
(1418,898,l),
(1727,898,l),
(1727,1028,l)
);
}
);
width = 1770;
},
{
layerId = "94F54C43-8AEE-4ED6-B3C2-2A9D33534E61";
shapes = (
{
closed = 1;
nodes = (
(1173,1659,l),
(1173,753,l),
(1531,753,l),
(1531,1659,l)
);
},
{
closed = 1;
nodes = (
(157,644,l),
(157,391,l),
(428,391,l),
(428,357,l),
(158,357,l),
(158,-8,l),
(500,-8,l),
(500,123,l),
(769,123,l),
(769,644,l)
);
},
{
closed = 1;
nodes = (
(158,83,l),
(158,-173,l),
(283,-173,ls),
(575,-173,o),
(709,-171,o),
(863,-144,c),
(835,109,l),
(684,85,o),
(560,83,o),
(283,83,cs)
);
},
{
closed = 1;
nodes = (
(819,595,l),
(819,345,l),
(1628,345,l),
(1628,595,l)
);
},
{
closed = 1;
nodes = (
(1026,332,o),
(877,221,o),
(877,60,cs),
(877,-102,o),
(1026,-209,o),
(1223,-209,cs),
(1420,-209,o),
(1567,-102,o),
(1567,60,cs),
(1567,221,o),
(1420,332,o),
(1223,332,cs)
);
},
{
closed = 1;
nodes = (
(1243,97,o),
(1268,93,o),
(1268,60,cs),
(1268,27,o),
(1243,23,o),
(1223,23,cs),
(1201,23,o),
(1176,27,o),
(1176,60,cs),
(1176,93,o),
(1201,97,o),
(1223,97,cs)
);
},
{
closed = 1;
nodes = (
(1052,706,l),
(1052,415,l),
(1399,415,l),
(1399,706,l)
);
},
{
closed = 1;
nodes = (
(620,1612,l),
(620,1387,ls),
(620,1228,o),
(490,1054,o),
(12,987,c),
(135,695,l),
(737,795,o),
(1025,1082,o),
(1025,1612,c)
);
},
{
closed = 1;
nodes = (
(111,1612,l),
(111,1330,l),
(855,1330,l),
(855,1612,l)
);
},
{
closed = 1;
nodes = (
(1432,1504,l),
(1432,1224,l),
(1754,1224,l),
(1754,1504,l)
);
},
{
closed = 1;
nodes = (
(1432,1151,l),
(1432,868,l),
(1754,868,l),
(1754,1151,l)
);
}
);
width = 1770;
}
);
unicode = 44103;
}
{
glyphname = "gyak-ko";
layers = (
{
layerId = m01;
shapes = (
{
closed = 1;
nodes = (
(1304,1614,l),
(1304,605,l),
(1461,605,l),
(1461,1614,l)
);
},
{
closed = 1;
nodes = (
(809,1499,l),
(809,1431,ls),
(809,1100,o),
(535,841,o),
(69,716,c),
(134,591,l),
(658,733,o),
(973,1052,o),
(973,1499,c)
);
},
{
closed = 1;
nodes = (
(149,1499,l),
(149,1372,l),
(896,1372,l),
(896,1499,l)
);
},
{
closed = 1;
nodes = (
(299,520,l),
(299,392,l),
(1305,392,l),
(1305,-162,l),
(1461,-162,l),
(1461,520,l)
);
},
{
closed = 1;
nodes = (
(1341,218,l),
(257,176,l),
(273,49,l),
(1341,103,l)
);
},
{
closed = 1;
nodes = (
(1418,1361,l),
(1418,1233,l),
(1727,1233,l),
(1727,1361,l)
);
},
{
closed = 1;
nodes = (
(1418,983,l),
(1418,856,l),
(1727,856,l),
(1727,983,l)
);
}
);
width = 1770;
},
{
layerId = "94F54C43-8AEE-4ED6-B3C2-2A9D33534E61";
shapes = (
{
closed = 1;
nodes = (
(1173,1659,l),
(1173,614,l),
(1531,614,l),
(1531,1659,l)
);
},
{
closed = 1;
nodes = (
(616,1568,l),
(616,1378,ls),
(616,1157,o),
(431,946,o),
(-11,844,c),
(135,569,l),
(701,709,o),
(999,1046,o),
(999,1568,c)
);
},
{
closed = 1;
nodes = (
(92,1568,l),
(92,1285,l),
(838,1285,l),
(838,1568,l)
);
},
{
closed = 1;
nodes = (
(247,547,l),
(247,265,l),
(1178,265,l),
(1178,-206,l),
(1531,-206,l),
(1531,547,l)
);
},
{
closed = 1;
nodes = (
(1228,213,l),
(213,175,l),
(242,-99,l),
(1228,-36,l)
);
},
{
closed = 1;
nodes = (
(1434,1483,l),
(1434,1201,l),
(1757,1201,l),
(1757,1483,l)
);
},
{
closed = 1;
nodes = (
(1434,1086,l),
(1434,803,l),
(1757,803,l),
(1757,1086,l)
);
}
);
width = 1770;
}
);
unicode = 44112;
}
{
glyphname = "gyah-ko";
layers = (
{
layerId = m01;
shapes = (
{
closed = 1;
nodes = (
(1418,1370,l),
(1418,1241,l),
(1727,1241,l),
(1727,1370,l)
);
},
{
closed = 1;
nodes = (
(1418,1002,l),
(1418,874,l),
(1727,874,l),
(1727,1002,l)
);
},
{
closed = 1;
nodes = (
(1304,1614,l),
(1304,678,l),
(1461,678,l),
(1461,1614,l)
);
},
{
closed = 1;
nodes = (
(806,1511,l),
(806,1432,ls),
(806,1119,o),
(556,878,o),
(76,767,c),
(134,637,l),
(670,764,o),
(978,1061,o),
(978,1511,c)
);
},
{
closed = 1;
nodes = (
(149,1511,l),
(149,1381,l),
(896,1381,l),
(896,1511,l)
);
},
{
closed = 1;
nodes = (
(290,553,l),
(290,430,l),
(1539,430,l),
(1539,553,l)
);
},
{
closed = 1;
nodes = (
(604,347,o),
(415,255,o),
(415,94,cs),
(415,-69,o),
(603,-160,o),
(913,-160,cs),
(1224,-160,o),
(1411,-69,o),
(1411,94,cs),
(1411,255,o),
(1223,347,o),
(913,347,cs)
);
},
{
closed = 1;
nodes = (
(1132,230,o),
(1263,180,o),
(1263,94,cs),
(1263,4,o),
(1133,-44,o),
(913,-44,cs),
(693,-44,o),
(565,4,o),
(565,94,cs),
(565,180,o),
(694,230,o),
(913,230,cs)
);
},
{
closed = 1;
nodes = (
(836,762,l),
(836,486,l),
(992,486,l),
(992,762,l)
);
}
);
width = 1770;
},
{
layerId = "94F54C43-8AEE-4ED6-B3C2-2A9D33534E61";
shapes = (
{
closed = 1;
nodes = (
(1434,1510,l),
(1434,1228,l),
(1757,1228,l),
(1757,1510,l)
);
},
{
closed = 1;
nodes = (
(1434,1147,l),
(1434,863,l),
(1757,863,l),
(1757,1147,l)
);
},
{
closed = 1;
nodes = (
(1173,1659,l),
(1173,709,l),
(1531,709,l),
(1531,1659,l)
);
},
{
closed = 1;
nodes = (
(613,1590,l),
(613,1375,ls),
(613,1199,o),
(515,1032,o),
(12,959,c),
(135,676,l),
(756,782,o),
(1008,1054,o),
(1008,1590,c)
);
},
{
closed = 1;
nodes = (
(92,1590,l),
(92,1308,l),
(838,1308,l),
(838,1590,l)
);
},
{
closed = 1;
nodes = (
(220,634,l),
(220,368,l),
(1553,368,l),
(1553,634,l)
);
},
{
closed = 1;
nodes = (
(548,342,o),
(339,238,o),
(339,67,cs),
(339,-110,o),
(548,-209,o),
(886,-209,cs),
(1222,-209,o),
(1428,-110,o),
(1428,67,cs),
(1428,238,o),
(1222,342,o),
(886,342,cs)
);
},
{
closed = 1;
nodes = (
(1031,94,o),
(1092,93,o),
(1092,67,cs),
(1092,36,o),
(1031,36,o),
(886,36,cs),
(738,36,o),
(678,36,o),
(678,67,cs),
(678,93,o),
(739,94,o),
(886,94,cs)
);
},
{
closed = 1;
nodes = (
(707,776,l),
(707,496,l),
(1065,496,l),
(1065,776,l)
);
}
);
width = 1770;
}
);
unicode = 44115;
}
{
glyphname = "gyaenj-ko";
layers = (
{
layerId = m01;
shapes = (
{
closed = 1;
nodes = (
(1169,441,l),
(1169,337,ls),
(1169,185,o),
(1033,26,o),
(817,-40,c),
(889,-162,l),
(1147,-81,o),
(1293,127,o),
(1293,337,cs),
(1293,441,l)
);
},
{
closed = 1;
nodes = (
(1201,441,l),
(1201,337,ls),
(1201,130,o),
(1348,-81,o),
(1605,-162,c),
(1676,-40,l),
(1464,28,o),
(1325,186,o),
(1325,337,cs),
(1325,441,l)
);
},
{
closed = 1;
nodes = (
(314,479,l),
(314,-48,l),
(467,-48,l),
(467,479,l)
);
},
{
closed = 1;
nodes = (
(314,21,l),
(314,-109,l),
(399,-109,ls),
(530,-109,o),
(719,-93,o),
(860,-20,c),
(817,105,l),
(705,39,o),
(526,21,o),
(399,21,cs)
);
},
{
closed = 1;
nodes = (
(862,506,l),
(862,378,l),
(1626,378,l),
(1626,506,l)
);
},
{
closed = 1;
nodes = (
(1431,1613,l),
(1431,602,l),
(1581,602,l),
(1581,1613,l)
);
},
{
closed = 1;
nodes = (
(1039,1581,l),
(1039,613,l),
(1188,613,l),
(1188,1581,l)
);
},
{
closed = 1;
nodes = (
(693,1482,l),
(693,1433,ls),
(693,1095,o),
(486,832,o),
(88,670,c),
(169,553,l),
(618,743,o),
(852,1058,o),
(852,1482,c)
);
},
{
closed = 1;
nodes = (
(155,1482,l),
(155,1353,l),
(751,1353,l),
(751,1482,l)
);
},
{
closed = 1;
nodes = (
(1140,1344,l),
(1140,1215,l),
(1483,1215,l),
(1483,1344,l)
);
},
{
closed = 1;
nodes = (
(1140,977,l),
(1140,849,l),
(1483,849,l),
(1483,977,l)
);
}
);
width = 1770;
},
{
layerId = "94F54C43-8AEE-4ED6-B3C2-2A9D33534E61";
shapes = (
{
closed = 1;
nodes = (
(1082,436,l),
(1082,363,ls),
(1082,247,o),
(998,128,o),
(760,71,c),
(916,-201,l),
(1238,-124,o),
(1356,107,o),
(1356,363,cs),
(1356,436,l)
);
},
{
closed = 1;
nodes = (
(1167,436,l),
(1167,363,ls),
(1167,119,o),
(1288,-124,o),
(1609,-201,c),
(1761,71,l),
(1536,132,o),
(1442,248,o),
(1442,363,cs),
(1442,436,l)
);
},
{
closed = 1;
nodes = (
(230,528,l),
(230,-7,l),
(577,-7,l),
(577,528,l)
);
},
{
closed = 1;
nodes = (
(230,124,l),
(230,-162,l),
(346,-162,ls),
(527,-162,o),
(700,-138,o),
(846,-69,c),
(770,203,l),
(652,151,o),
(511,124,o),
(346,124,cs)
);
},
{
closed = 1;
nodes = (
(834,566,l),
(834,287,l),
(1668,287,l),
(1668,566,l)
);
},
{
closed = 1;
nodes = (
(1313,1660,l),
(1313,627,l),
(1654,627,l),
(1654,1660,l)
);
},
{
closed = 1;
nodes = (
(901,1627,l),
(901,636,l),
(1235,636,l),
(1235,1627,l)
);
},
{
closed = 1;
nodes = (
(487,1537,l),
(487,1403,ls),
(487,1122,o),
(396,946,o),
(7,805,c),
(177,549,l),
(683,743,o),
(845,1037,o),
(845,1537,c)
);
},
{
closed = 1;
nodes = (
(99,1537,l),
(99,1255,l),
(605,1255,l),
(605,1537,l)
);
},
{
closed = 1;
nodes = (
(1149,1470,l),
(1149,1188,l),
(1396,1188,l),
(1396,1470,l)
);
},
{
closed = 1;
nodes = (
(1149,1077,l),
(1149,795,l),
(1396,795,l),
(1396,1077,l)
);
}
);
width = 1770;
}
);
unicode = 44121;
}
{
glyphname = "gyaenh-ko";
layers = (
{
layerId = m01;
shapes = (
{
closed = 1;
nodes = (
(1140,1378,l),
(1140,1249,l),
(1483,1249,l),
(1483,1378,l)
);
},
{
closed = 1;
nodes = (
(1140,1046,l),
(1140,917,l),
(1483,917,l),
(1483,1046,l)
);
},
{
closed = 1;
nodes = (
(1431,1613,l),
(1431,697,l),
(1581,697,l),
(1581,1613,l)
);
},
{
closed = 1;
nodes = (
(1039,1581,l),
(1039,726,l),
(1188,726,l),
(1188,1581,l)
);
},
{
closed = 1;
nodes = (
(689,1508,l),
(689,1455,ls),
(689,1138,o),
(484,894,o),
(87,751,c),
(163,635,l),
(609,803,o),
(848,1098,o),
(848,1508,c)
);
},
{
closed = 1;
nodes = (
(159,1508,l),
(159,1379,l),
(756,1379,l),
(756,1508,l)
);
},
{
closed = 1;
nodes = (
(328,15,l),
(328,-115,l),
(413,-115,ls),
(525,-115,o),
(696,-110,o),
(868,-52,c),
(842,77,l),
(689,25,o),
(519,15,o),
(413,15,cs)
);
},
{
closed = 1;
nodes = (
(328,540,l),
(328,-25,l),
(482,-25,l),
(482,540,l)
);
},
{
closed = 1;
nodes = (
(821,504,l),
(821,384,l),
(1680,384,l),
(1680,504,l)
);
},
{
closed = 1;
nodes = (
(1053,310,o),
(910,219,o),
(910,75,cs),
(910,-71,o),
(1053,-160,o),
(1251,-160,cs),
(1450,-160,o),
(1591,-71,o),
(1591,75,cs),
(1591,219,o),
(1450,310,o),
(1251,310,cs)
);
},
{
closed = 1;
nodes = (
(1368,198,o),
(1449,151,o),
(1449,75,cs),
(1449,-2,o),
(1368,-49,o),
(1251,-49,cs),
(1133,-49,o),
(1051,-2,o),
(1051,75,cs),
(1051,151,o),
(1133,198,o),
(1251,198,cs)
);
},
{
closed = 1;
nodes = (
(1176,660,l),
(1176,447,l),
(1328,447,l),
(1328,660,l)
);
}
);
width = 1770;
},
{
layerId = "94F54C43-8AEE-4ED6-B3C2-2A9D33534E61";
shapes = (
{
closed = 1;
nodes = (
(1149,1490,l),
(1149,1208,l),
(1396,1208,l),
(1396,1490,l)
);
},
{
closed = 1;
nodes = (
(1149,1131,l),
(1149,849,l),
(1396,849,l),
(1396,1131,l)
);
},
{
closed = 1;
nodes = (
(1313,1660,l),
(1313,728,l),
(1654,728,l),
(1654,1660,l)
);
},
{
closed = 1;
nodes = (
(901,1627,l),
(901,735,l),
(1235,735,l),
(1235,1627,l)
);
},
{
closed = 1;
nodes = (
(468,1553,l),
(468,1407,ls),
(468,1170,o),
(367,1009,o),
(-3,899,c),
(165,640,l),
(647,804,o),
(834,1077,o),
(834,1553,c)
);
},
{
closed = 1;
nodes = (
(105,1553,l),
(105,1269,l),
(612,1269,l),
(612,1553,l)
);
},
{
closed = 1;
nodes = (
(279,126,l),
(279,-159,l),
(399,-159,ls),
(635,-159,o),
(769,-151,o),
(908,-99,c),
(858,181,l),
(734,138,o),
(623,126,o),
(399,126,cs)
);
},
{
closed = 1;
nodes = (
(279,593,l),
(279,44,l),
(627,44,l),
(627,593,l)
);
},
{
closed = 1;
nodes = (
(838,570,l),
(838,318,l),
(1738,318,l),
(1738,570,l)
);
},
{
closed = 1;
nodes = (
(1068,306,o),
(915,203,o),
(915,47,cs),
(915,-112,o),
(1068,-213,o),
(1284,-213,cs),
(1500,-213,o),
(1654,-112,o),
(1654,47,cs),
(1654,203,o),
(1500,306,o),
(1284,306,cs)
);
},
{
closed = 1;
nodes = (
(1313,69,o),
(1338,73,o),
(1338,47,cs),
(1338,20,o),
(1313,22,o),
(1284,22,cs),
(1256,22,o),
(1232,20,o),
(1232,47,cs),
(1232,73,o),
(1256,69,o),
(1284,69,cs)
);
},
{
closed = 1;
nodes = (
(1116,675,l),
(1116,473,l),
(1461,473,l),
(1461,675,l)
);
}
);
width = 1770;
}
);
unicode = 44122;
}
{
glyphname = "gyaej-ko";
layers = (
{
layerId = m01;
shapes = (
{
closed = 1;
nodes = (
(1431,1613,l),
(1431,598,l),
(1581,598,l),
(1581,1613,l)
);
},
{
closed = 1;
nodes = (
(1039,1581,l),
(1039,610,l),
(1188,610,l),
(1188,1581,l)
);
},
{
closed = 1;
nodes = (
(693,1482,l),
(693,1433,ls),
(693,1095,o),
(486,832,o),
(88,670,c),
(169,553,l),
(618,743,o),
(852,1058,o),
(852,1482,c)
);
},
{
closed = 1;
nodes = (
(155,1482,l),
(155,1353,l),
(751,1353,l),
(751,1482,l)
);
},
{
closed = 1;
nodes = (
(916,417,l),
(916,378,ls),
(916,166,o),
(637,6,o),
(327,-35,c),
(382,-155,l),
(735,-103,o),
(1049,91,o),
(1049,378,cs),
(1049,417,l)
);
},
{
closed = 1;
nodes = (
(949,417,l),
(949,378,ls),
(949,95,o),
(1263,-103,o),
(1616,-155,c),
(1671,-35,l),
(1365,6,o),
(1083,170,o),
(1083,378,cs),
(1083,417,l)
);
},
{
closed = 1;
nodes = (
(396,506,l),
(396,378,l),
(1601,378,l),
(1601,506,l)
);
},
{
closed = 1;
nodes = (
(1140,1354,l),
(1140,1224,l),
(1483,1224,l),
(1483,1354,l)
);
},
{
closed = 1;
nodes = (
(1140,980,l),
(1140,852,l),
(1483,852,l),
(1483,980,l)
);
}
);
width = 1770;
},
{
layerId = "94F54C43-8AEE-4ED6-B3C2-2A9D33534E61";
shapes = (
{
closed = 1;
nodes = (
(1313,1660,l),
(1313,615,l),
(1654,615,l),
(1654,1660,l)
);
},
{
closed = 1;
nodes = (
(901,1627,l),
(901,626,l),
(1235,626,l),
(1235,1627,l)
);
},
{
closed = 1;
nodes = (
(487,1537,l),
(487,1403,ls),
(487,1122,o),
(396,946,o),
(7,805,c),
(177,549,l),
(683,743,o),
(845,1037,o),
(845,1537,c)
);
},
{
closed = 1;
nodes = (
(99,1537,l),
(99,1255,l),
(605,1255,l),
(605,1537,l)
);
},
{
closed = 1;
nodes = (
(818,376,l),
(818,337,ls),
(818,242,o),
(739,98,o),
(274,64,c),
(392,-202,l),
(932,-158,o),
(1118,73,o),
(1118,337,cs),
(1118,376,l)
);
},
{
closed = 1;
nodes = (
(908,376,l),
(908,337,ls),
(908,86,o),
(1092,-158,o),
(1635,-202,c),
(1750,64,l),
(1296,98,o),
(1209,250,o),
(1209,337,cs),
(1209,376,l)
);
},
{
closed = 1;
nodes = (
(362,552,l),
(362,272,l),
(1674,272,l),
(1674,552,l)
);
},
{
closed = 1;
nodes = (
(1149,1465,l),
(1149,1180,l),
(1396,1180,l),
(1396,1465,l)
);
},
{
closed = 1;
nodes = (
(1149,1076,l),
(1149,792,l),
(1396,792,l),
(1396,1076,l)
);
}
);
width = 1770;
}
);
unicode = 44138;
}
{
glyphname = "gyaec-ko";
layers = (
{
layerId = m01;
shapes = (
{
closed = 1;
nodes = (
(919,625,l),
(919,408,l),
(1077,408,l),
(1077,625,l)
);
},
{
closed = 1;
nodes = (
(1431,1613,l),
(1431,593,l),
(1581,593,l),
(1581,1613,l)
);
},
{
closed = 1;
nodes = (
(1039,1581,l),
(1039,690,l),
(1188,690,l),
(1188,1581,l)
);
},
{
closed = 1;
nodes = (
(691,1486,l),
(691,1438,ls),
(691,1100,o),
(488,841,o),
(87,680,c),
(167,562,l),
(620,750,o),
(849,1066,o),
(849,1486,c)
);
},
{
closed = 1;
nodes = (
(159,1486,l),
(159,1357,l),
(756,1357,l),
(756,1486,l)
);
},
{
closed = 1;
nodes = (
(916,389,l),
(916,349,ls),
(916,151,o),
(630,1,o),
(317,-34,c),
(372,-154,l),
(728,-109,o),
(1049,71,o),
(1049,349,cs),
(1049,389,l)
);
},
{
closed = 1;
nodes = (
(949,389,l),
(949,349,ls),
(949,80,o),
(1265,-108,o),
(1627,-154,c),
(1681,-34,l),
(1372,2,o),
(1083,154,o),
(1083,349,cs),
(1083,389,l)
);
},
{
closed = 1;
nodes = (
(396,457,l),
(396,330,l),
(1601,330,l),
(1601,457,l)
);
},
{
closed = 1;
nodes = (
(1140,1363,l),
(1140,1234,l),
(1483,1234,l),
(1483,1363,l)
);
},
{
closed = 1;
nodes = (
(1140,995,l),
(1140,868,l),
(1483,868,l),
(1483,995,l)
);
}
);
width = 1770;
},
{
layerId = "94F54C43-8AEE-4ED6-B3C2-2A9D33534E61";
shapes = (
{
closed = 1;
nodes = (
(829,652,l),
(829,402,l),
(1191,402,l),
(1191,652,l)
);
},
{
closed = 1;
nodes = (
(1313,1660,l),
(1313,616,l),
(1654,616,l),
(1654,1660,l)
);
},
{
closed = 1;
nodes = (
(901,1627,l),
(901,721,l),
(1235,721,l),
(1235,1627,l)
);
},
{
closed = 1;
nodes = (
(477,1549,l),
(477,1419,ls),
(477,1129,o),
(370,946,o),
(2,801,c),
(176,542,l),
(660,744,o),
(837,1052,o),
(837,1549,c)
);
},
{
closed = 1;
nodes = (
(105,1549,l),
(105,1264,l),
(612,1264,l),
(612,1549,l)
);
},
{
closed = 1;
nodes = (
(818,384,l),
(818,344,ls),
(818,246,o),
(742,99,o),
(276,64,c),
(394,-202,l),
(930,-156,o),
(1118,74,o),
(1118,344,cs),
(1118,384,l)
);
},
{
closed = 1;
nodes = (
(908,384,l),
(908,344,ls),
(908,98,o),
(1080,-155,o),
(1630,-202,c),
(1748,64,l),
(1292,102,o),
(1209,258,o),
(1209,344,cs),
(1209,384,l)
);
},
{
closed = 1;
nodes = (
(362,525,l),
(362,250,l),
(1674,250,l),
(1674,525,l)
);
},
{
closed = 1;
nodes = (
(1149,1492,l),
(1149,1211,l),
(1396,1211,l),
(1396,1492,l)
);
},
{
closed = 1;
nodes = (
(1149,1124,l),
(1149,842,l),
(1396,842,l),
(1396,1124,l)
);
}
);
width = 1770;
}
);
unicode = 44139;
}
{
glyphname = "geogg-ko";
layers = (
{
layerId = m01;
shapes = (
{
closed = 1;
nodes = (
(992,1157,l),
(992,1025,l),
(1430,1025,l),
(1430,1157,l)
);
},
{
closed = 1;
nodes = (
(826,1497,l),
(826,1429,ls),
(826,1101,o),
(555,842,o),
(86,717,c),
(146,593,l),
(674,733,o),
(990,1052,o),
(990,1497,c)
);
},
{
closed = 1;
nodes = (
(186,1497,l),
(186,1370,l),
(933,1370,l),
(933,1497,l)
);
},
{
closed = 1;
nodes = (
(305,497,l),
(305,368,l),
(732,368,l),
(732,-161,l),
(889,-161,l),
(889,497,l)
);
},
{
closed = 1;
nodes = (
(1386,1613,l),
(1386,583,l),
(1545,583,l),
(1545,1613,l)
);
},
{
closed = 1;
nodes = (
(975,497,l),
(975,368,l),
(1386,368,l),
(1386,-161,l),
(1545,-161,l),
(1545,497,l)
);
}
);
width = 1770;
},
{
layerId = "94F54C43-8AEE-4ED6-B3C2-2A9D33534E61";
shapes = (
{
closed = 1;
nodes = (
(1024,1274,l),
(1024,983,l),
(1313,983,l),
(1313,1274,l)
);
},
{
closed = 1;
nodes = (
(630,1566,l),
(630,1380,ls),
(630,1164,o),
(445,958,o),
(17,862,c),
(148,581,l),
(708,718,o),
(1007,1052,o),
(1007,1566,c)
);
},
{
closed = 1;
nodes = (
(148,1566,l),
(148,1284,l),
(892,1284,l),
(892,1566,l)
);
},
{
closed = 1;
nodes = (
(250,537,l),
(250,255,l),
(551,255,l),
(551,-207,l),
(913,-207,l),
(913,537,l)
);
},
{
closed = 1;
nodes = (
(1271,1660,l),
(1271,605,l),
(1633,605,l),
(1633,1660,l)
);
},
{
closed = 1;
nodes = (
(986,537,l),
(986,255,l),
(1271,255,l),
(1271,-207,l),
(1633,-207,l),
(1633,537,l)
);
}
);
width = 1770;
}
);
unicode = 44146;
}
{
glyphname = "geogs-ko";
layers = (
{
layerId = m01;
shapes = (
{
closed = 1;
nodes = (
(992,1157,l),
(992,1025,l),
(1430,1025,l),
(1430,1157,l)
);
},
{
closed = 1;
nodes = (
(826,1497,l),
(826,1429,ls),
(826,1101,o),
(555,842,o),
(86,717,c),
(146,593,l),
(674,733,o),
(990,1052,o),
(990,1497,c)
);
},
{
closed = 1;
nodes = (
(186,1497,l),
(186,1370,l),
(933,1370,l),
(933,1497,l)
);
},
{
closed = 1;
nodes = (
(1386,1613,l),
(1386,578,l),
(1545,578,l),
(1545,1613,l)
);
},
{
closed = 1;
nodes = (
(1225,530,l),
(1225,410,ls),
(1225,222,o),
(1114,33,o),
(901,-49,c),
(986,-168,l),
(1230,-69,o),
(1350,161,o),
(1350,410,cs),
(1350,530,l)
);
},
{
closed = 1;
nodes = (
(1257,530,l),
(1257,410,ls),
(1257,158,o),
(1371,-67,o),
(1616,-166,c),
(1698,-46,l),
(1486,33,o),
(1382,221,o),
(1382,410,cs),
(1382,530,l)
);
},
{
closed = 1;
nodes = (
(305,500,l),
(305,371,l),
(728,371,l),
(728,-153,l),
(884,-153,l),
(884,500,l)
);
}
);
width = 1770;
},
{
layerId = "94F54C43-8AEE-4ED6-B3C2-2A9D33534E61";
shapes = (
{
closed = 1;
nodes = (
(1024,1274,l),
(1024,983,l),
(1313,983,l),
(1313,1274,l)
);
},
{
closed = 1;
nodes = (
(630,1566,l),
(630,1380,ls),
(630,1164,o),
(445,958,o),
(17,862,c),
(148,581,l),
(708,718,o),
(1007,1052,o),
(1007,1566,c)
);
},
{
closed = 1;
nodes = (
(148,1566,l),
(148,1284,l),
(892,1284,l),
(892,1566,l)
);
},
{
closed = 1;
nodes = (
(1271,1660,l),
(1271,608,l),
(1633,608,l),
(1633,1660,l)
);
},
{
closed = 1;
nodes = (
(1145,548,l),
(1145,431,ls),
(1145,263,o),
(1081,126,o),
(864,61,c),
(1050,-207,l),
(1334,-114,o),
(1420,124,o),
(1420,431,cs),
(1420,548,l)
);
},
{
closed = 1;
nodes = (
(1229,548,l),
(1229,431,ls),
(1229,124,o),
(1317,-115,o),
(1606,-211,c),
(1788,59,l),
(1570,126,o),
(1505,263,o),
(1505,431,cs),
(1505,548,l)
);
},
{
closed = 1;
nodes = (
(250,526,l),
(250,246,l),
(541,246,l),
(541,-199,l),
(894,-199,l),
(894,526,l)
);
}
);
width = 1770;
}
);
unicode = 44147;
}
{
glyphname = "geolp-ko";
layers = (
{
layerId = m01;
shapes = (
{
closed = 1;
nodes = (
(952,597,l),
(952,470,l),
(1575,470,l),
(1575,597,l)
);
},
{
closed = 1;
nodes = (
(942,-11,l),
(942,-138,l),
(1585,-138,l),
(1585,-11,l)
);
},
{
closed = 1;
nodes = (
(1049,511,l),
(1049,-84,l),
(1181,-84,l),
(1181,511,l)
);
},
{
closed = 1;
nodes = (
(1345,511,l),
(1345,-84,l),
(1478,-84,l),
(1478,511,l)
);
},
{
closed = 1;
nodes = (
(289,597,l),
(289,474,l),
(701,474,l),
(701,303,l),
(292,303,l),
(292,-59,l),
(445,-59,l),
(445,187,l),
(853,187,l),
(853,597,l)
);
},
{
closed = 1;
nodes = (
(292,-13,l),
(292,-138,l),
(383,-138,ls),
(611,-138,o),
(730,-136,o),
(893,-105,c),
(877,18,l),
(722,-11,o),
(602,-13,o),
(383,-13,cs)
);
},
{
closed = 1;
nodes = (
(1386,1614,l),
(1386,676,l),
(1545,676,l),
(1545,1614,l)
);
},
{
closed = 1;
nodes = (
(993,1184,l),
(993,1054,l),
(1413,1054,l),
(1413,1184,l)
);
},
{
closed = 1;
nodes = (
(821,1524,l),
(821,1452,ls),
(821,1136,o),
(560,898,o),
(98,786,c),
(155,661,l),
(672,789,o),
(987,1083,o),
(987,1524,c)
);
},
{
closed = 1;
nodes = (
(187,1524,l),
(187,1395,l),
(936,1395,l),
(936,1524,l)
);
}
);
width = 1770;
},
{
layerId = "94F54C43-8AEE-4ED6-B3C2-2A9D33534E61";
shapes = (
{
closed = 1;
nodes = (
(955,655,l),
(955,380,l),
(1647,380,l),
(1647,655,l)
);
},
{
closed = 1;
nodes = (
(957,85,l),
(957,-191,l),
(1645,-191,l),
(1645,85,l)
);
},
{
closed = 1;
nodes = (
(1005,472,l),
(1005,-61,l),
(1284,-61,l),
(1284,472,l)
);
},
{
closed = 1;
nodes = (
(1319,472,l),
(1319,-61,l),
(1600,-61,l),
(1600,472,l)
);
},
{
closed = 1;
nodes = (
(244,655,l),
(244,394,l),
(534,394,l),
(534,360,l),
(244,360,l),
(244,-2,l),
(592,-2,l),
(592,117,l),
(883,117,l),
(883,655,l)
);
},
{
closed = 1;
nodes = (
(244,78,l),
(244,-191,l),
(364,-191,ls),
(637,-191,o),
(762,-189,o),
(918,-163,c),
(887,103,l),
(739,80,o),
(618,78,o),
(364,78,cs)
);
},
{
closed = 1;
nodes = (
(1271,1659,l),
(1271,721,l),
(1633,721,l),
(1633,1659,l)
);
},
{
closed = 1;
nodes = (
(1031,1281,l),
(1031,999,l),
(1324,999,l),
(1324,1281,l)
);
},
{
closed = 1;
nodes = (
(636,1602,l),
(636,1405,ls),
(636,1216,o),
(505,1038,o),
(51,957,c),
(173,680,l),
(749,798,o),
(1015,1089,o),
(1015,1602,c)
);
},
{
closed = 1;
nodes = (
(153,1602,l),
(153,1322,l),
(899,1322,l),
(899,1602,l)
);
}
);
width = 1770;
}
);
unicode = 44158;
}
{
glyphname = "geom-ko";
layers = (
{
layerId = m01;
shapes = (
{
closed = 1;
nodes = (
(824,1499,l),
(824,1433,ls),
(824,1100,o),
(547,841,o),
(92,713,c),
(157,589,l),
(670,734,o),
(990,1054,o),
(990,1499,c)
);
},
{
closed = 1;
nodes = (
(184,1499,l),
(184,1371,l),
(930,1371,l),
(930,1499,l)
);
},
{
closed = 1;
nodes = (
(1386,1613,l),
(1386,600,l),
(1545,600,l),
(1545,1613,l)
);
},
{
closed = 1;
nodes = (
(992,1156,l),
(992,1025,l),
(1417,1025,l),
(1417,1156,l)
);
},
{
closed = 1;
nodes = (
(390,525,l),
(390,-137,l),
(1545,-137,l),
(1545,525,l)
);
},
{
closed = 1;
nodes = (
(1390,397,l),
(1390,-8,l),
(545,-8,l),
(545,397,l)
);
}
);
width = 1770;
},
{
layerId = "94F54C43-8AEE-4ED6-B3C2-2A9D33534E61";
shapes = (
{
closed = 1;
nodes = (
(630,1565,l),
(630,1385,ls),
(630,1156,o),
(456,952,o),
(30,844,c),
(167,566,l),
(727,713,o),
(1007,1052,o),
(1007,1565,c)
);
},
{
closed = 1;
nodes = (
(139,1565,l),
(139,1283,l),
(883,1283,l),
(883,1565,l)
);
},
{
closed = 1;
nodes = (
(1271,1660,l),
(1271,636,l),
(1633,636,l),
(1633,1660,l)
);
},
{
closed = 1;
nodes = (
(1024,1253,l),
(1024,965,l),
(1316,965,l),
(1316,1253,l)
);
},
{
closed = 1;
nodes = (
(367,566,l),
(367,-191,l),
(1633,-191,l),
(1633,566,l)
);
},
{
closed = 1;
nodes = (
(1278,284,l),
(1278,89,l),
(723,89,l),
(723,284,l)
);
}
);
width = 1770;
}
);
unicode = 44160;
}
{
glyphname = "geos-ko";
layers = (
{
layerId = m01;
shapes = (
{
closed = 1;
nodes = (
(1386,1613,l),
(1386,411,l),
(1545,411,l),
(1545,1613,l)
);
},
{
closed = 1;
nodes = (
(996,1112,l),
(996,982,l),
(1420,982,l),
(1420,1112,l)
);
},
{
closed = 1;
nodes = (
(825,1474,l),
(825,1413,ls),
(825,1062,o),
(557,793,o),
(103,651,c),
(169,525,l),
(680,690,o),
(990,1018,o),
(990,1474,c)
);
},
{
closed = 1;
nodes = (
(188,1474,l),
(188,1344,l),
(937,1344,l),
(937,1474,l)
);
},
{
closed = 1;
nodes = (
(889,564,l),
(889,483,ls),
(889,221,o),
(602,25,o),
(289,-32,c),
(351,-157,l),
(706,-86,o),
(1024,142,o),
(1024,483,cs),
(1024,564,l)
);
},
{
closed = 1;
nodes = (
(911,564,l),
(911,483,ls),
(911,145,o),
(1227,-83,o),
(1578,-153,c),
(1643,-29,l),
(1331,30,o),
(1046,225,o),
(1046,483,cs),
(1046,564,l)
);
}
);
width = 1770;
},
{
layerId = "94F54C43-8AEE-4ED6-B3C2-2A9D33534E61";
shapes = (
{
closed = 1;
nodes = (
(1271,1660,l),
(1271,445,l),
(1633,445,l),
(1633,1660,l)
);
},
{
closed = 1;
nodes = (
(1022,1196,l),
(1022,909,l),
(1315,909,l),
(1315,1196,l)
);
},
{
closed = 1;
nodes = (
(628,1524,l),
(628,1359,ls),
(628,1093,o),
(512,892,o),
(48,763,c),
(196,484,l),
(788,665,o),
(1007,990,o),
(1007,1524,c)
);
},
{
closed = 1;
nodes = (
(150,1524,l),
(150,1240,l),
(897,1240,l),
(897,1524,l)
);
},
{
closed = 1;
nodes = (
(795,561,l),
(795,520,ls),
(795,366,o),
(702,142,o),
(244,80,c),
(379,-203,l),
(915,-122,o),
(1100,191,o),
(1100,520,cs),
(1100,561,l)
);
},
{
closed = 1;
nodes = (
(846,561,l),
(846,520,ls),
(846,191,o),
(1029,-122,o),
(1566,-202,c),
(1705,78,l),
(1246,141,o),
(1152,365,o),
(1152,520,cs),
(1152,561,l)
);
}
);
width = 1770;
}
);
unicode = 44163;
}
{
glyphname = "geoss-ko";
layers = (
{
layerId = m01;
shapes = (
{
closed = 1;
nodes = (
(824,1499,l),
(824,1433,ls),
(824,1100,o),
(547,841,o),
(92,713,c),
(157,589,l),
(670,734,o),
(990,1054,o),
(990,1499,c)
);
},
{
closed = 1;
nodes = (
(192,1499,l),
(192,1371,l),
(938,1371,l),
(938,1499,l)
);
},
{
closed = 1;
nodes = (
(1386,1613,l),
(1386,600,l),
(1545,600,l),
(1545,1613,l)
);
},
{
closed = 1;
nodes = (
(996,1157,l),
(996,1025,l),
(1420,1025,l),
(1420,1157,l)
);
},
{
closed = 1;
nodes = (
(525,552,l),
(525,423,ls),
(525,250,o),
(389,57,o),
(164,-25,c),
(243,-143,l),
(500,-45,o),
(648,190,o),
(648,423,cs),
(648,552,l)
);
},
{
closed = 1;
nodes = (
(560,552,l),
(560,423,ls),
(560,186,o),
(677,-58,o),
(932,-158,c),
(1000,-39,l),
(785,47,o),
(677,242,o),
(677,423,cs),
(677,552,l)
);
},
{
closed = 1;
nodes = (
(1188,552,l),
(1188,423,ls),
(1188,267,o),
(1079,59,o),
(866,-39,c),
(932,-158,l),
(1187,-51,o),
(1306,214,o),
(1306,423,cs),
(1306,552,l)
);
},
{
closed = 1;
nodes = (
(1220,552,l),
(1220,423,ls),
(1220,178,o),
(1365,-49,o),
(1625,-143,c),
(1704,-25,l),
(1476,52,o),
(1342,238,o),
(1342,423,cs),
(1342,552,l)
);
}
);
width = 1770;
},
{
layerId = "94F54C43-8AEE-4ED6-B3C2-2A9D33534E61";
shapes = (
{
closed = 1;
nodes = (
(630,1565,l),
(630,1385,ls),
(630,1156,o),
(456,952,o),
(30,844,c),
(167,566,l),
(727,713,o),
(1007,1052,o),
(1007,1565,c)
);
},
{
closed = 1;
nodes = (
(137,1565,l),
(137,1283,l),
(881,1283,l),
(881,1565,l)
);
},
{
closed = 1;
nodes = (
(1271,1660,l),
(1271,636,l),
(1633,636,l),
(1633,1660,l)
);
},
{
closed = 1;
nodes = (
(1022,1250,l),
(1022,961,l),
(1315,961,l),
(1315,1250,l)
);
},
{
closed = 1;
nodes = (
(425,561,l),
(425,518,ls),
(425,330,o),
(355,151,o),
(102,66,c),
(277,-192,l),
(593,-83,o),
(692,192,o),
(692,518,cs),
(692,561,l)
);
},
{
closed = 1;
nodes = (
(522,561,l),
(522,518,ls),
(522,211,o),
(617,-95,o),
(937,-211,c),
(1084,47,l),
(847,149,o),
(775,337,o),
(775,518,cs),
(775,561,l)
);
},
{
closed = 1;
nodes = (
(1102,561,l),
(1102,518,ls),
(1102,345,o),
(1030,156,o),
(793,47,c),
(937,-211,l),
(1258,-92,o),
(1355,219,o),
(1355,518,cs),
(1355,561,l)
);
},
{
closed = 1;
nodes = (
(1190,561,l),
(1190,518,ls),
(1190,184,o),
(1286,-86,o),
(1606,-192,c),
(1782,66,l),
(1524,143,o),
(1457,318,o),
(1457,518,cs),
(1457,561,l)
);
}
);
width = 1770;
}
);
unicode = 44164;
}
{
glyphname = "geoh-ko";
layers = (
{
layerId = m01;
shapes = (
{
closed = 1;
nodes = (
(812,1510,l),
(812,1438,ls),
(812,1120,o),
(561,875,o),
(94,761,c),
(152,635,l),
(676,770,o),
(977,1064,o),
(977,1510,c)
);
},
{
closed = 1;
nodes = (
(187,1510,l),
(187,1383,l),
(935,1383,l),
(935,1510,l)
);
},
{
closed = 1;
nodes = (
(1386,1614,l),
(1386,671,l),
(1545,671,l),
(1545,1614,l)
);
},
{
closed = 1;
nodes = (
(990,1192,l),
(990,1062,l),
(1415,1062,l),
(1415,1192,l)
);
},
{
closed = 1;
nodes = (
(334,546,l),
(334,424,l),
(1582,424,l),
(1582,546,l)
);
},
{
closed = 1;
nodes = (
(650,340,o),
(461,251,o),
(461,92,cs),
(461,-68,o),
(650,-158,o),
(959,-158,cs),
(1268,-158,o),
(1458,-68,o),
(1458,92,cs),
(1458,251,o),
(1267,340,o),
(959,340,cs)
);
},
{
closed = 1;
nodes = (
(1166,226,o),
(1294,177,o),
(1294,92,cs),
(1294,4,o),
(1166,-45,o),
(959,-45,cs),
(750,-45,o),
(623,4,o),
(623,92,cs),
(623,177,o),
(751,226,o),
(959,226,cs)
);
},
{
closed = 1;
nodes = (
(881,755,l),
(881,477,l),
(1039,477,l),
(1039,755,l)
);
}
);
width = 1770;
},
{
layerId = "94F54C43-8AEE-4ED6-B3C2-2A9D33534E61";
shapes = (
{
closed = 1;
nodes = (
(599,1583,l),
(599,1392,ls),
(599,1194,o),
(498,1024,o),
(32,937,c),
(153,662,l),
(745,789,o),
(976,1059,o),
(976,1583,c)
);
},
{
closed = 1;
nodes = (
(148,1583,l),
(148,1305,l),
(892,1305,l),
(892,1583,l)
);
},
{
closed = 1;
nodes = (
(1271,1659,l),
(1271,687,l),
(1633,687,l),
(1633,1659,l)
);
},
{
closed = 1;
nodes = (
(1022,1310,l),
(1022,1025,l),
(1314,1025,l),
(1314,1310,l)
);
},
{
closed = 1;
nodes = (
(302,619,l),
(302,355,l),
(1636,355,l),
(1636,619,l)
);
},
{
closed = 1;
nodes = (
(636,321,o),
(428,225,o),
(428,58,cs),
(428,-112,o),
(635,-207,o),
(970,-207,cs),
(1307,-207,o),
(1516,-112,o),
(1516,58,cs),
(1516,225,o),
(1306,321,o),
(970,321,cs)
);
},
{
closed = 1;
nodes = (
(1082,80,o),
(1133,82,o),
(1133,58,cs),
(1133,29,o),
(1083,29,o),
(970,29,cs),
(858,29,o),
(807,29,o),
(807,58,cs),
(807,82,o),
(859,80,o),
(970,80,cs)
);
},
{
closed = 1;
nodes = (
(790,780,l),
(790,500,l),
(1151,500,l),
(1151,780,l)
);
}
);
width = 1770;
}
);
unicode = 44171;
}
{
glyphname = "gegg-ko";
layers = (
{
layerId = m01;
shapes = (
{
closed = 1;
nodes = (
(701,1467,l),
(701,1418,ls),
(701,1086,o),
(481,834,o),
(95,680,c),
(175,564,l),
(610,744,o),
(858,1049,o),
(858,1467,c)
);
},
{
closed = 1;
nodes = (
(167,1467,l),
(167,1338,l),
(763,1338,l),
(763,1467,l)
);
},
{
closed = 1;
nodes = (
(1431,1613,l),
(1431,580,l),
(1581,580,l),
(1581,1613,l)
);
},
{
closed = 1;
nodes = (
(697,1117,l),
(697,988,l),
(1122,988,l),
(1122,1117,l)
);
},
{
closed = 1;
nodes = (
(1075,1577,l),
(1075,598,l),
(1223,598,l),
(1223,1577,l)
);
},
{
closed = 1;
nodes = (
(339,487,l),
(339,359,l),
(767,359,l),
(767,-162,l),
(924,-162,l),
(924,487,l)
);
},
{
closed = 1;
nodes = (
(1010,487,l),
(1010,359,l),
(1425,359,l),
(1425,-162,l),
(1581,-162,l),
(1581,487,l)
);
}
);
width = 1770;
},
{
layerId = "94F54C43-8AEE-4ED6-B3C2-2A9D33534E61";
shapes = (
{
closed = 1;
nodes = (
(487,1521,l),
(487,1387,ls),
(487,1111,o),
(387,936,o),
(22,797,c),
(198,539,l),
(679,733,o),
(851,1032,o),
(851,1521,c)
);
},
{
closed = 1;
nodes = (
(135,1521,l),
(135,1237,l),
(640,1237,l),
(640,1521,l)
);
},
{
closed = 1;
nodes = (
(1313,1660,l),
(1313,571,l),
(1654,571,l),
(1654,1660,l)
);
},
{
closed = 1;
nodes = (
(628,1202,l),
(628,919,l),
(980,919,l),
(980,1202,l)
);
},
{
closed = 1;
nodes = (
(923,1627,l),
(923,583,l),
(1256,583,l),
(1256,1627,l)
);
},
{
closed = 1;
nodes = (
(263,508,l),
(263,228,l),
(565,228,l),
(565,-206,l),
(926,-206,l),
(926,508,l)
);
},
{
closed = 1;
nodes = (
(1000,508,l),
(1000,228,l),
(1293,228,l),
(1293,-206,l),
(1654,-206,l),
(1654,508,l)
);
}
);
width = 1770;
}
);
unicode = 44174;
}
{
glyphname = "gegs-ko";
layers = (
{
layerId = m01;
shapes = (
{
closed = 1;
nodes = (
(290,509,l),
(290,380,l),
(736,380,l),
(736,-153,l),
(891,-153,l),
(891,509,l)
);
},
{
closed = 1;
nodes = (
(1240,538,l),
(1240,397,ls),
(1240,221,o),
(1126,38,o),
(911,-42,c),
(988,-164,l),
(1239,-68,o),
(1366,161,o),
(1366,397,cs),
(1366,538,l)
);
},
{
closed = 1;
nodes = (
(1273,538,l),
(1273,397,ls),
(1273,166,o),
(1399,-67,o),
(1651,-164,c),
(1730,-42,l),
(1512,39,o),
(1398,226,o),
(1398,397,cs),
(1398,538,l)
);
},
{
closed = 1;
nodes = (
(701,1477,l),
(701,1427,ls),
(701,1094,o),
(481,843,o),
(95,690,c),
(175,574,l),
(610,754,o),
(858,1059,o),
(858,1477,c)
);
},
{
closed = 1;
nodes = (
(167,1477,l),
(167,1347,l),
(763,1347,l),
(763,1477,l)
);
},
{
closed = 1;
nodes = (
(1431,1613,l),
(1431,591,l),
(1581,591,l),
(1581,1613,l)
);
},
{
closed = 1;
nodes = (
(697,1128,l),
(697,999,l),
(1122,999,l),
(1122,1128,l)
);
},
{
closed = 1;
nodes = (
(1075,1577,l),
(1075,616,l),
(1223,616,l),
(1223,1577,l)
);
}
);
width = 1770;
},
{
layerId = "94F54C43-8AEE-4ED6-B3C2-2A9D33534E61";
shapes = (
{
closed = 1;
nodes = (
(226,523,l),
(226,243,l),
(518,243,l),
(518,-199,l),
(872,-199,l),
(872,523,l)
);
},
{
closed = 1;
nodes = (
(1118,537,l),
(1118,424,ls),
(1118,287,o),
(1041,146,o),
(809,69,c),
(976,-206,l),
(1287,-112,o),
(1398,149,o),
(1398,424,cs),
(1398,537,l)
);
},
{
closed = 1;
nodes = (
(1205,537,l),
(1205,424,ls),
(1205,136,o),
(1310,-115,o),
(1625,-206,c),
(1793,69,l),
(1556,139,o),
(1481,276,o),
(1481,424,cs),
(1481,537,l)
);
},
{
closed = 1;
nodes = (
(487,1539,l),
(487,1405,ls),
(487,1128,o),
(387,954,o),
(22,815,c),
(198,556,l),
(679,750,o),
(851,1049,o),
(851,1539,c)
);
},
{
closed = 1;
nodes = (
(135,1539,l),
(135,1254,l),
(640,1254,l),
(640,1539,l)
);
},
{
closed = 1;
nodes = (
(1313,1660,l),
(1313,591,l),
(1654,591,l),
(1654,1660,l)
);
},
{
closed = 1;
nodes = (
(628,1223,l),
(628,941,l),
(980,941,l),
(980,1223,l)
);
},
{
closed = 1;
nodes = (
(923,1627,l),
(923,600,l),
(1256,600,l),
(1256,1627,l)
);
}
);
width = 1770;
}
);
unicode = 44175;
}
{
glyphname = "gebs-ko";
layers = (
{
layerId = m01;
shapes = (
{
closed = 1;
nodes = (
(288,572,l),
(288,-138,l),
(904,-138,l),
(904,572,l),
(759,572,l),
(759,349,l),
(435,349,l),
(435,572,l)
);
},
{
closed = 1;
nodes = (
(435,230,l),
(759,230,l),
(759,-14,l),
(435,-14,l)
);
},
{
closed = 1;
nodes = (
(1240,583,l),
(1240,434,ls),
(1240,252,o),
(1129,57,o),
(918,-33,c),
(999,-153,l),
(1237,-49,o),
(1362,192,o),
(1362,434,cs),
(1362,583,l)
);
},
{
closed = 1;
nodes = (
(1273,583,l),
(1273,434,ls),
(1273,187,o),
(1391,-50,o),
(1636,-153,c),
(1717,-33,l),
(1506,50,o),
(1394,245,o),
(1394,434,cs),
(1394,583,l)
);
},
{
closed = 1;
nodes = (
(695,1489,l),
(695,1438,ls),
(695,1112,o),
(499,858,o),
(89,706,c),
(167,590,l),
(626,769,o),
(853,1070,o),
(853,1489,c)
);
},
{
closed = 1;
nodes = (
(169,1489,l),
(169,1361,l),
(766,1361,l),
(766,1489,l)
);
},
{
closed = 1;
nodes = (
(1431,1613,l),
(1431,651,l),
(1581,651,l),
(1581,1613,l)
);
},
{
closed = 1;
nodes = (
(703,1138,l),
(703,1007,l),
(1123,1007,l),
(1123,1138,l)
);
},
{
closed = 1;
nodes = (
(1075,1577,l),
(1075,668,l),
(1223,668,l),
(1223,1577,l)
);
}
);
width = 1770;
},
{
layerId = "94F54C43-8AEE-4ED6-B3C2-2A9D33534E61";
shapes = (
{
closed = 1;
nodes = (
(230,570,l),
(230,-191,l),
(943,-191,l),
(943,570,l),
(619,570,l),
(619,433,l),
(560,433,l),
(560,570,l)
);
},
{
closed = 1;
nodes = (
(560,178,l),
(619,178,l),
(619,76,l),
(560,76,l)
);
},
{
closed = 1;
nodes = (
(1154,586,l),
(1154,465,ls),
(1154,299,o),
(1090,149,o),
(879,56,c),
(1054,-209,l),
(1332,-104,o),
(1423,165,o),
(1423,465,cs),
(1423,586,l)
);
},
{
closed = 1;
nodes = (
(1242,586,l),
(1242,465,ls),
(1242,142,o),
(1317,-112,o),
(1611,-209,c),
(1786,56,l),
(1570,126,o),
(1511,277,o),
(1511,465,cs),
(1511,586,l)
);
},
{
closed = 1;
nodes = (
(474,1543,l),
(474,1400,ls),
(474,1150,o),
(393,990,o),
(11,871,c),
(182,612,l),
(673,786,o),
(841,1054,o),
(841,1543,c)
);
},
{
closed = 1;
nodes = (
(139,1543,l),
(139,1259,l),
(644,1259,l),
(644,1543,l)
);
},
{
closed = 1;
nodes = (
(1313,1660,l),
(1313,661,l),
(1654,661,l),
(1654,1660,l)
);
},
{
closed = 1;
nodes = (
(645,1233,l),
(645,949,l),
(1000,949,l),
(1000,1233,l)
);
},
{
closed = 1;
nodes = (
(923,1627,l),
(923,668,l),
(1256,668,l),
(1256,1627,l)
);
}
);
width = 1770;
}
);
unicode = 44190;
}
{
glyphname = "gyeogg-ko";
layers = (
{
layerId = m01;
shapes = (
{
closed = 1;
nodes = (
(841,1499,l),
(841,1431,ls),
(841,1100,o),
(558,839,o),
(99,714,c),
(163,590,l),
(681,732,o),
(1006,1050,o),
(1006,1499,c)
);
},
{
closed = 1;
nodes = (
(189,1499,l),
(189,1371,l),
(938,1371,l),
(938,1499,l)
);
},
{
closed = 1;
nodes = (
(305,497,l),
(305,368,l),
(732,368,l),
(732,-161,l),
(889,-161,l),
(889,497,l)
);
},
{
closed = 1;
nodes = (
(1386,1613,l),
(1386,583,l),
(1545,583,l),
(1545,1613,l)
);
},
{
closed = 1;
nodes = (
(975,497,l),
(975,368,l),
(1386,368,l),
(1386,-161,l),
(1545,-161,l),
(1545,497,l)
);
},
{
closed = 1;
nodes = (
(933,1305,l),
(933,1175,l),
(1418,1175,l),
(1418,1305,l)
);
},
{
closed = 1;
nodes = (
(914,929,l),
(914,798,l),
(1404,798,l),
(1404,929,l)
);
}
);
width = 1770;
},
{
layerId = "94F54C43-8AEE-4ED6-B3C2-2A9D33534E61";
shapes = (
{
closed = 1;
nodes = (
(666,1565,l),
(666,1378,ls),
(666,1157,o),
(485,950,o),
(49,848,c),
(189,569,l),
(754,711,o),
(1043,1048,o),
(1043,1565,c)
);
},
{
closed = 1;
nodes = (
(159,1565,l),
(159,1283,l),
(906,1283,l),
(906,1565,l)
);
},
{
closed = 1;
nodes = (
(250,537,l),
(250,255,l),
(551,255,l),
(551,-207,l),
(913,-207,l),
(913,537,l)
);
},
{
closed = 1;
nodes = (
(1271,1660,l),
(1271,605,l),
(1633,605,l),
(1633,1660,l)
);
},
{
closed = 1;
nodes = (
(986,537,l),
(986,255,l),
(1271,255,l),
(1271,-207,l),
(1633,-207,l),
(1633,537,l)
);
},
{
closed = 1;
nodes = (
(945,1426,l),
(945,1143,l),
(1328,1143,l),
(1328,1426,l)
);
},
{
closed = 1;
nodes = (
(926,1023,l),
(926,738,l),
(1307,738,l),
(1307,1023,l)
);
}
);
width = 1770;
}
);
unicode = 44202;
}
{
glyphname = "gyeolg-ko";
layers = (
{
layerId = m01;
shapes = (
{
closed = 1;
nodes = (
(822,1526,l),
(822,1451,ls),
(822,1134,o),
(567,897,o),
(101,786,c),
(156,658,l),
(678,786,o),
(991,1078,o),
(991,1526,c)
);
},
{
closed = 1;
nodes = (
(193,1526,l),
(193,1397,l),
(894,1397,l),
(894,1526,l)
);
},
{
closed = 1;
nodes = (
(928,1356,l),
(928,1231,l),
(1411,1231,l),
(1411,1356,l)
);
},
{
closed = 1;
nodes = (
(911,1016,l),
(911,892,l),
(1402,892,l),
(1402,1016,l)
);
},
{
closed = 1;
nodes = (
(305,-20,l),
(305,-143,l),
(413,-143,ls),
(696,-143,o),
(843,-138,o),
(1034,-103,c),
(1018,20,l),
(835,-16,o),
(687,-20,o),
(413,-20,cs)
);
},
{
closed = 1;
nodes = (
(302,581,l),
(302,460,l),
(740,460,l),
(740,286,l),
(305,286,l),
(305,-99,l),
(457,-99,l),
(457,172,l),
(892,172,l),
(892,581,l)
);
},
{
closed = 1;
nodes = (
(975,581,l),
(975,455,l),
(1389,455,l),
(1389,-153,l),
(1545,-153,l),
(1545,581,l)
);
},
{
closed = 1;
nodes = (
(1386,1614,l),
(1386,666,l),
(1545,666,l),
(1545,1614,l)
);
}
);
width = 1770;
},
{
layerId = "94F54C43-8AEE-4ED6-B3C2-2A9D33534E61";
shapes = (
{
closed = 1;
nodes = (
(616,1607,l),
(616,1410,ls),
(616,1218,o),
(505,1046,o),
(46,961,c),
(163,677,l),
(757,801,o),
(1004,1088,o),
(1004,1607,c)
);
},
{
closed = 1;
nodes = (
(167,1607,l),
(167,1327,l),
(761,1327,l),
(761,1607,l)
);
},
{
closed = 1;
nodes = (
(926,1462,l),
(926,1193,l),
(1307,1193,l),
(1307,1462,l)
);
},
{
closed = 1;
nodes = (
(918,1094,l),
(918,827,l),
(1300,827,l),
(1300,1094,l)
);
},
{
closed = 1;
nodes = (
(264,70,l),
(264,-192,l),
(401,-192,ls),
(789,-192,o),
(919,-191,o),
(1060,-158,c),
(1032,101,l),
(892,71,o),
(771,70,o),
(401,70,cs)
);
},
{
closed = 1;
nodes = (
(263,627,l),
(263,365,l),
(569,365,l),
(569,339,l),
(264,339,l),
(264,-121,l),
(613,-121,l),
(613,98,l),
(918,98,l),
(918,627,l)
);
},
{
closed = 1;
nodes = (
(986,627,l),
(986,349,l),
(1278,349,l),
(1278,-194,l),
(1633,-194,l),
(1633,627,l)
);
},
{
closed = 1;
nodes = (
(1271,1659,l),
(1271,688,l),
(1633,688,l),
(1633,1659,l)
);
}
);
width = 1770;
}
);
unicode = 44209;
}
{
glyphname = "gyeolm-ko";
layers = (
{
layerId = m01;
shapes = (
{
closed = 1;
nodes = (
(822,1526,l),
(822,1451,ls),
(822,1134,o),
(567,897,o),
(101,786,c),
(156,658,l),
(678,786,o),
(991,1078,o),
(991,1526,c)
);
},
{
closed = 1;
nodes = (
(193,1526,l),
(193,1397,l),
(894,1397,l),
(894,1526,l)
);
},
{
closed = 1;
nodes = (
(928,1356,l),
(928,1231,l),
(1411,1231,l),
(1411,1356,l)
);
},
{
closed = 1;
nodes = (
(911,1016,l),
(911,892,l),
(1402,892,l),
(1402,1016,l)
);
},
{
closed = 1;
nodes = (
(1386,1614,l),
(1386,676,l),
(1545,676,l),
(1545,1614,l)
);
},
{
closed = 1;
nodes = (
(289,597,l),
(289,474,l),
(712,474,l),
(712,300,l),
(292,300,l),
(292,-63,l),
(445,-63,l),
(445,185,l),
(865,185,l),
(865,597,l)
);
},
{
closed = 1;
nodes = (
(978,597,l),
(978,-138,l),
(1545,-138,l),
(1545,597,l)
);
},
{
closed = 1;
nodes = (
(1405,477,l),
(1405,-18,l),
(1116,-18,l),
(1116,477,l)
);
},
{
closed = 1;
nodes = (
(292,-12,l),
(292,-138,l),
(386,-138,ls),
(627,-138,o),
(751,-135,o),
(918,-104,c),
(903,20,l),
(741,-8,o),
(621,-12,o),
(386,-12,cs)
);
}
);
width = 1770;
},
{
layerId = "94F54C43-8AEE-4ED6-B3C2-2A9D33534E61";
shapes = (
{
closed = 1;
nodes = (
(616,1607,l),
(616,1410,ls),
(616,1218,o),
(505,1046,o),
(46,961,c),
(163,677,l),
(757,801,o),
(1004,1088,o),
(1004,1607,c)
);
},
{
closed = 1;
nodes = (
(167,1607,l),
(167,1327,l),
(761,1327,l),
(761,1607,l)
);
},
{
closed = 1;
nodes = (
(926,1462,l),
(926,1193,l),
(1307,1193,l),
(1307,1462,l)
);
},
{
closed = 1;
nodes = (
(918,1094,l),
(918,827,l),
(1300,827,l),
(1300,1094,l)
);
},
{
closed = 1;
nodes = (
(1271,1659,l),
(1271,721,l),
(1633,721,l),
(1633,1659,l)
);
},
{
closed = 1;
nodes = (
(244,655,l),
(244,394,l),
(551,394,l),
(551,360,l),
(244,360,l),
(244,-1,l),
(592,-1,l),
(592,117,l),
(899,117,l),
(899,655,l)
);
},
{
closed = 1;
nodes = (
(973,655,l),
(973,-191,l),
(1633,-191,l),
(1633,655,l)
);
},
{
closed = 1;
nodes = (
(1326,398,l),
(1326,66,l),
(1277,66,l),
(1277,398,l)
);
},
{
closed = 1;
nodes = (
(244,78,l),
(244,-191,l),
(368,-191,ls),
(652,-191,o),
(782,-189,o),
(938,-161,c),
(910,106,l),
(756,80,o),
(636,78,o),
(368,78,cs)
);
}
);
width = 1770;
}
);
unicode = 44210;
}
{
glyphname = "gyeolt-ko";
layers = (
{
layerId = m01;
shapes = (
{
closed = 1;
nodes = (
(1386,1614,l),
(1386,704,l),
(1545,704,l),
(1545,1614,l)
);
},
{
closed = 1;
nodes = (
(289,593,l),
(289,470,l),
(712,470,l),
(712,300,l),
(292,300,l),
(292,-59,l),
(445,-59,l),
(445,185,l),
(865,185,l),
(865,593,l)
);
},
{
closed = 1;
nodes = (
(292,-12,l),
(292,-138,l),
(386,-138,ls),
(629,-138,o),
(754,-135,o),
(920,-104,c),
(906,20,l),
(743,-8,o),
(623,-12,o),
(386,-12,cs)
);
},
{
closed = 1;
nodes = (
(976,-13,l),
(976,-138,l),
(1579,-138,l),
(1579,-13,l)
);
},
{
closed = 1;
nodes = (
(1017,300,l),
(1017,182,l),
(1528,182,l),
(1528,300,l)
);
},
{
closed = 1;
nodes = (
(976,594,l),
(976,-93,l),
(1128,-93,l),
(1128,469,l),
(1560,469,l),
(1560,594,l)
);
},
{
closed = 1;
nodes = (
(822,1526,l),
(822,1451,ls),
(822,1134,o),
(567,897,o),
(101,786,c),
(156,658,l),
(678,786,o),
(991,1078,o),
(991,1526,c)
);
},
{
closed = 1;
nodes = (
(193,1526,l),
(193,1397,l),
(894,1397,l),
(894,1526,l)
);
},
{
closed = 1;
nodes = (
(928,1356,l),
(928,1231,l),
(1411,1231,l),
(1411,1356,l)
);
},
{
closed = 1;
nodes = (
(911,1016,l),
(911,892,l),
(1402,892,l),
(1402,1016,l)
);
}
);
width = 1770;
},
{
layerId = "94F54C43-8AEE-4ED6-B3C2-2A9D33534E61";
shapes = (
{
closed = 1;
nodes = (
(1271,1659,l),
(1271,726,l),
(1633,726,l),
(1633,1659,l)
);
},
{
closed = 1;
nodes = (
(244,656,l),
(244,395,l),
(551,395,l),
(551,360,l),
(244,360,l),
(244,-2,l),
(592,-2,l),
(592,117,l),
(899,117,l),
(899,656,l)
);
},
{
closed = 1;
nodes = (
(244,78,l),
(244,-191,l),
(368,-191,ls),
(656,-191,o),
(790,-189,o),
(947,-161,c),
(916,106,l),
(763,80,o),
(643,78,o),
(368,78,cs)
);
},
{
closed = 1;
nodes = (
(978,78,l),
(978,-191,l),
(1642,-191,l),
(1642,78,l)
);
},
{
closed = 1;
nodes = (
(1070,360,l),
(1070,108,l),
(1597,108,l),
(1597,360,l)
);
},
{
closed = 1;
nodes = (
(978,658,l),
(978,-78,l),
(1326,-78,l),
(1326,390,l),
(1639,390,l),
(1639,658,l)
);
},
{
closed = 1;
nodes = (
(616,1607,l),
(616,1410,ls),
(616,1218,o),
(505,1046,o),
(46,961,c),
(163,677,l),
(757,801,o),
(1004,1088,o),
(1004,1607,c)
);
},
{
closed = 1;
nodes = (
(167,1607,l),
(167,1327,l),
(761,1327,l),
(761,1607,l)
);
},
{
closed = 1;
nodes = (
(926,1462,l),
(926,1193,l),
(1307,1193,l),
(1307,1462,l)
);
},
{
closed = 1;
nodes = (
(918,1094,l),
(918,827,l),
(1300,827,l),
(1300,1094,l)
);
}
);
width = 1770;
}
);
unicode = 44213;
}
{
glyphname = "gyeolp-ko";
layers = (
{
layerId = m01;
shapes = (
{
closed = 1;
nodes = (
(952,597,l),
(952,470,l),
(1575,470,l),
(1575,597,l)
);
},
{
closed = 1;
nodes = (
(942,-11,l),
(942,-138,l),
(1585,-138,l),
(1585,-11,l)
);
},
{
closed = 1;
nodes = (
(1049,511,l),
(1049,-84,l),
(1181,-84,l),
(1181,511,l)
);
},
{
closed = 1;
nodes = (
(1345,511,l),
(1345,-84,l),
(1478,-84,l),
(1478,511,l)
);
},
{
closed = 1;
nodes = (
(289,597,l),
(289,474,l),
(701,474,l),
(701,303,l),
(292,303,l),
(292,-59,l),
(445,-59,l),
(445,187,l),
(853,187,l),
(853,597,l)
);
},
{
closed = 1;
nodes = (
(292,-13,l),
(292,-138,l),
(383,-138,ls),
(611,-138,o),
(730,-136,o),
(893,-105,c),
(877,18,l),
(722,-11,o),
(602,-13,o),
(383,-13,cs)
);
},
{
closed = 1;
nodes = (
(1386,1614,l),
(1386,676,l),
(1545,676,l),
(1545,1614,l)
);
},
{
closed = 1;
nodes = (
(822,1526,l),
(822,1451,ls),
(822,1134,o),
(567,897,o),
(101,786,c),
(156,658,l),
(678,786,o),
(991,1078,o),
(991,1526,c)
);
},
{
closed = 1;
nodes = (
(193,1526,l),
(193,1397,l),
(894,1397,l),
(894,1526,l)
);
},
{
closed = 1;
nodes = (
(928,1356,l),
(928,1231,l),
(1411,1231,l),
(1411,1356,l)
);
},
{
closed = 1;
nodes = (
(911,1016,l),
(911,892,l),
(1402,892,l),
(1402,1016,l)
);
}
);
width = 1770;
},
{
layerId = "94F54C43-8AEE-4ED6-B3C2-2A9D33534E61";
shapes = (
{
closed = 1;
nodes = (
(955,655,l),
(955,380,l),
(1647,380,l),
(1647,655,l)
);
},
{
closed = 1;
nodes = (
(957,85,l),
(957,-191,l),
(1645,-191,l),
(1645,85,l)
);
},
{
closed = 1;
nodes = (
(1005,472,l),
(1005,-61,l),
(1284,-61,l),
(1284,472,l)
);
},
{
closed = 1;
nodes = (
(1319,472,l),
(1319,-61,l),
(1600,-61,l),
(1600,472,l)
);
},
{
closed = 1;
nodes = (
(244,655,l),
(244,394,l),
(534,394,l),
(534,360,l),
(244,360,l),
(244,-2,l),
(592,-2,l),
(592,117,l),
(883,117,l),
(883,655,l)
);
},
{
closed = 1;
nodes = (
(244,78,l),
(244,-191,l),
(364,-191,ls),
(637,-191,o),
(762,-189,o),
(918,-163,c),
(887,103,l),
(739,80,o),
(618,78,o),
(364,78,cs)
);
},
{
closed = 1;
nodes = (
(1271,1659,l),
(1271,721,l),
(1633,721,l),
(1633,1659,l)
);
},
{
closed = 1;
nodes = (
(616,1607,l),
(616,1410,ls),
(616,1218,o),
(505,1046,o),
(46,961,c),
(163,677,l),
(757,801,o),
(1004,1088,o),
(1004,1607,c)
);
},
{
closed = 1;
nodes = (
(167,1607,l),
(167,1327,l),
(761,1327,l),
(761,1607,l)
);
},
{
closed = 1;
nodes = (
(926,1462,l),
(926,1193,l),
(1307,1193,l),
(1307,1462,l)
);
},
{
closed = 1;
nodes = (
(918,1094,l),
(918,827,l),
(1300,827,l),
(1300,1094,l)
);
}
);
width = 1770;
}
);
unicode = 44214;
}
{
glyphname = "gyeong-ko";
layers = (
{
layerId = m01;
shapes = (
{
closed = 1;
nodes = (
(930,1285,l),
(930,1157,l),
(1414,1157,l),
(1414,1285,l)
);
},
{
closed = 1;
nodes = (
(913,916,l),
(913,786,l),
(1402,786,l),
(1402,916,l)
);
},
{
closed = 1;
nodes = (
(1386,1613,l),
(1386,548,l),
(1545,548,l),
(1545,1613,l)
);
},
{
closed = 1;
nodes = (
(827,1481,l),
(827,1412,ls),
(827,1073,o),
(553,809,o),
(95,676,c),
(160,551,l),
(674,702,o),
(995,1025,o),
(995,1481,c)
);
},
{
closed = 1;
nodes = (
(187,1481,l),
(187,1351,l),
(935,1351,l),
(935,1481,l)
);
},
{
closed = 1;
nodes = (
(599,528,o),
(369,400,o),
(369,187,cs),
(369,-25,o),
(599,-154,o),
(962,-154,cs),
(1324,-154,o),
(1554,-25,o),
(1554,187,cs),
(1554,400,o),
(1324,528,o),
(962,528,cs)
);
},
{
closed = 1;
nodes = (
(1227,403,o),
(1399,322,o),
(1399,187,cs),
(1399,52,o),
(1228,-29,o),
(962,-29,cs),
(696,-29,o),
(525,52,o),
(525,187,cs),
(525,322,o),
(696,403,o),
(962,403,cs)
);
}
);
width = 1770;
},
{
layerId = "94F54C43-8AEE-4ED6-B3C2-2A9D33534E61";
shapes = (
{
closed = 1;
nodes = (
(945,1412,l),
(945,1129,l),
(1329,1129,l),
(1329,1412,l)
);
},
{
closed = 1;
nodes = (
(932,1027,l),
(932,742,l),
(1312,742,l),
(1312,1027,l)
);
},
{
closed = 1;
nodes = (
(1271,1660,l),
(1271,629,l),
(1633,629,l),
(1633,1660,l)
);
},
{
closed = 1;
nodes = (
(636,1545,l),
(636,1363,ls),
(636,1128,o),
(514,936,o),
(39,826,c),
(174,546,l),
(775,696,o),
(1021,1013,o),
(1021,1545,c)
);
},
{
closed = 1;
nodes = (
(148,1545,l),
(148,1261,l),
(892,1261,l),
(892,1545,l)
);
},
{
closed = 1;
nodes = (
(615,601,o),
(350,446,o),
(350,203,cs),
(350,-38,o),
(615,-197,o),
(999,-197,cs),
(1382,-197,o),
(1645,-38,o),
(1645,203,cs),
(1645,446,o),
(1382,601,o),
(999,601,cs)
);
},
{
closed = 1;
nodes = (
(1188,327,o),
(1290,292,o),
(1290,203,cs),
(1290,112,o),
(1190,78,o),
(999,78,cs),
(809,78,o),
(708,112,o),
(708,203,cs),
(708,292,o),
(810,327,o),
(999,327,cs)
);
}
);
width = 1770;
}
);
unicode = 44221;
}
{
glyphname = "gyeok-ko";
layers = (
{
layerId = m01;
shapes = (
{
closed = 1;
nodes = (
(344,523,l),
(344,393,l),
(1388,393,l),
(1388,-163,l),
(1545,-163,l),
(1545,523,l)
);
},
{
closed = 1;
nodes = (
(1407,226,l),
(302,183,l),
(318,57,l),
(1407,111,l)
);
},
{
closed = 1;
nodes = (
(1386,1613,l),
(1386,600,l),
(1545,600,l),
(1545,1613,l)
);
},
{
closed = 1;
nodes = (
(930,1321,l),
(930,1190,l),
(1414,1190,l),
(1414,1321,l)
);
},
{
closed = 1;
nodes = (
(913,955,l),
(913,824,l),
(1403,824,l),
(1403,955,l)
);
},
{
closed = 1;
nodes = (
(828,1499,l),
(828,1433,ls),
(828,1100,o),
(549,839,o),
(94,713,c),
(157,589,l),
(672,732,o),
(993,1053,o),
(993,1499,c)
);
},
{
closed = 1;
nodes = (
(184,1499,l),
(184,1371,l),
(930,1371,l),
(930,1499,l)
);
}
);
width = 1770;
},
{
layerId = "94F54C43-8AEE-4ED6-B3C2-2A9D33534E61";
shapes = (
{
closed = 1;
nodes = (
(326,572,l),
(326,291,l),
(1275,291,l),
(1275,-204,l),
(1633,-204,l),
(1633,572,l)
);
},
{
closed = 1;
nodes = (
(1303,238,l),
(290,197,l),
(320,-73,l),
(1303,-13,l)
);
},
{
closed = 1;
nodes = (
(1271,1660,l),
(1271,636,l),
(1633,636,l),
(1633,1660,l)
);
},
{
closed = 1;
nodes = (
(935,1465,l),
(935,1179,l),
(1316,1179,l),
(1316,1465,l)
);
},
{
closed = 1;
nodes = (
(925,1070,l),
(925,783,l),
(1304,783,l),
(1304,1070,l)
);
},
{
closed = 1;
nodes = (
(635,1565,l),
(635,1385,ls),
(635,1156,o),
(459,952,o),
(32,844,c),
(167,566,l),
(729,713,o),
(1011,1049,o),
(1011,1565,c)
);
},
{
closed = 1;
nodes = (
(139,1565,l),
(139,1283,l),
(883,1283,l),
(883,1565,l)
);
}
);
width = 1770;
}
);
unicode = 44224;
}
{
glyphname = "gyeoh-ko";
layers = (
{
layerId = m01;
shapes = (
{
closed = 1;
nodes = (
(1386,1614,l),
(1386,671,l),
(1545,671,l),
(1545,1614,l)
);
},
{
closed = 1;
nodes = (
(334,546,l),
(334,424,l),
(1582,424,l),
(1582,546,l)
);
},
{
closed = 1;
nodes = (
(650,340,o),
(461,251,o),
(461,92,cs),
(461,-68,o),
(650,-158,o),
(959,-158,cs),
(1268,-158,o),
(1458,-68,o),
(1458,92,cs),
(1458,251,o),
(1267,340,o),
(959,340,cs)
);
},
{
closed = 1;
nodes = (
(1166,226,o),
(1294,177,o),
(1294,92,cs),
(1294,4,o),
(1166,-45,o),
(959,-45,cs),
(750,-45,o),
(623,4,o),
(623,92,cs),
(623,177,o),
(751,226,o),
(959,226,cs)
);
},
{
closed = 1;
nodes = (
(881,755,l),
(881,477,l),
(1039,477,l),
(1039,755,l)
);
},
{
closed = 1;
nodes = (
(822,1526,l),
(822,1450,ls),
(822,1136,o),
(565,900,o),
(101,788,c),
(157,660,l),
(680,788,o),
(992,1079,o),
(992,1526,c)
);
},
{
closed = 1;
nodes = (
(193,1526,l),
(193,1399,l),
(894,1399,l),
(894,1526,l)
);
},
{
closed = 1;
nodes = (
(929,1359,l),
(929,1234,l),
(1413,1234,l),
(1413,1359,l)
);
},
{
closed = 1;
nodes = (
(913,1024,l),
(913,900,l),
(1403,900,l),
(1403,1024,l)
);
}
);
width = 1770;
},
{
layerId = "94F54C43-8AEE-4ED6-B3C2-2A9D33534E61";
shapes = (
{
closed = 1;
nodes = (
(1271,1659,l),
(1271,687,l),
(1633,687,l),
(1633,1659,l)
);
},
{
closed = 1;
nodes = (
(302,619,l),
(302,355,l),
(1636,355,l),
(1636,619,l)
);
},
{
closed = 1;
nodes = (
(636,321,o),
(428,225,o),
(428,58,cs),
(428,-112,o),
(635,-207,o),
(970,-207,cs),
(1307,-207,o),
(1516,-112,o),
(1516,58,cs),
(1516,225,o),
(1306,321,o),
(970,321,cs)
);
},
{
closed = 1;
nodes = (
(1082,80,o),
(1133,82,o),
(1133,58,cs),
(1133,29,o),
(1083,29,o),
(970,29,cs),
(858,29,o),
(807,29,o),
(807,58,cs),
(807,82,o),
(859,80,o),
(970,80,cs)
);
},
{
closed = 1;
nodes = (
(790,780,l),
(790,500,l),
(1151,500,l),
(1151,780,l)
);
},
{
closed = 1;
nodes = (
(616,1607,l),
(616,1408,ls),
(616,1221,o),
(506,1048,o),
(46,963,c),
(165,675,l),
(754,800,o),
(1007,1083,o),
(1007,1607,c)
);
},
{
closed = 1;
nodes = (
(167,1607,l),
(167,1330,l),
(761,1330,l),
(761,1607,l)
);
},
{
closed = 1;
nodes = (
(930,1471,l),
(930,1204,l),
(1312,1204,l),
(1312,1471,l)
);
},
{
closed = 1;
nodes = (
(923,1119,l),
(923,853,l),
(1304,853,l),
(1304,1119,l)
);
}
);
width = 1770;
}
);
unicode = 44227;
}
{
glyphname = "gyenj-ko";
layers = (
{
layerId = m01;
shapes = (
{
closed = 1;
nodes = (
(1169,441,l),
(1169,337,ls),
(1169,185,o),
(1033,26,o),
(817,-40,c),
(889,-162,l),
(1147,-81,o),
(1293,127,o),
(1293,337,cs),
(1293,441,l)
);
},
{
closed = 1;
nodes = (
(1201,441,l),
(1201,337,ls),
(1201,130,o),
(1348,-81,o),
(1605,-162,c),
(1676,-40,l),
(1464,28,o),
(1325,186,o),
(1325,337,cs),
(1325,441,l)
);
},
{
closed = 1;
nodes = (
(314,475,l),
(314,-52,l),
(467,-52,l),
(467,475,l)
);
},
{
closed = 1;
nodes = (
(314,21,l),
(314,-109,l),
(399,-109,ls),
(530,-109,o),
(719,-93,o),
(860,-20,c),
(817,105,l),
(705,39,o),
(526,21,o),
(399,21,cs)
);
},
{
closed = 1;
nodes = (
(862,503,l),
(862,374,l),
(1626,374,l),
(1626,503,l)
);
},
{
closed = 1;
nodes = (
(782,1290,l),
(782,1162,l),
(1190,1162,l),
(1190,1290,l)
);
},
{
closed = 1;
nodes = (
(767,940,l),
(767,813,l),
(1175,813,l),
(1175,940,l)
);
},
{
closed = 1;
nodes = (
(701,1484,l),
(701,1436,ls),
(701,1100,o),
(482,847,o),
(95,693,c),
(174,577,l),
(611,758,o),
(858,1064,o),
(858,1484,c)
);
},
{
closed = 1;
nodes = (
(167,1484,l),
(167,1354,l),
(763,1354,l),
(763,1484,l)
);
},
{
closed = 1;
nodes = (
(1431,1613,l),
(1431,605,l),
(1581,605,l),
(1581,1613,l)
);
},
{
closed = 1;
nodes = (
(1087,1578,l),
(1087,619,l),
(1236,619,l),
(1236,1578,l)
);
}
);
width = 1770;
},
{
layerId = "94F54C43-8AEE-4ED6-B3C2-2A9D33534E61";
shapes = (
{
closed = 1;
nodes = (
(1082,436,l),
(1082,363,ls),
(1082,247,o),
(998,128,o),
(760,71,c),
(916,-201,l),
(1238,-124,o),
(1356,107,o),
(1356,363,cs),
(1356,436,l)
);
},
{
closed = 1;
nodes = (
(1167,436,l),
(1167,363,ls),
(1167,119,o),
(1288,-124,o),
(1609,-201,c),
(1761,71,l),
(1536,132,o),
(1442,248,o),
(1442,363,cs),
(1442,436,l)
);
},
{
closed = 1;
nodes = (
(230,515,l),
(230,-21,l),
(577,-21,l),
(577,515,l)
);
},
{
closed = 1;
nodes = (
(230,124,l),
(230,-162,l),
(346,-162,ls),
(527,-162,o),
(700,-138,o),
(846,-69,c),
(770,203,l),
(652,151,o),
(511,124,o),
(346,124,cs)
);
},
{
closed = 1;
nodes = (
(834,552,l),
(834,273,l),
(1668,273,l),
(1668,552,l)
);
},
{
closed = 1;
nodes = (
(761,1411,l),
(761,1131,l),
(1176,1131,l),
(1176,1411,l)
);
},
{
closed = 1;
nodes = (
(757,1024,l),
(757,744,l),
(1173,744,l),
(1173,1024,l)
);
},
{
closed = 1;
nodes = (
(487,1552,l),
(487,1418,ls),
(487,1142,o),
(387,966,o),
(22,829,c),
(198,570,l),
(679,764,o),
(851,1061,o),
(851,1552,c)
);
},
{
closed = 1;
nodes = (
(135,1552,l),
(135,1267,l),
(640,1267,l),
(640,1552,l)
);
},
{
closed = 1;
nodes = (
(1313,1660,l),
(1313,614,l),
(1654,614,l),
(1654,1660,l)
);
},
{
closed = 1;
nodes = (
(920,1627,l),
(920,624,l),
(1254,624,l),
(1254,1627,l)
);
}
);
width = 1770;
}
);
unicode = 44233;
}
{
glyphname = "gyelg-ko";
layers = (
{
layerId = m01;
shapes = (
{
closed = 1;
nodes = (
(1004,595,l),
(1004,467,l),
(1425,467,l),
(1425,-160,l),
(1581,-160,l),
(1581,595,l)
);
},
{
closed = 1;
nodes = (
(305,595,l),
(305,473,l),
(756,473,l),
(756,299,l),
(309,299,l),
(309,-64,l),
(462,-64,l),
(462,183,l),
(908,183,l),
(908,595,l)
);
},
{
closed = 1;
nodes = (
(309,-13,l),
(309,-138,l),
(419,-138,ls),
(715,-138,o),
(860,-135,o),
(1053,-98,c),
(1038,23,l),
(853,-8,o),
(708,-13,o),
(419,-13,cs)
);
},
{
closed = 1;
nodes = (
(795,1344,l),
(795,1220,l),
(1174,1220,l),
(1174,1344,l)
);
},
{
closed = 1;
nodes = (
(790,1012,l),
(790,888,l),
(1174,888,l),
(1174,1012,l)
);
},
{
closed = 1;
nodes = (
(1431,1613,l),
(1431,687,l),
(1581,687,l),
(1581,1613,l)
);
},
{
closed = 1;
nodes = (
(1087,1578,l),
(1087,699,l),
(1236,699,l),
(1236,1578,l)
);
},
{
closed = 1;
nodes = (
(696,1512,l),
(696,1457,ls),
(696,1150,o),
(499,908,o),
(93,767,c),
(169,651,l),
(616,813,o),
(855,1103,o),
(855,1512,c)
);
},
{
closed = 1;
nodes = (
(169,1512,l),
(169,1383,l),
(764,1383,l),
(764,1512,l)
);
}
);
width = 1770;
},
{
layerId = "94F54C43-8AEE-4ED6-B3C2-2A9D33534E61";
shapes = (
{
closed = 1;
nodes = (
(981,655,l),
(981,374,l),
(1293,374,l),
(1293,-199,l),
(1654,-199,l),
(1654,655,l)
);
},
{
closed = 1;
nodes = (
(246,655,l),
(246,394,l),
(568,394,l),
(568,361,l),
(246,361,l),
(246,-1,l),
(595,-1,l),
(595,117,l),
(916,117,l),
(916,655,l)
);
},
{
closed = 1;
nodes = (
(246,78,l),
(246,-191,l),
(383,-191,ls),
(717,-191,o),
(865,-189,o),
(1039,-158,c),
(1007,107,l),
(841,80,o),
(702,78,o),
(383,78,cs)
);
},
{
closed = 1;
nodes = (
(753,1455,l),
(753,1187,l),
(1118,1187,l),
(1118,1455,l)
);
},
{
closed = 1;
nodes = (
(752,1088,l),
(752,822,l),
(1116,822,l),
(1116,1088,l)
);
},
{
closed = 1;
nodes = (
(1313,1660,l),
(1313,718,l),
(1654,718,l),
(1654,1660,l)
);
},
{
closed = 1;
nodes = (
(920,1632,l),
(920,722,l),
(1254,722,l),
(1254,1632,l)
);
},
{
closed = 1;
nodes = (
(471,1561,l),
(471,1412,ls),
(471,1201,o),
(385,1051,o),
(17,949,c),
(184,685,l),
(655,842,o),
(840,1096,o),
(840,1561,c)
);
},
{
closed = 1;
nodes = (
(135,1561,l),
(135,1281,l),
(639,1281,l),
(639,1561,l)
);
}
);
width = 1770;
}
);
unicode = 44237;
}
{
glyphname = "gyelh-ko";
layers = (
{
layerId = m01;
shapes = (
{
closed = 1;
nodes = (
(920,506,l),
(920,385,l),
(1677,385,l),
(1677,506,l)
);
},
{
closed = 1;
nodes = (
(1111,315,o),
(976,221,o),
(976,77,cs),
(976,-68,o),
(1111,-161,o),
(1297,-161,cs),
(1481,-161,o),
(1615,-68,o),
(1615,77,cs),
(1615,221,o),
(1481,315,o),
(1297,315,cs)
);
},
{
closed = 1;
nodes = (
(1402,204,o),
(1477,154,o),
(1477,77,cs),
(1477,-1,o),
(1402,-51,o),
(1297,-51,cs),
(1191,-51,o),
(1116,-1,o),
(1116,77,cs),
(1116,154,o),
(1191,204,o),
(1297,204,cs)
);
},
{
closed = 1;
nodes = (
(1220,666,l),
(1220,426,l),
(1374,426,l),
(1374,666,l)
);
},
{
closed = 1;
nodes = (
(295,597,l),
(295,474,l),
(713,474,l),
(713,306,l),
(299,306,l),
(299,-52,l),
(450,-52,l),
(450,190,l),
(864,190,l),
(864,597,l)
);
},
{
closed = 1;
nodes = (
(299,-13,l),
(299,-138,l),
(396,-138,ls),
(643,-138,o),
(770,-135,o),
(942,-104,c),
(927,20,l),
(762,-10,o),
(635,-13,o),
(396,-13,cs)
);
},
{
closed = 1;
nodes = (
(795,1349,l),
(795,1225,l),
(1174,1225,l),
(1174,1349,l)
);
},
{
closed = 1;
nodes = (
(790,1024,l),
(790,901,l),
(1174,901,l),
(1174,1024,l)
);
},
{
closed = 1;
nodes = (
(1431,1613,l),
(1431,703,l),
(1581,703,l),
(1581,1613,l)
);
},
{
closed = 1;
nodes = (
(1087,1580,l),
(1087,733,l),
(1236,733,l),
(1236,1580,l)
);
},
{
closed = 1;
nodes = (
(696,1515,l),
(696,1460,ls),
(696,1150,o),
(488,914,o),
(94,779,c),
(169,662,l),
(614,822,o),
(855,1107,o),
(855,1515,c)
);
},
{
closed = 1;
nodes = (
(169,1515,l),
(169,1386,l),
(764,1386,l),
(764,1515,l)
);
}
);
width = 1770;
},
{
layerId = "94F54C43-8AEE-4ED6-B3C2-2A9D33534E61";
shapes = (
{
closed = 1;
nodes = (
(908,572,l),
(908,320,l),
(1720,320,l),
(1720,572,l)
);
},
{
closed = 1;
nodes = (
(1099,302,o),
(946,199,o),
(946,44,cs),
(946,-112,o),
(1099,-214,o),
(1308,-214,cs),
(1517,-214,o),
(1668,-112,o),
(1668,44,cs),
(1668,199,o),
(1517,302,o),
(1308,302,cs)
);
},
{
closed = 1;
nodes = (
(1329,65,o),
(1355,70,o),
(1355,44,cs),
(1355,18,o),
(1329,20,o),
(1308,20,cs),
(1285,20,o),
(1258,18,o),
(1258,44,cs),
(1258,70,o),
(1285,65,o),
(1308,65,cs)
);
},
{
closed = 1;
nodes = (
(1136,684,l),
(1136,394,l),
(1485,394,l),
(1485,684,l)
);
},
{
closed = 1;
nodes = (
(248,655,l),
(248,394,l),
(519,394,l),
(519,359,l),
(249,359,l),
(249,-4,l),
(598,-4,l),
(598,116,l),
(867,116,l),
(867,655,l)
);
},
{
closed = 1;
nodes = (
(249,78,l),
(249,-191,l),
(374,-191,ls),
(653,-191,o),
(784,-189,o),
(940,-161,c),
(911,106,l),
(759,80,o),
(639,78,o),
(374,78,cs)
);
},
{
closed = 1;
nodes = (
(753,1470,l),
(753,1203,l),
(1118,1203,l),
(1118,1470,l)
);
},
{
closed = 1;
nodes = (
(752,1115,l),
(752,847,l),
(1116,847,l),
(1116,1115,l)
);
},
{
closed = 1;
nodes = (
(1313,1660,l),
(1313,749,l),
(1654,749,l),
(1654,1660,l)
);
},
{
closed = 1;
nodes = (
(920,1636,l),
(920,753,l),
(1254,753,l),
(1254,1636,l)
);
},
{
closed = 1;
nodes = (
(471,1573,l),
(471,1424,ls),
(471,1206,o),
(378,1059,o),
(17,959,c),
(184,695,l),
(657,852,o),
(840,1107,o),
(840,1573,c)
);
},
{
closed = 1;
nodes = (
(135,1573,l),
(135,1293,l),
(639,1293,l),
(639,1573,l)
);
}
);
width = 1770;
}
);
unicode = 44243;
}
{
glyphname = "gyem-ko";
layers = (
{
layerId = m01;
shapes = (
{
closed = 1;
nodes = (
(782,1288,l),
(782,1161,l),
(1190,1161,l),
(1190,1288,l)
);
},
{
closed = 1;
nodes = (
(767,936,l),
(767,808,l),
(1175,808,l),
(1175,936,l)
);
},
{
closed = 1;
nodes = (
(701,1483,l),
(701,1433,ls),
(701,1098,o),
(481,847,o),
(95,693,c),
(174,576,l),
(611,757,o),
(858,1063,o),
(858,1483,c)
);
},
{
closed = 1;
nodes = (
(167,1483,l),
(167,1353,l),
(763,1353,l),
(763,1483,l)
);
},
{
closed = 1;
nodes = (
(1431,1613,l),
(1431,588,l),
(1581,588,l),
(1581,1613,l)
);
},
{
closed = 1;
nodes = (
(1087,1577,l),
(1087,607,l),
(1236,607,l),
(1236,1577,l)
);
},
{
closed = 1;
nodes = (
(408,506,l),
(408,-133,l),
(1581,-133,l),
(1581,506,l)
);
},
{
closed = 1;
nodes = (
(1428,380,l),
(1428,-5,l),
(563,-5,l),
(563,380,l)
);
}
);
width = 1770;
},
{
layerId = "94F54C43-8AEE-4ED6-B3C2-2A9D33534E61";
shapes = (
{
closed = 1;
nodes = (
(761,1405,l),
(761,1128,l),
(1176,1128,l),
(1176,1405,l)
);
},
{
closed = 1;
nodes = (
(757,1010,l),
(757,730,l),
(1173,730,l),
(1173,1010,l)
);
},
{
closed = 1;
nodes = (
(487,1547,l),
(487,1416,ls),
(487,1135,o),
(387,958,o),
(22,816,c),
(196,557,l),
(681,755,o),
(851,1053,o),
(851,1547,c)
);
},
{
closed = 1;
nodes = (
(135,1547,l),
(135,1262,l),
(640,1262,l),
(640,1547,l)
);
},
{
closed = 1;
nodes = (
(1313,1660,l),
(1313,582,l),
(1654,582,l),
(1654,1660,l)
);
},
{
closed = 1;
nodes = (
(920,1627,l),
(920,590,l),
(1254,590,l),
(1254,1627,l)
);
},
{
closed = 1;
nodes = (
(349,522,l),
(349,-180,l),
(1654,-180,l),
(1654,522,l)
);
},
{
closed = 1;
nodes = (
(1299,243,l),
(1299,100,l),
(703,100,l),
(703,243,l)
);
}
);
width = 1770;
}
);
unicode = 44244;
}
{
glyphname = "gyeng-ko";
layers = (
{
layerId = m01;
shapes = (
{
closed = 1;
nodes = (
(621,493,o),
(389,371,o),
(389,166,cs),
(389,-38,o),
(621,-158,o),
(997,-158,cs),
(1372,-158,o),
(1604,-38,o),
(1604,166,cs),
(1604,371,o),
(1372,493,o),
(997,493,cs)
);
},
{
closed = 1;
nodes = (
(1272,372,o),
(1446,296,o),
(1446,166,cs),
(1446,39,o),
(1273,-37,o),
(997,-37,cs),
(719,-37,o),
(546,39,o),
(546,166,cs),
(546,296,o),
(720,372,o),
(997,372,cs)
);
},
{
closed = 1;
nodes = (
(782,1279,l),
(782,1152,l),
(1190,1152,l),
(1190,1279,l)
);
},
{
closed = 1;
nodes = (
(768,919,l),
(768,791,l),
(1176,791,l),
(1176,919,l)
);
},
{
closed = 1;
nodes = (
(701,1473,l),
(701,1424,ls),
(701,1088,o),
(481,834,o),
(94,678,c),
(174,561,l),
(611,745,o),
(857,1053,o),
(857,1473,c)
);
},
{
closed = 1;
nodes = (
(167,1473,l),
(167,1342,l),
(763,1342,l),
(763,1473,l)
);
},
{
closed = 1;
nodes = (
(1431,1613,l),
(1431,525,l),
(1581,525,l),
(1581,1613,l)
);
},
{
closed = 1;
nodes = (
(1087,1577,l),
(1087,581,l),
(1236,581,l),
(1236,1577,l)
);
}
);
width = 1770;
},
{
layerId = "94F54C43-8AEE-4ED6-B3C2-2A9D33534E61";
shapes = (
{
closed = 1;
nodes = (
(609,525,o),
(343,383,o),
(343,156,cs),
(343,-70,o),
(609,-211,o),
(1008,-211,cs),
(1408,-211,o),
(1670,-70,o),
(1670,156,cs),
(1670,383,o),
(1408,525,o),
(1008,525,cs)
);
},
{
closed = 1;
nodes = (
(1208,264,o),
(1309,235,o),
(1309,156,cs),
(1309,80,o),
(1210,50,o),
(1008,50,cs),
(805,50,o),
(705,80,o),
(705,156,cs),
(705,235,o),
(807,264,o),
(1008,264,cs)
);
},
{
closed = 1;
nodes = (
(761,1407,l),
(761,1130,l),
(1176,1130,l),
(1176,1407,l)
);
},
{
closed = 1;
nodes = (
(759,1003,l),
(759,722,l),
(1174,722,l),
(1174,1003,l)
);
},
{
closed = 1;
nodes = (
(487,1551,l),
(487,1421,ls),
(487,1130,o),
(387,948,o),
(20,801,c),
(196,542,l),
(684,747,o),
(848,1054,o),
(848,1551,c)
);
},
{
closed = 1;
nodes = (
(135,1551,l),
(135,1264,l),
(640,1264,l),
(640,1551,l)
);
},
{
closed = 1;
nodes = (
(1313,1660,l),
(1313,542,l),
(1654,542,l),
(1654,1660,l)
);
},
{
closed = 1;
nodes = (
(920,1627,l),
(920,586,l),
(1254,586,l),
(1254,1627,l)
);
}
);
width = 1770;
}
);
unicode = 44249;
}
{
glyphname = "gyet-ko";
layers = (
{
layerId = m01;
shapes = (
{
closed = 1;
nodes = (
(418,582,l),
(418,-81,l),
(575,-81,l),
(575,460,l),
(1591,460,l),
(1591,582,l)
);
},
{
closed = 1;
nodes = (
(418,-18,l),
(418,-141,l),
(1629,-141,l),
(1629,-18,l)
);
},
{
closed = 1;
nodes = (
(536,284,l),
(536,167,l),
(1570,167,l),
(1570,284,l)
);
},
{
closed = 1;
nodes = (
(802,1322,l),
(802,1197,l),
(1181,1197,l),
(1181,1322,l)
);
},
{
closed = 1;
nodes = (
(795,984,l),
(795,859,l),
(1179,859,l),
(1179,984,l)
);
},
{
closed = 1;
nodes = (
(693,1501,l),
(693,1448,ls),
(693,1129,o),
(490,890,o),
(90,750,c),
(167,634,l),
(616,798,o),
(852,1088,o),
(852,1501,c)
);
},
{
closed = 1;
nodes = (
(169,1501,l),
(169,1371,l),
(766,1371,l),
(766,1501,l)
);
},
{
closed = 1;
nodes = (
(1431,1613,l),
(1431,667,l),
(1581,667,l),
(1581,1613,l)
);
},
{
closed = 1;
nodes = (
(1087,1577,l),
(1087,681,l),
(1236,681,l),
(1236,1577,l)
);
}
);
width = 1770;
},
{
layerId = "94F54C43-8AEE-4ED6-B3C2-2A9D33534E61";
shapes = (
{
closed = 1;
nodes = (
(360,629,l),
(360,-64,l),
(720,-64,l),
(720,365,l),
(1664,365,l),
(1664,629,l)
);
},
{
closed = 1;
nodes = (
(360,62,l),
(360,-202,l),
(1694,-202,l),
(1694,62,l)
);
},
{
closed = 1;
nodes = (
(661,339,l),
(661,94,l),
(1644,94,l),
(1644,339,l)
);
},
{
closed = 1;
nodes = (
(773,1415,l),
(773,1148,l),
(1136,1148,l),
(1136,1415,l)
);
},
{
closed = 1;
nodes = (
(768,1060,l),
(768,791,l),
(1130,791,l),
(1130,1060,l)
);
},
{
closed = 1;
nodes = (
(469,1558,l),
(469,1416,ls),
(469,1172,o),
(390,1009,o),
(11,894,c),
(182,635,l),
(671,808,o),
(836,1076,o),
(836,1558,c)
);
},
{
closed = 1;
nodes = (
(139,1558,l),
(139,1276,l),
(644,1276,l),
(644,1558,l)
);
},
{
closed = 1;
nodes = (
(1313,1660,l),
(1313,676,l),
(1654,676,l),
(1654,1660,l)
);
},
{
closed = 1;
nodes = (
(920,1627,l),
(920,687,l),
(1254,687,l),
(1254,1627,l)
);
}
);
width = 1770;
}
);
unicode = 44253;
}
{
glyphname = "gyeh-ko";
layers = (
{
layerId = m01;
shapes = (
{
closed = 1;
nodes = (
(348,520,l),
(348,397,l),
(1626,397,l),
(1626,520,l)
);
},
{
closed = 1;
nodes = (
(667,326,o),
(479,240,o),
(479,83,cs),
(479,-74,o),
(667,-160,o),
(988,-160,cs),
(1308,-160,o),
(1496,-74,o),
(1496,83,cs),
(1496,240,o),
(1307,326,o),
(988,326,cs)
);
},
{
closed = 1;
nodes = (
(1216,213,o),
(1345,168,o),
(1345,83,cs),
(1345,-2,o),
(1217,-47,o),
(988,-47,cs),
(759,-47,o),
(630,-2,o),
(630,83,cs),
(630,168,o),
(759,213,o),
(988,213,cs)
);
},
{
closed = 1;
nodes = (
(911,688,l),
(911,447,l),
(1065,447,l),
(1065,688,l)
);
},
{
closed = 1;
nodes = (
(802,1347,l),
(802,1222,l),
(1181,1222,l),
(1181,1347,l)
);
},
{
closed = 1;
nodes = (
(795,1021,l),
(795,898,l),
(1179,898,l),
(1179,1021,l)
);
},
{
closed = 1;
nodes = (
(693,1509,l),
(693,1457,ls),
(693,1135,o),
(488,897,o),
(89,755,c),
(167,641,l),
(616,806,o),
(852,1094,o),
(852,1509,c)
);
},
{
closed = 1;
nodes = (
(169,1509,l),
(169,1380,l),
(766,1380,l),
(766,1509,l)
);
},
{
closed = 1;
nodes = (
(1431,1613,l),
(1431,653,l),
(1581,653,l),
(1581,1613,l)
);
},
{
closed = 1;
nodes = (
(1087,1577,l),
(1087,728,l),
(1236,728,l),
(1236,1577,l)
);
}
);
width = 1770;
},
{
layerId = "94F54C43-8AEE-4ED6-B3C2-2A9D33534E61";
shapes = (
{
closed = 1;
nodes = (
(318,596,l),
(318,334,l),
(1670,334,l),
(1670,596,l)
);
},
{
closed = 1;
nodes = (
(647,311,o),
(442,219,o),
(442,50,cs),
(442,-118,o),
(646,-209,o),
(996,-209,cs),
(1342,-209,o),
(1546,-118,o),
(1546,50,cs),
(1546,219,o),
(1341,311,o),
(996,311,cs)
);
},
{
closed = 1;
nodes = (
(1154,73,o),
(1203,75,o),
(1203,50,cs),
(1203,25,o),
(1155,27,o),
(996,27,cs),
(836,27,o),
(787,25,o),
(787,50,cs),
(787,75,o),
(837,73,o),
(996,73,cs)
);
},
{
closed = 1;
nodes = (
(814,698,l),
(814,409,l),
(1173,409,l),
(1173,698,l)
);
},
{
closed = 1;
nodes = (
(773,1433,l),
(773,1165,l),
(1136,1165,l),
(1136,1433,l)
);
},
{
closed = 1;
nodes = (
(768,1086,l),
(768,819,l),
(1130,819,l),
(1130,1086,l)
);
},
{
closed = 1;
nodes = (
(469,1566,l),
(469,1426,ls),
(469,1175,o),
(391,1008,o),
(9,886,c),
(182,629,l),
(674,806,o),
(836,1078,o),
(836,1566,c)
);
},
{
closed = 1;
nodes = (
(139,1566,l),
(139,1284,l),
(644,1284,l),
(644,1566,l)
);
},
{
closed = 1;
nodes = (
(1313,1660,l),
(1313,669,l),
(1654,669,l),
(1654,1660,l)
);
},
{
closed = 1;
nodes = (
(920,1627,l),
(920,758,l),
(1254,758,l),
(1254,1627,l)
);
}
);
width = 1770;
}
);
unicode = 44255;
}
{
glyphname = "golg-ko";
layers = (
{
layerId = m01;
shapes = (
{
closed = 1;
nodes = (
(247,-21,l),
(247,-141,l),
(354,-141,ls),
(625,-141,o),
(778,-136,o),
(978,-96,c),
(962,24,l),
(770,-15,o),
(618,-21,o),
(354,-21,cs)
);
},
{
closed = 1;
nodes = (
(242,559,l),
(242,442,l),
(681,442,l),
(681,275,l),
(247,275,l),
(247,-71,l),
(398,-71,l),
(398,162,l),
(833,162,l),
(833,559,l)
);
},
{
closed = 1;
nodes = (
(928,559,l),
(928,431,l),
(1352,431,l),
(1352,-162,l),
(1508,-162,l),
(1508,559,l)
);
},
{
closed = 1;
nodes = (
(265,1532,l),
(265,1406,l),
(1421,1406,l),
(1421,1532,l)
);
},
{
closed = 1;
nodes = (
(73,857,l),
(73,728,l),
(1691,728,l),
(1691,857,l)
);
},
{
closed = 1;
nodes = (
(742,1185,l),
(742,817,l),
(899,817,l),
(899,1185,l)
);
},
{
closed = 1;
nodes = (
(1329,1532,l),
(1329,1422,ls),
(1329,1308,o),
(1329,1169,o),
(1290,977,c),
(1446,961,l),
(1483,1153,o),
(1483,1305,o),
(1483,1422,cs),
(1483,1532,l)
);
}
);
width = 1770;
},
{
layerId = "94F54C43-8AEE-4ED6-B3C2-2A9D33534E61";
shapes = (
{
closed = 1;
nodes = (
(190,50,l),
(190,-202,l),
(320,-202,ls),
(635,-202,o),
(775,-201,o),
(941,-169,c),
(915,81,l),
(752,51,o),
(623,50,o),
(320,50,cs)
);
},
{
closed = 1;
nodes = (
(189,605,l),
(189,357,l),
(495,357,l),
(495,322,l),
(190,322,l),
(190,-80,l),
(538,-80,l),
(538,91,l),
(841,91,l),
(841,605,l)
);
},
{
closed = 1;
nodes = (
(898,605,l),
(898,327,l),
(1203,327,l),
(1203,-206,l),
(1560,-206,l),
(1560,605,l)
);
},
{
closed = 1;
nodes = (
(220,1589,l),
(220,1311,l),
(1394,1311,l),
(1394,1589,l)
);
},
{
closed = 1;
nodes = (
(40,955,l),
(40,674,l),
(1732,674,l),
(1732,955,l)
);
},
{
closed = 1;
nodes = (
(604,1206,l),
(604,844,l),
(963,844,l),
(963,1206,l)
);
},
{
closed = 1;
nodes = (
(1184,1589,l),
(1184,1461,ls),
(1184,1344,o),
(1184,1223,o),
(1146,1052,c),
(1504,1015,l),
(1543,1187,o),
(1543,1348,o),
(1543,1461,cs),
(1543,1589,l)
);
}
);
width = 1770;
}
);
unicode = 44265;
}
{
glyphname = "golb-ko";
layers = (
{
layerId = m01;
shapes = (
{
closed = 1;
nodes = (
(932,586,l),
(932,-141,l),
(1510,-141,l),
(1510,586,l),
(1371,586,l),
(1371,336,l),
(1071,336,l),
(1071,586,l)
);
},
{
closed = 1;
nodes = (
(1071,213,l),
(1371,213,l),
(1371,-20,l),
(1071,-20,l)
);
},
{
closed = 1;
nodes = (
(265,1532,l),
(265,1406,l),
(1421,1406,l),
(1421,1532,l)
);
},
{
closed = 1;
nodes = (
(73,866,l),
(73,738,l),
(1691,738,l),
(1691,866,l)
);
},
{
closed = 1;
nodes = (
(742,1187,l),
(742,819,l),
(899,819,l),
(899,1187,l)
);
},
{
closed = 1;
nodes = (
(1329,1532,l),
(1329,1424,ls),
(1329,1309,o),
(1329,1170,o),
(1290,979,c),
(1446,963,l),
(1483,1155,o),
(1483,1305,o),
(1483,1424,cs),
(1483,1532,l)
);
},
{
closed = 1;
nodes = (
(243,574,l),
(243,456,l),
(664,456,l),
(664,287,l),
(247,287,l),
(247,-73,l),
(398,-73,l),
(398,175,l),
(816,175,l),
(816,574,l)
);
},
{
closed = 1;
nodes = (
(247,-21,l),
(247,-141,l),
(341,-141,ls),
(592,-141,o),
(713,-140,o),
(874,-109,c),
(860,11,l),
(707,-18,o),
(587,-21,o),
(341,-21,cs)
);
}
);
width = 1770;
},
{
layerId = "94F54C43-8AEE-4ED6-B3C2-2A9D33534E61";
shapes = (
{
closed = 1;
nodes = (
(910,629,l),
(910,-202,l),
(1547,-202,l),
(1547,629,l),
(1243,629,l),
(1243,455,l),
(1215,455,l),
(1215,629,l)
);
},
{
closed = 1;
nodes = (
(1215,194,l),
(1243,194,l),
(1243,64,l),
(1215,64,l)
);
},
{
closed = 1;
nodes = (
(220,1589,l),
(220,1311,l),
(1394,1311,l),
(1394,1589,l)
);
},
{
closed = 1;
nodes = (
(40,964,l),
(40,684,l),
(1732,684,l),
(1732,964,l)
);
},
{
closed = 1;
nodes = (
(604,1205,l),
(604,844,l),
(963,844,l),
(963,1205,l)
);
},
{
closed = 1;
nodes = (
(1184,1589,l),
(1184,1465,ls),
(1184,1349,o),
(1184,1228,o),
(1146,1062,c),
(1504,1021,l),
(1543,1194,o),
(1543,1350,o),
(1543,1465,cs),
(1543,1589,l)
);
},
{
closed = 1;
nodes = (
(198,613,l),
(198,361,l),
(479,361,l),
(479,330,l),
(200,330,l),
(200,-42,l),
(548,-42,l),
(548,95,l),
(827,95,l),
(827,613,l)
);
},
{
closed = 1;
nodes = (
(200,55,l),
(200,-202,l),
(318,-202,ls),
(619,-202,o),
(728,-202,o),
(855,-178,c),
(836,76,l),
(713,54,o),
(611,55,o),
(318,55,cs)
);
}
);
width = 1770;
}
);
unicode = 44267;
}
{
glyphname = "gols-ko";
layers = (
{
layerId = m01;
shapes = (
{
closed = 1;
nodes = (
(1167,608,l),
(1167,435,ls),
(1167,257,o),
(1065,55,o),
(855,-40,c),
(941,-152,l),
(1172,-44,o),
(1287,199,o),
(1287,435,cs),
(1287,608,l)
);
},
{
closed = 1;
nodes = (
(1198,608,l),
(1198,435,ls),
(1198,194,o),
(1312,-46,o),
(1543,-152,c),
(1629,-40,l),
(1418,52,o),
(1316,253,o),
(1316,435,cs),
(1316,608,l)
);
},
{
closed = 1;
nodes = (
(265,1541,l),
(265,1414,l),
(1421,1414,l),
(1421,1541,l)
);
},
{
closed = 1;
nodes = (
(73,870,l),
(73,741,l),
(1691,741,l),
(1691,870,l)
);
},
{
closed = 1;
nodes = (
(742,1195,l),
(742,827,l),
(899,827,l),
(899,1195,l)
);
},
{
closed = 1;
nodes = (
(1329,1541,l),
(1329,1401,ls),
(1329,1274,o),
(1329,1151,o),
(1290,984,c),
(1447,967,l),
(1485,1134,o),
(1485,1272,o),
(1485,1401,cs),
(1485,1541,l)
);
},
{
closed = 1;
nodes = (
(243,574,l),
(243,456,l),
(664,456,l),
(664,287,l),
(247,287,l),
(247,-73,l),
(398,-73,l),
(398,175,l),
(816,175,l),
(816,574,l)
);
},
{
closed = 1;
nodes = (
(247,-21,l),
(247,-141,l),
(339,-141,ls),
(579,-141,o),
(696,-140,o),
(852,-110,c),
(839,11,l),
(689,-18,o),
(575,-21,o),
(339,-21,cs)
);
}
);
width = 1770;
},
{
layerId = "94F54C43-8AEE-4ED6-B3C2-2A9D33534E61";
shapes = (
{
closed = 1;
nodes = (
(1073,632,l),
(1073,457,ls),
(1073,295,o),
(1004,136,o),
(785,45,c),
(974,-202,l),
(1234,-93,o),
(1333,165,o),
(1333,457,cs),
(1333,632,l)
);
},
{
closed = 1;
nodes = (
(1152,632,l),
(1152,457,ls),
(1152,146,o),
(1247,-99,o),
(1510,-202,c),
(1698,45,l),
(1478,125,o),
(1411,284,o),
(1411,457,cs),
(1411,632,l)
);
},
{
closed = 1;
nodes = (
(220,1599,l),
(220,1322,l),
(1394,1322,l),
(1394,1599,l)
);
},
{
closed = 1;
nodes = (
(40,965,l),
(40,686,l),
(1732,686,l),
(1732,965,l)
);
},
{
closed = 1;
nodes = (
(604,1216,l),
(604,854,l),
(963,854,l),
(963,1216,l)
);
},
{
closed = 1;
nodes = (
(1184,1599,l),
(1184,1480,ls),
(1184,1364,o),
(1184,1240,o),
(1146,1062,c),
(1504,1025,l),
(1543,1204,o),
(1543,1367,o),
(1543,1480,cs),
(1543,1599,l)
);
},
{
closed = 1;
nodes = (
(198,613,l),
(198,361,l),
(479,361,l),
(479,330,l),
(200,330,l),
(200,-42,l),
(548,-42,l),
(548,95,l),
(827,95,l),
(827,613,l)
);
},
{
closed = 1;
nodes = (
(200,55,l),
(200,-202,l),
(318,-202,ls),
(616,-202,o),
(726,-202,o),
(850,-178,c),
(834,76,l),
(708,54,o),
(606,55,o),
(318,55,cs)
);
}
);
width = 1770;
}
);
unicode = 44268;
}
{
glyphname = "golh-ko";
layers = (
{
layerId = m01;
shapes = (
{
closed = 1;
nodes = (
(861,486,l),
(861,367,l),
(1615,367,l),
(1615,486,l)
);
},
{
closed = 1;
nodes = (
(1063,301,o),
(936,213,o),
(936,70,cs),
(936,-73,o),
(1063,-160,o),
(1236,-160,cs),
(1410,-160,o),
(1537,-73,o),
(1537,70,cs),
(1537,213,o),
(1410,301,o),
(1236,301,cs)
);
},
{
closed = 1;
nodes = (
(1335,191,o),
(1401,145,o),
(1401,70,cs),
(1401,-5,o),
(1334,-51,o),
(1236,-51,cs),
(1139,-51,o),
(1070,-5,o),
(1070,70,cs),
(1070,145,o),
(1138,191,o),
(1236,191,cs)
);
},
{
closed = 1;
nodes = (
(1159,648,l),
(1159,411,l),
(1312,411,l),
(1312,648,l)
);
},
{
closed = 1;
nodes = (
(239,590,l),
(239,470,l),
(645,470,l),
(645,298,l),
(244,298,l),
(244,-58,l),
(390,-58,l),
(390,185,l),
(794,185,l),
(794,590,l)
);
},
{
closed = 1;
nodes = (
(244,-13,l),
(244,-134,l),
(339,-134,ls),
(599,-134,o),
(722,-132,o),
(887,-101,c),
(870,18,l),
(714,-11,o),
(592,-13,o),
(339,-13,cs)
);
},
{
closed = 1;
nodes = (
(265,1554,l),
(265,1426,l),
(1421,1426,l),
(1421,1554,l)
);
},
{
closed = 1;
nodes = (
(73,886,l),
(73,758,l),
(1691,758,l),
(1691,886,l)
);
},
{
closed = 1;
nodes = (
(742,1210,l),
(742,823,l),
(899,823,l),
(899,1210,l)
);
},
{
closed = 1;
nodes = (
(1329,1554,l),
(1329,1443,ls),
(1329,1330,o),
(1329,1195,o),
(1290,1004,c),
(1446,988,l),
(1483,1178,o),
(1483,1330,o),
(1483,1443,cs),
(1483,1554,l)
);
}
);
width = 1770;
},
{
layerId = "94F54C43-8AEE-4ED6-B3C2-2A9D33534E61";
shapes = (
{
closed = 1;
nodes = (
(848,570,l),
(848,318,l),
(1673,318,l),
(1673,570,l)
);
},
{
closed = 1;
nodes = (
(1051,296,o),
(909,197,o),
(909,43,cs),
(909,-114,o),
(1051,-213,o),
(1258,-213,cs),
(1465,-213,o),
(1610,-114,o),
(1610,43,cs),
(1610,197,o),
(1465,296,o),
(1258,296,cs)
);
},
{
closed = 1;
nodes = (
(1285,68,o),
(1307,69,o),
(1307,43,cs),
(1307,14,o),
(1285,13,o),
(1258,13,cs),
(1234,13,o),
(1210,14,o),
(1210,43,cs),
(1210,69,o),
(1234,68,o),
(1258,68,cs)
);
},
{
closed = 1;
nodes = (
(1087,677,l),
(1087,385,l),
(1435,385,l),
(1435,677,l)
);
},
{
closed = 1;
nodes = (
(186,632,l),
(186,380,l),
(456,380,l),
(456,351,l),
(189,351,l),
(189,-25,l),
(523,-25,l),
(523,112,l),
(790,112,l),
(790,632,l)
);
},
{
closed = 1;
nodes = (
(189,78,l),
(189,-179,l),
(312,-179,ls),
(633,-179,o),
(746,-180,o),
(879,-153,c),
(850,99,l),
(724,78,o),
(619,78,o),
(312,78,cs)
);
},
{
closed = 1;
nodes = (
(220,1598,l),
(220,1321,l),
(1394,1321,l),
(1394,1598,l)
);
},
{
closed = 1;
nodes = (
(40,996,l),
(40,719,l),
(1732,719,l),
(1732,996,l)
);
},
{
closed = 1;
nodes = (
(604,1235,l),
(604,876,l),
(963,876,l),
(963,1235,l)
);
},
{
closed = 1;
nodes = (
(1184,1598,l),
(1184,1475,ls),
(1184,1363,o),
(1184,1245,o),
(1146,1080,c),
(1504,1042,l),
(1543,1210,o),
(1543,1363,o),
(1543,1475,cs),
(1543,1598,l)
);
}
);
width = 1770;
}
);
unicode = 44271;
}
{
glyphname = "goc-ko";
layers = (
{
layerId = m01;
shapes = (
{
closed = 1;
nodes = (
(800,385,l),
(800,361,ls),
(800,154,o),
(522,2,o),
(207,-38,c),
(259,-156,l),
(620,-107,o),
(935,76,o),
(935,361,cs),
(935,385,l)
);
},
{
closed = 1;
nodes = (
(826,385,l),
(826,361,ls),
(826,91,o),
(1146,-107,o),
(1500,-156,c),
(1554,-38,l),
(1247,1,o),
(959,167,o),
(959,361,cs),
(959,385,l)
);
},
{
closed = 1;
nodes = (
(283,452,l),
(283,325,l),
(1478,325,l),
(1478,452,l)
);
},
{
closed = 1;
nodes = (
(802,624,l),
(802,406,l),
(958,406,l),
(958,624,l)
);
},
{
closed = 1;
nodes = (
(265,1532,l),
(265,1406,l),
(1421,1406,l),
(1421,1532,l)
);
},
{
closed = 1;
nodes = (
(73,857,l),
(73,728,l),
(1691,728,l),
(1691,857,l)
);
},
{
closed = 1;
nodes = (
(742,1185,l),
(742,817,l),
(899,817,l),
(899,1185,l)
);
},
{
closed = 1;
nodes = (
(1329,1532,l),
(1329,1422,ls),
(1329,1308,o),
(1329,1169,o),
(1290,977,c),
(1446,961,l),
(1483,1153,o),
(1483,1305,o),
(1483,1422,cs),
(1483,1532,l)
);
}
);
width = 1770;
},
{
layerId = "94F54C43-8AEE-4ED6-B3C2-2A9D33534E61";
shapes = (
{
closed = 1;
nodes = (
(703,342,l),
(703,297,ls),
(703,223,o),
(622,83,o),
(150,57,c),
(261,-203,l),
(816,-169,o),
(1005,54,o),
(1005,297,cs),
(1005,342,l)
);
},
{
closed = 1;
nodes = (
(768,342,l),
(768,297,ls),
(768,50,o),
(957,-170,o),
(1512,-203,c),
(1623,57,l),
(1150,84,o),
(1071,216,o),
(1071,297,cs),
(1071,342,l)
);
},
{
closed = 1;
nodes = (
(236,485,l),
(236,211,l),
(1536,211,l),
(1536,485,l)
);
},
{
closed = 1;
nodes = (
(707,605,l),
(707,390,l),
(1068,390,l),
(1068,605,l)
);
},
{
closed = 1;
nodes = (
(220,1589,l),
(220,1311,l),
(1394,1311,l),
(1394,1589,l)
);
},
{
closed = 1;
nodes = (
(40,955,l),
(40,674,l),
(1732,674,l),
(1732,955,l)
);
},
{
closed = 1;
nodes = (
(604,1206,l),
(604,844,l),
(963,844,l),
(963,1206,l)
);
},
{
closed = 1;
nodes = (
(1184,1589,l),
(1184,1461,ls),
(1184,1344,o),
(1184,1223,o),
(1146,1052,c),
(1504,1015,l),
(1543,1187,o),
(1543,1348,o),
(1543,1461,cs),
(1543,1589,l)
);
}
);
width = 1770;
}
);
unicode = 44279;
}
{
glyphname = "gok-ko";
layers = (
{
layerId = m01;
shapes = (
{
closed = 1;
nodes = (
(269,482,l),
(269,356,l),
(1332,356,l),
(1332,-162,l),
(1488,-162,l),
(1488,482,l)
);
},
{
closed = 1;
nodes = (
(1389,198,l),
(239,160,l),
(259,34,l),
(1389,88,l)
);
},
{
closed = 1;
nodes = (
(265,1535,l),
(265,1407,l),
(1421,1407,l),
(1421,1535,l)
);
},
{
closed = 1;
nodes = (
(73,798,l),
(73,671,l),
(1691,671,l),
(1691,798,l)
);
},
{
closed = 1;
nodes = (
(742,1149,l),
(742,769,l),
(899,769,l),
(899,1149,l)
);
},
{
closed = 1;
nodes = (
(1329,1535,l),
(1329,1386,ls),
(1329,1247,o),
(1329,1112,o),
(1281,933,c),
(1436,914,l),
(1485,1097,o),
(1485,1243,o),
(1485,1386,cs),
(1485,1535,l)
);
}
);
width = 1770;
},
{
layerId = "94F54C43-8AEE-4ED6-B3C2-2A9D33534E61";
shapes = (
{
closed = 1;
nodes = (
(230,508,l),
(230,237,l),
(1173,237,l),
(1173,-206,l),
(1527,-206,l),
(1527,508,l)
);
},
{
closed = 1;
nodes = (
(1275,173,l),
(205,149,l),
(237,-115,l),
(1275,-62,l)
);
},
{
closed = 1;
nodes = (
(220,1593,l),
(220,1313,l),
(1394,1313,l),
(1394,1593,l)
);
},
{
closed = 1;
nodes = (
(40,883,l),
(40,603,l),
(1732,603,l),
(1732,883,l)
);
},
{
closed = 1;
nodes = (
(604,1175,l),
(604,818,l),
(963,818,l),
(963,1175,l)
);
},
{
closed = 1;
nodes = (
(1184,1593,l),
(1184,1446,ls),
(1184,1306,o),
(1184,1172,o),
(1133,987,c),
(1491,948,l),
(1543,1141,o),
(1543,1305,o),
(1543,1446,cs),
(1543,1593,l)
);
}
);
width = 1770;
}
);
unicode = 44280;
}
{
glyphname = "gop-ko";
layers = (
{
layerId = m01;
shapes = (
{
closed = 1;
nodes = (
(253,495,l),
(253,367,l),
(1514,367,l),
(1514,495,l)
);
},
{
closed = 1;
nodes = (
(237,-10,l),
(237,-138,l),
(1529,-138,l),
(1529,-10,l)
);
},
{
closed = 1;
nodes = (
(527,458,l),
(527,-68,l),
(683,-68,l),
(683,458,l)
);
},
{
closed = 1;
nodes = (
(1082,458,l),
(1082,-68,l),
(1238,-68,l),
(1238,458,l)
);
},
{
closed = 1;
nodes = (
(265,1535,l),
(265,1407,l),
(1421,1407,l),
(1421,1535,l)
);
},
{
closed = 1;
nodes = (
(73,828,l),
(73,701,l),
(1691,701,l),
(1691,828,l)
);
},
{
closed = 1;
nodes = (
(742,1164,l),
(742,784,l),
(899,784,l),
(899,1164,l)
);
},
{
closed = 1;
nodes = (
(1329,1535,l),
(1329,1390,ls),
(1329,1256,o),
(1329,1128,o),
(1281,954,c),
(1437,933,l),
(1485,1111,o),
(1485,1253,o),
(1485,1390,cs),
(1485,1535,l)
);
}
);
width = 1770;
},
{
layerId = "94F54C43-8AEE-4ED6-B3C2-2A9D33534E61";
shapes = (
{
closed = 1;
nodes = (
(208,542,l),
(208,262,l),
(1563,262,l),
(1563,542,l)
);
},
{
closed = 1;
nodes = (
(190,90,l),
(190,-191,l),
(1585,-191,l),
(1585,90,l)
);
},
{
closed = 1;
nodes = (
(431,497,l),
(431,-52,l),
(785,-52,l),
(785,497,l)
);
},
{
closed = 1;
nodes = (
(985,497,l),
(985,-52,l),
(1339,-52,l),
(1339,497,l)
);
},
{
closed = 1;
nodes = (
(220,1593,l),
(220,1313,l),
(1394,1313,l),
(1394,1593,l)
);
},
{
closed = 1;
nodes = (
(40,912,l),
(40,632,l),
(1732,632,l),
(1732,912,l)
);
},
{
closed = 1;
nodes = (
(604,1179,l),
(604,822,l),
(963,822,l),
(963,1179,l)
);
},
{
closed = 1;
nodes = (
(1184,1593,l),
(1184,1452,ls),
(1184,1319,o),
(1184,1188,o),
(1133,1006,c),
(1491,967,l),
(1543,1156,o),
(1543,1317,o),
(1543,1452,cs),
(1543,1593,l)
);
}
);
width = 1770;
}
);
unicode = 44282;
}
{
glyphname = "goh-ko";
layers = (
{
layerId = m01;
shapes = (
{
closed = 1;
nodes = (
(222,528,l),
(222,405,l),
(1541,405,l),
(1541,528,l)
);
},
{
closed = 1;
nodes = (
(538,321,o),
(344,239,o),
(344,81,cs),
(344,-77,o),
(538,-158,o),
(881,-158,cs),
(1225,-158,o),
(1419,-77,o),
(1419,81,cs),
(1419,239,o),
(1225,321,o),
(881,321,cs)
);
},
{
closed = 1;
nodes = (
(1118,209,o),
(1256,167,o),
(1256,81,cs),
(1256,-5,o),
(1118,-47,o),
(881,-47,cs),
(643,-47,o),
(505,-5,o),
(505,81,cs),
(505,167,o),
(644,209,o),
(881,209,cs)
);
},
{
closed = 1;
nodes = (
(803,692,l),
(803,448,l),
(959,448,l),
(959,692,l)
);
},
{
closed = 1;
nodes = (
(265,1542,l),
(265,1414,l),
(1421,1414,l),
(1421,1542,l)
);
},
{
closed = 1;
nodes = (
(73,904,l),
(73,776,l),
(1691,776,l),
(1691,904,l)
);
},
{
closed = 1;
nodes = (
(742,1214,l),
(742,846,l),
(899,846,l),
(899,1214,l)
);
},
{
closed = 1;
nodes = (
(1329,1542,l),
(1329,1426,ls),
(1329,1316,o),
(1329,1190,o),
(1295,1020,c),
(1450,1006,l),
(1485,1177,o),
(1485,1308,o),
(1485,1426,cs),
(1485,1542,l)
);
}
);
width = 1770;
},
{
layerId = "94F54C43-8AEE-4ED6-B3C2-2A9D33534E61";
shapes = (
{
closed = 1;
nodes = (
(181,588,l),
(181,327,l),
(1579,327,l),
(1579,588,l)
);
},
{
closed = 1;
nodes = (
(515,306,o),
(295,213,o),
(295,48,cs),
(295,-118,o),
(515,-211,o),
(879,-211,cs),
(1240,-211,o),
(1461,-118,o),
(1461,48,cs),
(1461,213,o),
(1240,306,o),
(879,306,cs)
);
},
{
closed = 1;
nodes = (
(1017,69,o),
(1077,72,o),
(1077,48,cs),
(1077,23,o),
(1017,24,o),
(879,24,cs),
(738,24,o),
(677,23,o),
(677,48,cs),
(677,72,o),
(739,69,o),
(879,69,cs)
);
},
{
closed = 1;
nodes = (
(699,677,l),
(699,436,l),
(1059,436,l),
(1059,677,l)
);
},
{
closed = 1;
nodes = (
(220,1596,l),
(220,1319,l),
(1394,1319,l),
(1394,1596,l)
);
},
{
closed = 1;
nodes = (
(40,1002,l),
(40,727,l),
(1732,727,l),
(1732,1002,l)
);
},
{
closed = 1;
nodes = (
(604,1221,l),
(604,861,l),
(963,861,l),
(963,1221,l)
);
},
{
closed = 1;
nodes = (
(1184,1596,l),
(1184,1495,ls),
(1184,1391,o),
(1184,1259,o),
(1156,1076,c),
(1513,1052,l),
(1543,1237,o),
(1543,1379,o),
(1543,1495,cs),
(1543,1596,l)
);
}
);
width = 1770;
}
);
unicode = 44283;
}
{
glyphname = "gwag-ko";
layers = (
{
layerId = m01;
shapes = (
{
closed = 1;
nodes = (
(169,1493,l),
(169,1364,l),
(965,1364,l),
(965,1493,l)
);
},
{
closed = 1;
nodes = (
(444,1113,l),
(444,680,l),
(598,680,l),
(598,1113,l)
);
},
{
closed = 1;
nodes = (
(901,1493,l),
(901,1400,ls),
(901,1290,o),
(901,1139,o),
(853,922,c),
(1007,905,l),
(1055,1122,o),
(1055,1290,o),
(1055,1400,cs),
(1055,1493,l)
);
},
{
closed = 1;
nodes = (
(1306,1614,l),
(1306,516,l),
(1463,516,l),
(1463,1614,l)
);
},
{
closed = 1;
nodes = (
(1391,1119,l),
(1391,987,l),
(1723,987,l),
(1723,1119,l)
);
},
{
closed = 1;
nodes = (
(77,613,l),
(384,613,o),
(821,620,o),
(1194,685,c),
(1184,802,l),
(817,750,o),
(387,743,o),
(60,743,c)
);
},
{
closed = 1;
nodes = (
(288,426,l),
(288,298,l),
(1306,298,l),
(1306,-151,l),
(1463,-151,l),
(1463,426,l)
);
}
);
width = 1770;
},
{
layerId = "94F54C43-8AEE-4ED6-B3C2-2A9D33534E61";
shapes = (
{
closed = 1;
nodes = (
(100,1550,l),
(100,1264,l),
(880,1264,l),
(880,1550,l)
);
},
{
closed = 1;
nodes = (
(285,1123,l),
(285,653,l),
(640,653,l),
(640,1123,l)
);
},
{
closed = 1;
nodes = (
(740,1550,l),
(740,1400,ls),
(740,1263,o),
(740,1121,o),
(707,934,c),
(1055,897,l),
(1094,1092,o),
(1094,1259,o),
(1094,1400,cs),
(1094,1550,l)
);
},
{
closed = 1;
nodes = (
(1210,1659,l),
(1210,484,l),
(1570,484,l),
(1570,1659,l)
);
},
{
closed = 1;
nodes = (
(1440,1209,l),
(1440,917,l),
(1757,917,l),
(1757,1209,l)
);
},
{
closed = 1;
nodes = (
(24,526,l),
(331,526,o),
(759,529,o),
(1147,612,c),
(1128,865,l),
(748,807,o),
(314,805,o),
(-6,805,c)
);
},
{
closed = 1;
nodes = (
(260,426,l),
(260,147,l),
(1210,147,l),
(1210,-209,l),
(1570,-209,l),
(1570,426,l)
);
}
);
width = 1770;
}
);
unicode = 44285;
}
{
glyphname = "gwad-ko";
layers = (
{
layerId = m01;
shapes = (
{
closed = 1;
nodes = (
(321,-10,l),
(321,-138,l),
(1507,-138,l),
(1507,-10,l)
);
},
{
closed = 1;
nodes = (
(321,441,l),
(321,-92,l),
(478,-92,l),
(478,313,l),
(1488,313,l),
(1488,441,l)
);
},
{
closed = 1;
nodes = (
(169,1504,l),
(169,1376,l),
(965,1376,l),
(965,1504,l)
);
},
{
closed = 1;
nodes = (
(444,1120,l),
(444,697,l),
(598,697,l),
(598,1120,l)
);
},
{
closed = 1;
nodes = (
(901,1504,l),
(901,1416,ls),
(901,1311,o),
(901,1166,o),
(854,958,c),
(1008,944,l),
(1055,1152,o),
(1055,1311,o),
(1055,1416,cs),
(1055,1504,l)
);
},
{
closed = 1;
nodes = (
(1306,1614,l),
(1306,543,l),
(1463,543,l),
(1463,1614,l)
);
},
{
closed = 1;
nodes = (
(1391,1146,l),
(1391,1014,l),
(1723,1014,l),
(1723,1146,l)
);
},
{
closed = 1;
nodes = (
(78,641,l),
(407,641,o),
(821,646,o),
(1195,710,c),
(1184,825,l),
(819,776,o),
(394,774,o),
(60,774,c)
);
}
);
width = 1770;
},
{
layerId = "94F54C43-8AEE-4ED6-B3C2-2A9D33534E61";
shapes = (
{
closed = 1;
nodes = (
(256,90,l),
(256,-191,l),
(1608,-191,l),
(1608,90,l)
);
},
{
closed = 1;
nodes = (
(256,488,l),
(256,-86,l),
(616,-86,l),
(616,208,l),
(1589,208,l),
(1589,488,l)
);
},
{
closed = 1;
nodes = (
(100,1582,l),
(100,1298,l),
(880,1298,l),
(880,1582,l)
);
},
{
closed = 1;
nodes = (
(285,1136,l),
(285,663,l),
(640,663,l),
(640,1136,l)
);
},
{
closed = 1;
nodes = (
(740,1582,l),
(740,1438,ls),
(740,1301,o),
(740,1161,o),
(709,977,c),
(1057,951,l),
(1094,1142,o),
(1094,1301,o),
(1094,1438,cs),
(1094,1582,l)
);
},
{
closed = 1;
nodes = (
(1210,1659,l),
(1210,550,l),
(1570,550,l),
(1570,1659,l)
);
},
{
closed = 1;
nodes = (
(1440,1236,l),
(1440,945,l),
(1757,945,l),
(1757,1236,l)
);
},
{
closed = 1;
nodes = (
(26,578,l),
(380,578,o),
(775,586,o),
(1152,651,c),
(1130,901,l),
(762,861,o),
(347,860,o),
(-6,860,c)
);
}
);
width = 1770;
}
);
unicode = 44291;
}
{
glyphname = "gwalm-ko";
layers = (
{
layerId = m01;
shapes = (
{
closed = 1;
nodes = (
(230,547,l),
(230,429,l),
(645,429,l),
(645,270,l),
(234,270,l),
(234,-71,l),
(387,-71,l),
(387,159,l),
(797,159,l),
(797,547,l)
);
},
{
closed = 1;
nodes = (
(900,547,l),
(900,-141,l),
(1463,-141,l),
(1463,547,l)
);
},
{
closed = 1;
nodes = (
(1324,426,l),
(1324,-21,l),
(1039,-21,l),
(1039,426,l)
);
},
{
closed = 1;
nodes = (
(234,-23,l),
(234,-141,l),
(326,-141,ls),
(573,-141,o),
(690,-140,o),
(845,-109,c),
(833,11,l),
(683,-20,o),
(568,-23,o),
(326,-23,cs)
);
},
{
closed = 1;
nodes = (
(169,1517,l),
(169,1388,l),
(965,1388,l),
(965,1517,l)
);
},
{
closed = 1;
nodes = (
(442,1165,l),
(442,784,l),
(598,784,l),
(598,1165,l)
);
},
{
closed = 1;
nodes = (
(901,1517,l),
(901,1431,ls),
(901,1332,o),
(901,1193,o),
(856,994,c),
(1009,977,l),
(1055,1177,o),
(1055,1332,o),
(1055,1431,cs),
(1055,1517,l)
);
},
{
closed = 1;
nodes = (
(1306,1614,l),
(1306,633,l),
(1463,633,l),
(1463,1614,l)
);
},
{
closed = 1;
nodes = (
(1391,1179,l),
(1391,1047,l),
(1723,1047,l),
(1723,1179,l)
);
},
{
closed = 1;
nodes = (
(77,714,l),
(402,714,o),
(821,718,o),
(1196,781,c),
(1186,895,l),
(820,845,o),
(392,842,o),
(61,842,c)
);
}
);
width = 1770;
},
{
layerId = "94F54C43-8AEE-4ED6-B3C2-2A9D33534E61";
shapes = (
{
closed = 1;
nodes = (
(180,581,l),
(180,335,l),
(490,335,l),
(490,308,l),
(181,308,l),
(181,-27,l),
(529,-27,l),
(529,79,l),
(839,79,l),
(839,581,l)
);
},
{
closed = 1;
nodes = (
(920,581,l),
(920,-202,l),
(1570,-202,l),
(1570,581,l)
);
},
{
closed = 1;
nodes = (
(1266,321,l),
(1266,60,l),
(1225,60,l),
(1225,321,l)
);
},
{
closed = 1;
nodes = (
(181,50,l),
(181,-202,l),
(302,-202,ls),
(621,-202,o),
(739,-202,o),
(869,-178,c),
(850,74,l),
(721,50,o),
(613,50,o),
(302,50,cs)
);
},
{
closed = 1;
nodes = (
(100,1603,l),
(100,1325,l),
(880,1325,l),
(880,1603,l)
);
},
{
closed = 1;
nodes = (
(283,1188,l),
(283,810,l),
(639,810,l),
(639,1188,l)
);
},
{
closed = 1;
nodes = (
(740,1603,l),
(740,1469,ls),
(740,1348,o),
(740,1218,o),
(714,1050,c),
(1062,1014,l),
(1094,1192,o),
(1094,1348,o),
(1094,1469,cs),
(1094,1603,l)
);
},
{
closed = 1;
nodes = (
(1210,1659,l),
(1210,641,l),
(1570,641,l),
(1570,1659,l)
);
},
{
closed = 1;
nodes = (
(1440,1307,l),
(1440,1017,l),
(1757,1017,l),
(1757,1307,l)
);
},
{
closed = 1;
nodes = (
(21,659,l),
(362,659,o),
(768,663,o),
(1152,731,c),
(1130,974,l),
(760,933,o),
(343,931,o),
(-7,931,c)
);
}
);
width = 1770;
}
);
unicode = 44294;
}
{
glyphname = "gwabs-ko";
layers = (
{
layerId = m01;
shapes = (
{
closed = 1;
nodes = (
(1202,529,l),
(1202,400,ls),
(1202,240,o),
(1092,50,o),
(885,-37,c),
(967,-160,l),
(1207,-59,o),
(1326,180,o),
(1326,400,cs),
(1326,529,l)
);
},
{
closed = 1;
nodes = (
(1231,529,l),
(1231,400,ls),
(1231,186,o),
(1354,-56,o),
(1592,-160,c),
(1674,-37,l),
(1468,54,o),
(1357,243,o),
(1357,400,cs),
(1357,529,l)
);
},
{
closed = 1;
nodes = (
(251,520,l),
(251,-148,l),
(858,-148,l),
(858,520,l),
(712,520,l),
(712,308,l),
(398,308,l),
(398,520,l)
);
},
{
closed = 1;
nodes = (
(398,187,l),
(712,187,l),
(712,-23,l),
(398,-23,l)
);
},
{
closed = 1;
nodes = (
(169,1511,l),
(169,1382,l),
(965,1382,l),
(965,1511,l)
);
},
{
closed = 1;
nodes = (
(442,1143,l),
(442,732,l),
(597,732,l),
(597,1143,l)
);
},
{
closed = 1;
nodes = (
(901,1511,l),
(901,1424,ls),
(901,1326,o),
(901,1184,o),
(856,983,c),
(1009,966,l),
(1055,1169,o),
(1055,1326,o),
(1055,1424,cs),
(1055,1511,l)
);
},
{
closed = 1;
nodes = (
(1306,1614,l),
(1306,619,l),
(1463,619,l),
(1463,1614,l)
);
},
{
closed = 1;
nodes = (
(1391,1174,l),
(1391,1043,l),
(1723,1043,l),
(1723,1174,l)
);
},
{
closed = 1;
nodes = (
(77,685,l),
(397,685,o),
(824,693,o),
(1199,755,c),
(1188,872,l),
(821,822,o),
(382,816,o),
(60,816,c)
);
}
);
width = 1770;
},
{
layerId = "94F54C43-8AEE-4ED6-B3C2-2A9D33534E61";
shapes = (
{
closed = 1;
nodes = (
(1094,529,l),
(1094,454,ls),
(1094,298,o),
(1022,163,o),
(816,80,c),
(993,-199,l),
(1275,-100,o),
(1372,161,o),
(1372,454,cs),
(1372,529,l)
);
},
{
closed = 1;
nodes = (
(1173,529,l),
(1173,454,ls),
(1173,179,o),
(1276,-93,o),
(1553,-199,c),
(1730,80,l),
(1527,180,o),
(1452,312,o),
(1452,454,cs),
(1452,529,l)
);
},
{
closed = 1;
nodes = (
(193,531,l),
(193,-189,l),
(889,-189,l),
(889,531,l),
(563,531,l),
(563,421,l),
(519,421,l),
(519,531,l)
);
},
{
closed = 1;
nodes = (
(519,168,l),
(563,168,l),
(563,78,l),
(519,78,l)
);
},
{
closed = 1;
nodes = (
(100,1585,l),
(100,1303,l),
(880,1303,l),
(880,1585,l)
);
},
{
closed = 1;
nodes = (
(286,1182,l),
(286,706,l),
(640,706,l),
(640,1182,l)
);
},
{
closed = 1;
nodes = (
(740,1585,l),
(740,1451,ls),
(740,1333,o),
(740,1202,o),
(714,1032,c),
(1062,998,l),
(1094,1175,o),
(1094,1333,o),
(1094,1451,cs),
(1094,1585,l)
);
},
{
closed = 1;
nodes = (
(1210,1659,l),
(1210,596,l),
(1570,596,l),
(1570,1659,l)
);
},
{
closed = 1;
nodes = (
(1440,1269,l),
(1440,977,l),
(1757,977,l),
(1757,1269,l)
);
},
{
closed = 1;
nodes = (
(19,636,l),
(348,636,o),
(766,639,o),
(1162,714,c),
(1140,967,l),
(759,917,o),
(314,916,o),
(-11,916,c)
);
}
);
width = 1770;
}
);
unicode = 44302;
}
{
glyphname = "gwae-ko";
layers = (
{
layerId = m01;
shapes = (
{
closed = 1;
nodes = (
(131,1412,l),
(131,1281,l),
(807,1281,l),
(807,1412,l)
);
},
{
closed = 1;
nodes = (
(354,913,l),
(354,335,l),
(501,335,l),
(501,913,l)
);
},
{
closed = 1;
nodes = (
(741,1412,l),
(741,1290,ls),
(741,1142,o),
(741,936,o),
(699,654,c),
(845,645,l),
(887,930,o),
(887,1138,o),
(887,1290,cs),
(887,1412,l)
);
},
{
closed = 1;
nodes = (
(73,267,l),
(330,267,o),
(698,276,o),
(979,327,c),
(971,443,l),
(689,405,o),
(303,399,o),
(50,399,c)
);
},
{
closed = 1;
nodes = (
(1436,1614,l),
(1436,-162,l),
(1588,-162,l),
(1588,1614,l)
);
},
{
closed = 1;
nodes = (
(1162,863,l),
(1162,731,l),
(1486,731,l),
(1486,863,l)
);
},
{
closed = 1;
nodes = (
(1066,1576,l),
(1066,-67,l),
(1215,-67,l),
(1215,1576,l)
);
}
);
width = 1770;
},
{
layerId = "94F54C43-8AEE-4ED6-B3C2-2A9D33534E61";
shapes = (
{
closed = 1;
nodes = (
(68,1474,l),
(68,1192,l),
(726,1192,l),
(726,1474,l)
);
},
{
closed = 1;
nodes = (
(191,960,l),
(191,320,l),
(519,320,l),
(519,960,l)
);
},
{
closed = 1;
nodes = (
(577,1474,l),
(577,1317,ls),
(577,1146,o),
(577,941,o),
(535,666,c),
(857,640,l),
(904,928,o),
(904,1140,o),
(904,1317,cs),
(904,1474,l)
);
},
{
closed = 1;
nodes = (
(47,182,l),
(261,182,o),
(631,187,o),
(925,251,c),
(908,507,l),
(631,472,o),
(254,472,o),
(6,472,c)
);
},
{
closed = 1;
nodes = (
(1370,1659,l),
(1370,-204,l),
(1711,-204,l),
(1711,1659,l)
);
},
{
closed = 1;
nodes = (
(1200,953,l),
(1200,666,l),
(1472,666,l),
(1472,953,l)
);
},
{
closed = 1;
nodes = (
(976,1637,l),
(976,-134,l),
(1310,-134,l),
(1310,1637,l)
);
}
);
width = 1770;
}
);
unicode = 44312;
}
{
glyphname = "gwaeg-ko";
layers = (
{
layerId = m01;
shapes = (
{
closed = 1;
nodes = (
(348,431,l),
(348,304,l),
(1421,304,l),
(1421,-162,l),
(1579,-162,l),
(1579,431,l)
);
},
{
closed = 1;
nodes = (
(152,1481,l),
(152,1353,l),
(827,1353,l),
(827,1481,l)
);
},
{
closed = 1;
nodes = (
(369,1085,l),
(369,694,l),
(516,694,l),
(516,1085,l)
);
},
{
closed = 1;
nodes = (
(747,1481,l),
(747,1365,ls),
(747,1248,o),
(747,1100,o),
(712,904,c),
(860,890,l),
(895,1090,o),
(895,1245,o),
(895,1365,cs),
(895,1481,l)
);
},
{
closed = 1;
nodes = (
(72,614,l),
(309,615,o),
(688,619,o),
(983,676,c),
(973,788,l),
(687,745,o),
(292,741,o),
(53,741,c)
);
},
{
closed = 1;
nodes = (
(1427,1613,l),
(1427,517,l),
(1579,517,l),
(1579,1613,l)
);
},
{
closed = 1;
nodes = (
(1160,1115,l),
(1160,985,l),
(1473,985,l),
(1473,1115,l)
);
},
{
closed = 1;
nodes = (
(1063,1581,l),
(1063,530,l),
(1210,530,l),
(1210,1581,l)
);
}
);
width = 1770;
},
{
layerId = "94F54C43-8AEE-4ED6-B3C2-2A9D33534E61";
shapes = (
{
closed = 1;
nodes = (
(279,465,l),
(279,182,l),
(1342,182,l),
(1342,-206,l),
(1704,-206,l),
(1704,465,l)
);
},
{
closed = 1;
nodes = (
(82,1542,l),
(82,1262,l),
(740,1262,l),
(740,1542,l)
);
},
{
closed = 1;
nodes = (
(195,1123,l),
(195,711,l),
(522,711,l),
(522,1123,l)
);
},
{
closed = 1;
nodes = (
(567,1542,l),
(567,1427,ls),
(567,1305,o),
(567,1148,o),
(548,947,c),
(879,921,l),
(902,1134,o),
(902,1304,o),
(902,1427,cs),
(902,1542,l)
);
},
{
closed = 1;
nodes = (
(38,560,l),
(266,562,o),
(644,566,o),
(937,635,c),
(915,878,l),
(629,835,o),
(238,831,o),
(3,831,c)
);
},
{
closed = 1;
nodes = (
(1362,1660,l),
(1362,532,l),
(1704,532,l),
(1704,1660,l)
);
},
{
closed = 1;
nodes = (
(1213,1220,l),
(1213,936,l),
(1464,936,l),
(1464,1220,l)
);
},
{
closed = 1;
nodes = (
(982,1619,l),
(982,539,l),
(1316,539,l),
(1316,1619,l)
);
}
);
width = 1770;
}
);
unicode = 44313;
}
{
glyphname = "gwaelg-ko";
layers = (
{
layerId = m01;
shapes = (
{
closed = 1;
nodes = (
(282,557,l),
(282,437,l),
(753,437,l),
(753,280,l),
(286,280,l),
(286,-71,l),
(438,-71,l),
(438,166,l),
(904,166,l),
(904,557,l)
);
},
{
closed = 1;
nodes = (
(286,-23,l),
(286,-141,l),
(397,-141,ls),
(687,-141,o),
(843,-139,o),
(1042,-102,c),
(1027,16,l),
(836,-18,o),
(686,-23,o),
(397,-23,cs)
);
},
{
closed = 1;
nodes = (
(988,557,l),
(988,431,l),
(1416,431,l),
(1416,-162,l),
(1579,-162,l),
(1579,557,l)
);
},
{
closed = 1;
nodes = (
(152,1512,l),
(152,1385,l),
(827,1385,l),
(827,1512,l)
);
},
{
closed = 1;
nodes = (
(369,1156,l),
(369,749,l),
(516,749,l),
(516,1156,l)
);
},
{
closed = 1;
nodes = (
(747,1512,l),
(747,1408,ls),
(747,1303,o),
(747,1170,o),
(712,989,c),
(860,975,l),
(895,1157,o),
(895,1301,o),
(895,1408,cs),
(895,1512,l)
);
},
{
closed = 1;
nodes = (
(74,711,l),
(340,712,o),
(705,721,o),
(984,769,c),
(975,880,l),
(693,845,o),
(311,838,o),
(53,838,c)
);
},
{
closed = 1;
nodes = (
(1427,1614,l),
(1427,652,l),
(1579,652,l),
(1579,1614,l)
);
},
{
closed = 1;
nodes = (
(1167,1183,l),
(1167,1054,l),
(1479,1054,l),
(1479,1183,l)
);
},
{
closed = 1;
nodes = (
(1063,1581,l),
(1063,663,l),
(1210,663,l),
(1210,1581,l)
);
}
);
width = 1770;
},
{
layerId = "94F54C43-8AEE-4ED6-B3C2-2A9D33534E61";
shapes = (
{
closed = 1;
nodes = (
(252,595,l),
(252,346,l),
(611,346,l),
(611,313,l),
(254,313,l),
(254,-73,l),
(602,-73,l),
(602,79,l),
(957,79,l),
(957,595,l)
);
},
{
closed = 1;
nodes = (
(254,50,l),
(254,-202,l),
(396,-202,ls),
(657,-202,o),
(855,-203,o),
(1088,-173,c),
(1065,80,l),
(837,52,o),
(660,50,o),
(396,50,cs)
);
},
{
closed = 1;
nodes = (
(1024,595,l),
(1024,327,l),
(1328,327,l),
(1328,-206,l),
(1704,-206,l),
(1704,595,l)
);
},
{
closed = 1;
nodes = (
(82,1567,l),
(82,1290,l),
(740,1290,l),
(740,1567,l)
);
},
{
closed = 1;
nodes = (
(195,1188,l),
(195,723,l),
(522,723,l),
(522,1188,l)
);
},
{
closed = 1;
nodes = (
(567,1567,l),
(567,1460,ls),
(567,1350,o),
(567,1204,o),
(546,1014,c),
(875,987,l),
(902,1185,o),
(902,1354,o),
(902,1460,cs),
(902,1567,l)
);
},
{
closed = 1;
nodes = (
(42,650,l),
(271,652,o),
(648,659,o),
(940,716,c),
(920,960,l),
(640,926,o),
(259,919,o),
(3,919,c)
);
},
{
closed = 1;
nodes = (
(1362,1659,l),
(1362,661,l),
(1704,661,l),
(1704,1659,l)
);
},
{
closed = 1;
nodes = (
(1233,1276,l),
(1233,991,l),
(1486,991,l),
(1486,1276,l)
);
},
{
closed = 1;
nodes = (
(982,1619,l),
(982,664,l),
(1316,664,l),
(1316,1619,l)
);
}
);
width = 1770;
}
);
unicode = 44321;
}
{
glyphname = "gwaels-ko";
layers = (
{
layerId = m01;
shapes = (
{
closed = 1;
nodes = (
(1233,569,l),
(1233,434,ls),
(1233,263,o),
(1123,62,o),
(920,-35,c),
(1004,-155,l),
(1238,-44,o),
(1356,206,o),
(1356,434,cs),
(1356,569,l)
);
},
{
closed = 1;
nodes = (
(1266,569,l),
(1266,434,ls),
(1266,206,o),
(1384,-44,o),
(1620,-155,c),
(1702,-35,l),
(1498,62,o),
(1389,263,o),
(1389,434,cs),
(1389,569,l)
);
},
{
closed = 1;
nodes = (
(268,558,l),
(268,439,l),
(717,439,l),
(717,279,l),
(271,279,l),
(271,-77,l),
(422,-77,l),
(422,165,l),
(870,165,l),
(870,558,l)
);
},
{
closed = 1;
nodes = (
(271,-18,l),
(271,-138,l),
(367,-138,ls),
(629,-138,o),
(755,-136,o),
(921,-103,c),
(905,14,l),
(749,-16,o),
(625,-18,o),
(367,-18,cs)
);
},
{
closed = 1;
nodes = (
(152,1512,l),
(152,1385,l),
(827,1385,l),
(827,1512,l)
);
},
{
closed = 1;
nodes = (
(369,1156,l),
(369,749,l),
(516,749,l),
(516,1156,l)
);
},
{
closed = 1;
nodes = (
(747,1512,l),
(747,1408,ls),
(747,1303,o),
(747,1170,o),
(712,989,c),
(860,975,l),
(895,1157,o),
(895,1301,o),
(895,1408,cs),
(895,1512,l)
);
},
{
closed = 1;
nodes = (
(74,711,l),
(340,712,o),
(705,721,o),
(984,769,c),
(975,880,l),
(693,845,o),
(311,838,o),
(53,838,c)
);
},
{
closed = 1;
nodes = (
(1427,1614,l),
(1427,652,l),
(1579,652,l),
(1579,1614,l)
);
},
{
closed = 1;
nodes = (
(1167,1183,l),
(1167,1054,l),
(1479,1054,l),
(1479,1183,l)
);
},
{
closed = 1;
nodes = (
(1063,1581,l),
(1063,663,l),
(1210,663,l),
(1210,1581,l)
);
}
);
width = 1770;
},
{
layerId = "94F54C43-8AEE-4ED6-B3C2-2A9D33534E61";
shapes = (
{
closed = 1;
nodes = (
(1184,607,l),
(1184,494,ls),
(1184,327,o),
(1125,178,o),
(928,73,c),
(1110,-202,l),
(1374,-81,o),
(1454,194,o),
(1454,494,cs),
(1454,607,l)
);
},
{
closed = 1;
nodes = (
(1271,607,l),
(1271,494,ls),
(1271,196,o),
(1351,-81,o),
(1615,-202,c),
(1797,71,l),
(1599,178,o),
(1542,327,o),
(1542,494,cs),
(1542,607,l)
);
},
{
closed = 1;
nodes = (
(247,598,l),
(247,348,l),
(587,348,l),
(587,322,l),
(249,322,l),
(249,-69,l),
(594,-69,l),
(594,87,l),
(935,87,l),
(935,598,l)
);
},
{
closed = 1;
nodes = (
(249,62,l),
(249,-191,l),
(372,-191,ls),
(662,-191,o),
(808,-191,o),
(975,-165,c),
(952,88,l),
(790,62,o),
(655,62,o),
(372,62,cs)
);
},
{
closed = 1;
nodes = (
(82,1567,l),
(82,1290,l),
(740,1290,l),
(740,1567,l)
);
},
{
closed = 1;
nodes = (
(195,1188,l),
(195,723,l),
(522,723,l),
(522,1188,l)
);
},
{
closed = 1;
nodes = (
(567,1567,l),
(567,1460,ls),
(567,1350,o),
(567,1204,o),
(546,1014,c),
(875,987,l),
(902,1185,o),
(902,1354,o),
(902,1460,cs),
(902,1567,l)
);
},
{
closed = 1;
nodes = (
(42,650,l),
(271,652,o),
(648,659,o),
(940,716,c),
(920,960,l),
(640,926,o),
(259,919,o),
(3,919,c)
);
},
{
closed = 1;
nodes = (
(1362,1659,l),
(1362,661,l),
(1704,661,l),
(1704,1659,l)
);
},
{
closed = 1;
nodes = (
(1233,1276,l),
(1233,991,l),
(1486,991,l),
(1486,1276,l)
);
},
{
closed = 1;
nodes = (
(982,1619,l),
(982,664,l),
(1316,664,l),
(1316,1619,l)
);
}
);
width = 1770;
}
);
unicode = 44324;
}
{
glyphname = "gwaes-ko";
layers = (
{
layerId = m01;
shapes = (
{
closed = 1;
nodes = (
(898,471,l),
(898,386,ls),
(898,177,o),
(603,7,o),
(280,-31,c),
(336,-155,l),
(708,-107,o),
(1035,100,o),
(1035,386,cs),
(1035,471,l)
);
},
{
closed = 1;
nodes = (
(922,471,l),
(922,386,ls),
(922,97,o),
(1250,-106,o),
(1621,-155,c),
(1676,-31,l),
(1353,7,o),
(1060,175,o),
(1060,386,cs),
(1060,471,l)
);
},
{
closed = 1;
nodes = (
(152,1473,l),
(152,1344,l),
(827,1344,l),
(827,1473,l)
);
},
{
closed = 1;
nodes = (
(369,1079,l),
(369,688,l),
(516,688,l),
(516,1079,l)
);
},
{
closed = 1;
nodes = (
(747,1473,l),
(747,1356,ls),
(747,1234,o),
(747,1089,o),
(712,890,c),
(860,875,l),
(895,1077,o),
(895,1233,o),
(895,1356,cs),
(895,1473,l)
);
},
{
closed = 1;
nodes = (
(72,602,l),
(306,603,o),
(688,607,o),
(983,668,c),
(973,780,l),
(687,734,o),
(284,730,o),
(53,730,c)
);
},
{
closed = 1;
nodes = (
(1427,1613,l),
(1427,410,l),
(1579,410,l),
(1579,1613,l)
);
},
{
closed = 1;
nodes = (
(1160,1131,l),
(1160,1002,l),
(1473,1002,l),
(1473,1131,l)
);
},
{
closed = 1;
nodes = (
(1063,1581,l),
(1063,540,l),
(1210,540,l),
(1210,1581,l)
);
}
);
width = 1770;
},
{
layerId = "94F54C43-8AEE-4ED6-B3C2-2A9D33534E61";
shapes = (
{
closed = 1;
nodes = (
(825,475,l),
(825,414,ls),
(825,329,o),
(724,115,o),
(238,73,c),
(354,-202,l),
(942,-154,o),
(1140,158,o),
(1140,414,cs),
(1140,475,l)
);
},
{
closed = 1;
nodes = (
(888,475,l),
(888,414,ls),
(888,146,o),
(1087,-152,o),
(1671,-202,c),
(1788,73,l),
(1299,115,o),
(1200,320,o),
(1200,414,cs),
(1200,475,l)
);
},
{
closed = 1;
nodes = (
(82,1551,l),
(82,1270,l),
(740,1270,l),
(740,1551,l)
);
},
{
closed = 1;
nodes = (
(195,1129,l),
(195,718,l),
(522,718,l),
(522,1129,l)
);
},
{
closed = 1;
nodes = (
(567,1551,l),
(567,1431,ls),
(567,1307,o),
(567,1152,o),
(548,946,c),
(879,922,l),
(902,1137,o),
(902,1310,o),
(902,1431,cs),
(902,1551,l)
);
},
{
closed = 1;
nodes = (
(38,556,l),
(264,559,o),
(643,565,o),
(937,634,c),
(915,875,l),
(627,830,o),
(227,826,o),
(3,826,c)
);
},
{
closed = 1;
nodes = (
(1362,1660,l),
(1362,421,l),
(1704,421,l),
(1704,1660,l)
);
},
{
closed = 1;
nodes = (
(1213,1241,l),
(1213,953,l),
(1464,953,l),
(1464,1241,l)
);
},
{
closed = 1;
nodes = (
(982,1619,l),
(982,549,l),
(1316,549,l),
(1316,1619,l)
);
}
);
width = 1770;
}
);
unicode = 44331;
}
{
glyphname = "gwaess-ko";
layers = (
{
layerId = m01;
shapes = (
{
closed = 1;
nodes = (
(152,1493,l),
(152,1366,l),
(827,1366,l),
(827,1493,l)
);
},
{
closed = 1;
nodes = (
(369,1104,l),
(369,712,l),
(516,712,l),
(516,1104,l)
);
},
{
closed = 1;
nodes = (
(747,1493,l),
(747,1383,ls),
(747,1266,o),
(747,1127,o),
(712,933,c),
(858,917,l),
(895,1112,o),
(895,1264,o),
(895,1383,cs),
(895,1493,l)
);
},
{
closed = 1;
nodes = (
(73,629,l),
(312,629,o),
(689,633,o),
(984,690,c),
(976,801,l),
(688,760,o),
(295,756,o),
(54,756,c)
);
},
{
closed = 1;
nodes = (
(1427,1614,l),
(1427,550,l),
(1579,550,l),
(1579,1614,l)
);
},
{
closed = 1;
nodes = (
(1167,1130,l),
(1167,1000,l),
(1479,1000,l),
(1479,1130,l)
);
},
{
closed = 1;
nodes = (
(1063,1581,l),
(1063,566,l),
(1210,566,l),
(1210,1581,l)
);
},
{
closed = 1;
nodes = (
(533,484,l),
(533,424,ls),
(533,240,o),
(397,54,o),
(169,-22,c),
(247,-140,l),
(506,-47,o),
(654,180,o),
(654,424,cs),
(654,484,l)
);
},
{
closed = 1;
nodes = (
(566,484,l),
(566,424,ls),
(566,195,o),
(683,-52,o),
(939,-155,c),
(1006,-37,l),
(790,52,o),
(684,252,o),
(684,424,cs),
(684,484,l)
);
},
{
closed = 1;
nodes = (
(1193,484,l),
(1193,424,ls),
(1193,256,o),
(1087,55,o),
(870,-37,c),
(939,-155,l),
(1192,-52,o),
(1310,199,o),
(1310,424,cs),
(1310,484,l)
);
},
{
closed = 1;
nodes = (
(1225,484,l),
(1225,424,ls),
(1225,176,o),
(1371,-47,o),
(1632,-140,c),
(1710,-22,l),
(1481,52,o),
(1345,236,o),
(1345,424,cs),
(1345,484,l)
);
}
);
width = 1770;
},
{
layerId = "94F54C43-8AEE-4ED6-B3C2-2A9D33534E61";
shapes = (
{
closed = 1;
nodes = (
(82,1550,l),
(82,1270,l),
(740,1270,l),
(740,1550,l)
);
},
{
closed = 1;
nodes = (
(195,1160,l),
(195,749,l),
(522,749,l),
(522,1160,l)
);
},
{
closed = 1;
nodes = (
(567,1550,l),
(567,1438,ls),
(567,1319,o),
(567,1169,o),
(546,971,c),
(874,941,l),
(902,1150,o),
(902,1320,o),
(902,1438,cs),
(902,1550,l)
);
},
{
closed = 1;
nodes = (
(40,584,l),
(271,586,o),
(647,593,o),
(942,659,c),
(922,902,l),
(631,861,o),
(242,857,o),
(5,857,c)
);
},
{
closed = 1;
nodes = (
(1362,1659,l),
(1362,593,l),
(1704,593,l),
(1704,1659,l)
);
},
{
closed = 1;
nodes = (
(1233,1263,l),
(1233,977,l),
(1486,977,l),
(1486,1263,l)
);
},
{
closed = 1;
nodes = (
(982,1619,l),
(982,609,l),
(1316,609,l),
(1316,1619,l)
);
},
{
closed = 1;
nodes = (
(415,530,l),
(415,519,ls),
(415,337,o),
(343,161,o),
(85,78,c),
(259,-182,l),
(579,-74,o),
(681,201,o),
(681,519,cs),
(681,530,l)
);
},
{
closed = 1;
nodes = (
(510,530,l),
(510,519,ls),
(510,214,o),
(605,-86,o),
(928,-202,c),
(1072,59,l),
(836,158,o),
(763,342,o),
(763,519,cs),
(763,530,l)
);
},
{
closed = 1;
nodes = (
(1091,530,l),
(1091,519,ls),
(1091,354,o),
(1018,167,o),
(781,59,c),
(928,-202,l),
(1245,-82,o),
(1344,227,o),
(1344,519,cs),
(1344,530,l)
);
},
{
closed = 1;
nodes = (
(1180,530,l),
(1180,519,ls),
(1180,189,o),
(1278,-78,o),
(1601,-182,c),
(1775,78,l),
(1514,153,o),
(1447,326,o),
(1447,519,cs),
(1447,530,l)
);
}
);
width = 1770;
}
);
unicode = 44332;
}
{
glyphname = "gwaeng-ko";
layers = (
{
layerId = m01;
shapes = (
{
closed = 1;
nodes = (
(152,1481,l),
(152,1353,l),
(827,1353,l),
(827,1481,l)
);
},
{
closed = 1;
nodes = (
(369,1085,l),
(369,694,l),
(516,694,l),
(516,1085,l)
);
},
{
closed = 1;
nodes = (
(747,1481,l),
(747,1365,ls),
(747,1241,o),
(747,1102,o),
(712,906,c),
(860,893,l),
(895,1091,o),
(895,1240,o),
(895,1365,cs),
(895,1481,l)
);
},
{
closed = 1;
nodes = (
(72,611,l),
(307,612,o),
(688,617,o),
(983,675,c),
(973,786,l),
(687,743,o),
(288,740,o),
(53,740,c)
);
},
{
closed = 1;
nodes = (
(1427,1613,l),
(1427,490,l),
(1579,490,l),
(1579,1613,l)
);
},
{
closed = 1;
nodes = (
(1160,1129,l),
(1160,1000,l),
(1473,1000,l),
(1473,1129,l)
);
},
{
closed = 1;
nodes = (
(1063,1581,l),
(1063,547,l),
(1210,547,l),
(1210,1581,l)
);
},
{
closed = 1;
nodes = (
(577,453,o),
(348,344,o),
(348,146,cs),
(348,-50,o),
(577,-160,o),
(963,-160,cs),
(1349,-160,o),
(1579,-50,o),
(1579,146,cs),
(1579,344,o),
(1349,453,o),
(963,453,cs)
);
},
{
closed = 1;
nodes = (
(1249,331,o),
(1418,264,o),
(1418,146,cs),
(1418,28,o),
(1249,-37,o),
(963,-37,cs),
(676,-37,o),
(507,28,o),
(507,146,cs),
(507,264,o),
(676,331,o),
(963,331,cs)
);
}
);
width = 1770;
},
{
layerId = "94F54C43-8AEE-4ED6-B3C2-2A9D33534E61";
shapes = (
{
closed = 1;
nodes = (
(82,1542,l),
(82,1262,l),
(740,1262,l),
(740,1542,l)
);
},
{
closed = 1;
nodes = (
(195,1123,l),
(195,711,l),
(522,711,l),
(522,1123,l)
);
},
{
closed = 1;
nodes = (
(567,1542,l),
(567,1427,ls),
(567,1285,o),
(566,1151,o),
(548,953,c),
(879,929,l),
(902,1141,o),
(902,1310,o),
(902,1427,cs),
(902,1542,l)
);
},
{
closed = 1;
nodes = (
(38,564,l),
(263,566,o),
(644,572,o),
(937,641,c),
(915,884,l),
(629,840,o),
(234,836,o),
(3,836,c)
);
},
{
closed = 1;
nodes = (
(1362,1660,l),
(1362,504,l),
(1704,504,l),
(1704,1660,l)
);
},
{
closed = 1;
nodes = (
(1213,1230,l),
(1213,946,l),
(1464,946,l),
(1464,1230,l)
);
},
{
closed = 1;
nodes = (
(982,1619,l),
(982,569,l),
(1316,569,l),
(1316,1619,l)
);
},
{
closed = 1;
nodes = (
(565,501,o),
(300,374,o),
(300,145,cs),
(300,-84,o),
(565,-213,o),
(1001,-213,cs),
(1439,-213,o),
(1704,-84,o),
(1704,145,cs),
(1704,374,o),
(1439,501,o),
(1001,501,cs)
);
},
{
closed = 1;
nodes = (
(1236,238,o),
(1333,216,o),
(1333,145,cs),
(1333,75,o),
(1236,54,o),
(1001,54,cs),
(765,54,o),
(670,75,o),
(670,145,cs),
(670,216,o),
(765,238,o),
(1001,238,cs)
);
}
);
width = 1770;
}
);
unicode = 44333;
}
{
glyphname = "goe-ko";
layers = (
{
layerId = m01;
shapes = (
{
closed = 1;
nodes = (
(193,1409,l),
(193,1279,l),
(1005,1279,l),
(1005,1409,l)
);
},
{
closed = 1;
nodes = (
(481,881,l),
(481,302,l),
(637,302,l),
(637,881,l)
);
},
{
closed = 1;
nodes = (
(945,1409,l),
(945,1323,ls),
(945,1189,o),
(945,965,o),
(893,648,c),
(1047,629,l),
(1100,956,o),
(1100,1187,o),
(1100,1323,cs),
(1100,1409,l)
);
},
{
closed = 1;
nodes = (
(1381,1615,l),
(1381,-164,l),
(1539,-164,l),
(1539,1615,l)
);
},
{
closed = 1;
nodes = (
(102,221,l),
(442,221,o),
(877,228,o),
(1276,291,c),
(1263,409,l),
(874,360,o),
(425,354,o),
(78,354,c)
);
}
);
width = 1770;
},
{
layerId = "94F54C43-8AEE-4ED6-B3C2-2A9D33534E61";
shapes = (
{
closed = 1;
nodes = (
(156,1465,l),
(156,1183,l),
(932,1183,l),
(932,1465,l)
);
},
{
closed = 1;
nodes = (
(338,873,l),
(338,315,l),
(693,315,l),
(693,873,l)
);
},
{
closed = 1;
nodes = (
(803,1465,l),
(803,1279,ls),
(803,1092,o),
(803,910,o),
(762,671,c),
(1116,637,l),
(1158,890,o),
(1158,1087,o),
(1158,1279,cs),
(1158,1465,l)
);
},
{
closed = 1;
nodes = (
(1307,1662,l),
(1307,-211,l),
(1666,-211,l),
(1666,1662,l)
);
},
{
closed = 1;
nodes = (
(70,122,l),
(420,122,o),
(843,127,o),
(1251,199,c),
(1222,456,l),
(828,409,o),
(382,408,o),
(31,408,c)
);
}
);
width = 1770;
}
);
unicode = 44340;
}
{
glyphname = "goenj-ko";
layers = (
{
layerId = m01;
shapes = (
{
closed = 1;
nodes = (
(1384,1613,l),
(1384,577,l),
(1539,577,l),
(1539,1613,l)
);
},
{
closed = 1;
nodes = (
(482,1100,l),
(482,685,l),
(635,685,l),
(635,1100,l)
);
},
{
closed = 1;
nodes = (
(925,1503,l),
(925,1408,ls),
(925,1299,o),
(925,1155,o),
(883,949,c),
(1038,936,l),
(1079,1141,o),
(1079,1298,o),
(1079,1408,cs),
(1079,1503,l)
);
},
{
closed = 1;
nodes = (
(206,1503,l),
(206,1375,l),
(1048,1375,l),
(1048,1503,l)
);
},
{
closed = 1;
nodes = (
(97,639,l),
(434,641,o),
(862,648,o),
(1249,714,c),
(1239,825,l),
(860,773,o),
(423,769,o),
(75,768,c)
);
},
{
closed = 1;
nodes = (
(1145,430,l),
(1145,349,ls),
(1145,195,o),
(1016,33,o),
(804,-34,c),
(875,-155,l),
(1126,-73,o),
(1268,138,o),
(1268,349,cs),
(1268,430,l)
);
},
{
closed = 1;
nodes = (
(1175,430,l),
(1175,349,ls),
(1175,129,o),
(1316,-74,o),
(1568,-155,c),
(1638,-34,l),
(1428,31,o),
(1297,187,o),
(1297,349,cs),
(1297,430,l)
);
},
{
closed = 1;
nodes = (
(273,463,l),
(273,-61,l),
(428,-61,l),
(428,463,l)
);
},
{
closed = 1;
nodes = (
(273,20,l),
(273,-110,l),
(360,-110,ls),
(486,-110,o),
(687,-96,o),
(824,-16,c),
(781,110,l),
(672,35,o),
(459,20,o),
(360,20,cs)
);
},
{
closed = 1;
nodes = (
(853,477,l),
(853,352,l),
(1584,352,l),
(1584,477,l)
);
}
);
width = 1770;
},
{
layerId = "94F54C43-8AEE-4ED6-B3C2-2A9D33534E61";
shapes = (
{
closed = 1;
nodes = (
(1274,1660,l),
(1274,563,l),
(1634,563,l),
(1634,1660,l)
);
},
{
closed = 1;
nodes = (
(343,1119,l),
(343,665,l),
(691,665,l),
(691,1119,l)
);
},
{
closed = 1;
nodes = (
(783,1561,l),
(783,1426,ls),
(783,1292,o),
(783,1151,o),
(756,962,c),
(1111,938,l),
(1141,1132,o),
(1141,1295,o),
(1141,1426,cs),
(1141,1561,l)
);
},
{
closed = 1;
nodes = (
(173,1561,l),
(173,1280,l),
(1101,1280,l),
(1101,1561,l)
);
},
{
closed = 1;
nodes = (
(71,566,l),
(459,571,o),
(859,583,o),
(1233,656,c),
(1213,898,l),
(841,848,o),
(434,842,o),
(34,839,c)
);
},
{
closed = 1;
nodes = (
(1098,381,l),
(1098,313,ls),
(1098,213,o),
(1011,113,o),
(795,68,c),
(946,-202,l),
(1251,-136,o),
(1367,80,o),
(1367,313,cs),
(1367,381,l)
);
},
{
closed = 1;
nodes = (
(1170,381,l),
(1170,313,ls),
(1170,92,o),
(1291,-132,o),
(1593,-202,c),
(1741,68,l),
(1533,121,o),
(1441,221,o),
(1441,313,cs),
(1441,381,l)
);
},
{
closed = 1;
nodes = (
(240,482,l),
(240,-94,l),
(592,-94,l),
(592,482,l)
);
},
{
closed = 1;
nodes = (
(240,101,l),
(240,-186,l),
(360,-186,ls),
(591,-186,o),
(745,-165,o),
(884,-94,c),
(808,180,l),
(686,122,o),
(560,101,o),
(360,101,cs)
);
},
{
closed = 1;
nodes = (
(877,503,l),
(877,229,l),
(1648,229,l),
(1648,503,l)
);
}
);
width = 1770;
}
);
unicode = 44345;
}
{
glyphname = "goed-ko";
layers = (
{
layerId = m01;
shapes = (
{
closed = 1;
nodes = (
(357,-10,l),
(357,-138,l),
(1568,-138,l),
(1568,-10,l)
);
},
{
closed = 1;
nodes = (
(357,458,l),
(357,-75,l),
(515,-75,l),
(515,330,l),
(1549,330,l),
(1549,458,l)
);
},
{
closed = 1;
nodes = (
(1384,1613,l),
(1384,549,l),
(1539,549,l),
(1539,1613,l)
);
},
{
closed = 1;
nodes = (
(482,1096,l),
(482,682,l),
(635,682,l),
(635,1096,l)
);
},
{
closed = 1;
nodes = (
(925,1503,l),
(925,1407,ls),
(925,1298,o),
(925,1154,o),
(883,949,c),
(1038,936,l),
(1079,1140,o),
(1079,1298,o),
(1079,1407,cs),
(1079,1503,l)
);
},
{
closed = 1;
nodes = (
(206,1503,l),
(206,1373,l),
(1048,1373,l),
(1048,1503,l)
);
},
{
closed = 1;
nodes = (
(97,634,l),
(440,636,o),
(861,644,o),
(1249,710,c),
(1239,822,l),
(862,769,o),
(432,764,o),
(75,763,c)
);
}
);
width = 1770;
},
{
layerId = "94F54C43-8AEE-4ED6-B3C2-2A9D33534E61";
shapes = (
{
closed = 1;
nodes = (
(299,90,l),
(299,-191,l),
(1667,-191,l),
(1667,90,l)
);
},
{
closed = 1;
nodes = (
(299,472,l),
(299,-100,l),
(659,-100,l),
(659,192,l),
(1644,192,l),
(1644,472,l)
);
},
{
closed = 1;
nodes = (
(1274,1660,l),
(1274,537,l),
(1634,537,l),
(1634,1660,l)
);
},
{
closed = 1;
nodes = (
(343,1107,l),
(343,657,l),
(691,657,l),
(691,1107,l)
);
},
{
closed = 1;
nodes = (
(783,1560,l),
(783,1423,ls),
(783,1289,o),
(783,1149,o),
(756,962,c),
(1111,936,l),
(1141,1130,o),
(1141,1293,o),
(1141,1423,cs),
(1141,1560,l)
);
},
{
closed = 1;
nodes = (
(173,1560,l),
(173,1278,l),
(1101,1278,l),
(1101,1560,l)
);
},
{
closed = 1;
nodes = (
(71,560,l),
(457,566,o),
(860,578,o),
(1233,651,c),
(1213,892,l),
(841,842,o),
(428,834,o),
(34,832,c)
);
}
);
width = 1770;
}
);
unicode = 44347;
}
{
glyphname = "goelp-ko";
layers = (
{
layerId = m01;
shapes = (
{
closed = 1;
nodes = (
(205,1517,l),
(205,1389,l),
(1000,1389,l),
(1000,1517,l)
);
},
{
closed = 1;
nodes = (
(484,1168,l),
(484,763,l),
(638,763,l),
(638,1168,l)
);
},
{
closed = 1;
nodes = (
(924,1517,l),
(924,1430,ls),
(924,1333,o),
(924,1191,o),
(879,990,c),
(1031,975,l),
(1076,1172,o),
(1077,1320,o),
(1077,1430,cs),
(1077,1517,l)
);
},
{
closed = 1;
nodes = (
(97,706,l),
(432,706,o),
(859,714,o),
(1249,776,c),
(1239,888,l),
(858,839,o),
(416,835,o),
(74,834,c)
);
},
{
closed = 1;
nodes = (
(1384,1614,l),
(1384,646,l),
(1540,646,l),
(1540,1614,l)
);
},
{
closed = 1;
nodes = (
(283,560,l),
(283,441,l),
(689,441,l),
(689,279,l),
(287,279,l),
(287,-75,l),
(439,-75,l),
(439,165,l),
(842,165,l),
(842,560,l)
);
},
{
closed = 1;
nodes = (
(287,-23,l),
(287,-141,l),
(377,-141,ls),
(596,-141,o),
(720,-140,o),
(886,-109,c),
(870,10,l),
(712,-20,o),
(592,-23,o),
(377,-23,cs)
);
},
{
closed = 1;
nodes = (
(944,560,l),
(944,436,l),
(1568,436,l),
(1568,560,l)
);
},
{
closed = 1;
nodes = (
(933,-18,l),
(933,-141,l),
(1580,-141,l),
(1580,-18,l)
);
},
{
closed = 1;
nodes = (
(1042,479,l),
(1042,-98,l),
(1175,-98,l),
(1175,479,l)
);
},
{
closed = 1;
nodes = (
(1338,479,l),
(1338,-98,l),
(1471,-98,l),
(1471,479,l)
);
}
);
width = 1770;
},
{
layerId = "94F54C43-8AEE-4ED6-B3C2-2A9D33534E61";
shapes = (
{
closed = 1;
nodes = (
(168,1590,l),
(168,1313,l),
(947,1313,l),
(947,1590,l)
);
},
{
closed = 1;
nodes = (
(350,1182,l),
(350,785,l),
(697,785,l),
(697,1182,l)
);
},
{
closed = 1;
nodes = (
(779,1590,l),
(779,1460,ls),
(779,1342,o),
(779,1212,o),
(745,1044,c),
(1093,1006,l),
(1133,1179,o),
(1134,1332,o),
(1134,1460,cs),
(1134,1590,l)
);
},
{
closed = 1;
nodes = (
(74,666,l),
(420,668,o),
(832,673,o),
(1233,739,c),
(1216,982,l),
(824,940,o),
(386,938,o),
(32,938,c)
);
},
{
closed = 1;
nodes = (
(1277,1659,l),
(1277,682,l),
(1636,682,l),
(1636,1659,l)
);
},
{
closed = 1;
nodes = (
(246,605,l),
(246,355,l),
(519,355,l),
(519,320,l),
(248,320,l),
(248,-63,l),
(595,-63,l),
(595,87,l),
(867,87,l),
(867,605,l)
);
},
{
closed = 1;
nodes = (
(248,50,l),
(248,-202,l),
(366,-202,ls),
(563,-202,o),
(717,-202,o),
(906,-178,c),
(883,74,l),
(700,50,o),
(556,50,o),
(366,50,cs)
);
},
{
closed = 1;
nodes = (
(949,605,l),
(949,339,l),
(1642,339,l),
(1642,605,l)
);
},
{
closed = 1;
nodes = (
(945,66,l),
(945,-202,l),
(1644,-202,l),
(1644,66,l)
);
},
{
closed = 1;
nodes = (
(1001,405,l),
(1001,-132,l),
(1280,-132,l),
(1280,405,l)
);
},
{
closed = 1;
nodes = (
(1313,405,l),
(1313,-132,l),
(1592,-132,l),
(1592,405,l)
);
}
);
width = 1770;
}
);
unicode = 44354;
}
{
glyphname = "goeb-ko";
layers = (
{
layerId = m01;
shapes = (
{
closed = 1;
nodes = (
(1384,1612,l),
(1384,615,l),
(1539,615,l),
(1539,1612,l)
);
},
{
closed = 1;
nodes = (
(486,1109,l),
(486,732,l),
(638,732,l),
(638,1109,l)
);
},
{
closed = 1;
nodes = (
(929,1512,l),
(929,1402,ls),
(929,1292,o),
(929,1156,o),
(887,965,c),
(1037,950,l),
(1080,1141,o),
(1080,1291,o),
(1080,1402,cs),
(1080,1512,l)
);
},
{
closed = 1;
nodes = (
(206,1512,l),
(206,1385,l),
(1048,1385,l),
(1048,1512,l)
);
},
{
closed = 1;
nodes = (
(97,661,l),
(430,662,o),
(864,673,o),
(1249,729,c),
(1239,842,l),
(877,799,o),
(454,790,o),
(75,789,c)
);
},
{
closed = 1;
nodes = (
(358,534,l),
(358,-138,l),
(1539,-138,l),
(1539,534,l),
(1385,534,l),
(1385,330,l),
(512,330,l),
(512,534,l)
);
},
{
closed = 1;
nodes = (
(512,204,l),
(1385,204,l),
(1385,-10,l),
(512,-10,l)
);
}
);
width = 1770;
},
{
layerId = "94F54C43-8AEE-4ED6-B3C2-2A9D33534E61";
shapes = (
{
closed = 1;
nodes = (
(1274,1655,l),
(1274,605,l),
(1634,605,l),
(1634,1655,l)
);
},
{
closed = 1;
nodes = (
(355,1158,l),
(355,766,l),
(703,766,l),
(703,1158,l)
);
},
{
closed = 1;
nodes = (
(795,1590,l),
(795,1464,ls),
(795,1344,o),
(795,1202,o),
(768,1013,c),
(1121,982,l),
(1150,1177,o),
(1150,1344,o),
(1150,1464,cs),
(1150,1590,l)
);
},
{
closed = 1;
nodes = (
(173,1590,l),
(173,1309,l),
(1101,1309,l),
(1101,1590,l)
);
},
{
closed = 1;
nodes = (
(71,628,l),
(420,630,o),
(827,632,o),
(1233,697,c),
(1213,942,l),
(824,899,o),
(392,897,o),
(34,899,c)
);
},
{
closed = 1;
nodes = (
(319,545,l),
(319,-191,l),
(1634,-191,l),
(1634,545,l),
(1279,545,l),
(1279,435,l),
(673,435,l),
(673,545,l)
);
},
{
closed = 1;
nodes = (
(673,163,l),
(1279,163,l),
(1279,95,l),
(673,95,l)
);
}
);
width = 1770;
}
);
unicode = 44357;
}
{
glyphname = "goebs-ko";
layers = (
{
layerId = m01;
shapes = (
{
closed = 1;
nodes = (
(1384,1612,l),
(1384,615,l),
(1539,615,l),
(1539,1612,l)
);
},
{
closed = 1;
nodes = (
(486,1119,l),
(486,740,l),
(638,740,l),
(638,1119,l)
);
},
{
closed = 1;
nodes = (
(929,1512,l),
(929,1402,ls),
(929,1292,o),
(929,1156,o),
(887,965,c),
(1037,950,l),
(1080,1141,o),
(1080,1291,o),
(1080,1402,cs),
(1080,1512,l)
);
},
{
closed = 1;
nodes = (
(206,1512,l),
(206,1385,l),
(1048,1385,l),
(1048,1512,l)
);
},
{
closed = 1;
nodes = (
(97,674,l),
(432,675,o),
(865,685,o),
(1249,742,c),
(1239,854,l),
(864,810,o),
(418,802,o),
(75,801,c)
);
},
{
closed = 1;
nodes = (
(284,548,l),
(284,-138,l),
(897,-138,l),
(897,548,l),
(751,548,l),
(751,341,l),
(430,341,l),
(430,548,l)
);
},
{
closed = 1;
nodes = (
(430,219,l),
(751,219,l),
(751,-12,l),
(430,-12,l)
);
},
{
closed = 1;
nodes = (
(1233,551,l),
(1233,430,ls),
(1233,260,o),
(1123,61,o),
(920,-35,c),
(1003,-155,l),
(1237,-45,o),
(1355,203,o),
(1355,430,cs),
(1355,551,l)
);
},
{
closed = 1;
nodes = (
(1267,551,l),
(1267,430,ls),
(1267,204,o),
(1385,-45,o),
(1620,-154,c),
(1702,-35,l),
(1500,61,o),
(1389,260,o),
(1389,430,cs),
(1389,551,l)
);
}
);
width = 1770;
},
{
layerId = "94F54C43-8AEE-4ED6-B3C2-2A9D33534E61";
shapes = (
{
closed = 1;
nodes = (
(1274,1655,l),
(1274,605,l),
(1634,605,l),
(1634,1655,l)
);
},
{
closed = 1;
nodes = (
(355,1166,l),
(355,773,l),
(703,773,l),
(703,1166,l)
);
},
{
closed = 1;
nodes = (
(795,1590,l),
(795,1464,ls),
(795,1344,o),
(795,1202,o),
(768,1013,c),
(1121,982,l),
(1150,1177,o),
(1150,1344,o),
(1150,1464,cs),
(1150,1590,l)
);
},
{
closed = 1;
nodes = (
(173,1590,l),
(173,1309,l),
(1101,1309,l),
(1101,1590,l)
);
},
{
closed = 1;
nodes = (
(71,627,l),
(413,629,o),
(831,631,o),
(1233,695,c),
(1213,939,l),
(826,897,o),
(382,897,o),
(34,897,c)
);
},
{
closed = 1;
nodes = (
(254,538,l),
(254,-191,l),
(973,-191,l),
(973,538,l),
(647,538,l),
(647,427,l),
(580,427,l),
(580,538,l)
);
},
{
closed = 1;
nodes = (
(580,169,l),
(647,169,l),
(647,83,l),
(580,83,l)
);
},
{
closed = 1;
nodes = (
(1184,549,l),
(1184,479,ls),
(1184,317,o),
(1123,173,o),
(928,73,c),
(1108,-202,l),
(1372,-85,o),
(1452,184,o),
(1452,479,cs),
(1452,549,l)
);
},
{
closed = 1;
nodes = (
(1273,549,l),
(1273,479,ls),
(1273,186,o),
(1353,-83,o),
(1615,-199,c),
(1797,73,l),
(1601,173,o),
(1542,317,o),
(1542,479,cs),
(1542,549,l)
);
}
);
width = 1770;
}
);
unicode = 44358;
}
{
glyphname = "goej-ko";
layers = (
{
layerId = m01;
shapes = (
{
closed = 1;
nodes = (
(1384,1613,l),
(1384,559,l),
(1539,559,l),
(1539,1613,l)
);
},
{
closed = 1;
nodes = (
(482,1115,l),
(482,699,l),
(635,699,l),
(635,1115,l)
);
},
{
closed = 1;
nodes = (
(925,1503,l),
(925,1408,ls),
(925,1301,o),
(925,1157,o),
(883,953,c),
(1038,940,l),
(1079,1143,o),
(1079,1301,o),
(1079,1408,cs),
(1079,1503,l)
);
},
{
closed = 1;
nodes = (
(206,1503,l),
(206,1373,l),
(1048,1373,l),
(1048,1503,l)
);
},
{
closed = 1;
nodes = (
(97,647,l),
(417,648,o),
(856,655,o),
(1249,721,c),
(1239,834,l),
(863,781,o),
(440,776,o),
(75,776,c)
);
},
{
closed = 1;
nodes = (
(351,454,l),
(351,328,l),
(1556,328,l),
(1556,454,l)
);
},
{
closed = 1;
nodes = (
(871,414,l),
(871,351,ls),
(871,166,o),
(576,3,o),
(263,-32,c),
(317,-155,l),
(680,-110,o),
(1008,89,o),
(1008,351,cs),
(1008,414,l)
);
},
{
closed = 1;
nodes = (
(896,414,l),
(896,351,ls),
(896,76,o),
(1224,-110,o),
(1589,-155,c),
(1642,-32,l),
(1323,3,o),
(1034,158,o),
(1034,351,cs),
(1034,414,l)
);
}
);
width = 1770;
},
{
layerId = "94F54C43-8AEE-4ED6-B3C2-2A9D33534E61";
shapes = (
{
closed = 1;
nodes = (
(1274,1660,l),
(1274,569,l),
(1634,569,l),
(1634,1660,l)
);
},
{
closed = 1;
nodes = (
(343,1125,l),
(343,673,l),
(691,673,l),
(691,1125,l)
);
},
{
closed = 1;
nodes = (
(783,1560,l),
(783,1426,ls),
(783,1300,o),
(783,1158,o),
(756,976,c),
(1111,950,l),
(1141,1139,o),
(1141,1300,o),
(1141,1426,cs),
(1141,1560,l)
);
},
{
closed = 1;
nodes = (
(173,1560,l),
(173,1278,l),
(1101,1278,l),
(1101,1560,l)
);
},
{
closed = 1;
nodes = (
(71,578,l),
(403,583,o),
(838,593,o),
(1233,667,c),
(1213,912,l),
(833,860,o),
(414,855,o),
(34,851,c)
);
},
{
closed = 1;
nodes = (
(310,507,l),
(310,233,l),
(1642,233,l),
(1642,507,l)
);
},
{
closed = 1;
nodes = (
(787,400,l),
(787,327,ls),
(787,255,o),
(710,98,o),
(218,70,c),
(331,-202,l),
(918,-166,o),
(1101,84,o),
(1101,327,cs),
(1101,400,l)
);
},
{
closed = 1;
nodes = (
(852,400,l),
(852,327,ls),
(852,62,o),
(1044,-163,o),
(1622,-202,c),
(1735,70,l),
(1234,98,o),
(1167,241,o),
(1167,327,cs),
(1167,400,l)
);
}
);
width = 1770;
}
);
unicode = 44362;
}
{
glyphname = "gyonj-ko";
layers = (
{
layerId = m01;
shapes = (
{
closed = 1;
nodes = (
(1111,455,l),
(1111,339,ls),
(1111,189,o),
(980,30,o),
(773,-37,c),
(845,-156,l),
(1093,-74,o),
(1231,132,o),
(1231,339,cs),
(1231,455,l)
);
},
{
closed = 1;
nodes = (
(1144,455,l),
(1144,339,ls),
(1144,136,o),
(1285,-73,o),
(1529,-156,c),
(1602,-37,l),
(1396,33,o),
(1265,191,o),
(1265,339,cs),
(1265,455,l)
);
},
{
closed = 1;
nodes = (
(244,453,l),
(244,-57,l),
(397,-57,l),
(397,453,l)
);
},
{
closed = 1;
nodes = (
(244,11,l),
(244,-119,l),
(334,-119,ls),
(458,-119,o),
(674,-103,o),
(823,-21,c),
(781,105,l),
(657,28,o),
(435,11,o),
(334,11,cs)
);
},
{
closed = 1;
nodes = (
(817,492,l),
(817,366,l),
(1563,366,l),
(1563,492,l)
);
},
{
closed = 1;
nodes = (
(260,1537,l),
(260,1410,l),
(1416,1410,l),
(1416,1537,l)
);
},
{
closed = 1;
nodes = (
(73,782,l),
(73,653,l),
(1691,653,l),
(1691,782,l)
);
},
{
closed = 1;
nodes = (
(490,1127,l),
(490,723,l),
(644,723,l),
(644,1127,l)
);
},
{
closed = 1;
nodes = (
(1340,1537,l),
(1340,1403,ls),
(1340,1267,o),
(1340,1117,o),
(1297,914,c),
(1453,900,l),
(1495,1104,o),
(1495,1264,o),
(1495,1403,cs),
(1495,1537,l)
);
},
{
closed = 1;
nodes = (
(939,1127,l),
(939,723,l),
(1093,723,l),
(1093,1127,l)
);
}
);
width = 1770;
},
{
layerId = "94F54C43-8AEE-4ED6-B3C2-2A9D33534E61";
shapes = (
{
closed = 1;
nodes = (
(1032,406,l),
(1032,338,ls),
(1032,228,o),
(949,124,o),
(751,71,c),
(906,-199,l),
(1193,-122,o),
(1300,99,o),
(1300,338,cs),
(1300,406,l)
);
},
{
closed = 1;
nodes = (
(1125,406,l),
(1125,338,ls),
(1125,109,o),
(1235,-120,o),
(1516,-199,c),
(1671,71,l),
(1474,130,o),
(1390,235,o),
(1390,338,cs),
(1390,406,l)
);
},
{
closed = 1;
nodes = (
(188,479,l),
(188,-40,l),
(536,-40,l),
(536,479,l)
);
},
{
closed = 1;
nodes = (
(188,114,l),
(188,-173,l),
(312,-173,ls),
(512,-173,o),
(686,-152,o),
(845,-85,c),
(766,185,l),
(630,134,o),
(488,114,o),
(312,114,cs)
);
},
{
closed = 1;
nodes = (
(819,516,l),
(819,243,l),
(1599,243,l),
(1599,516,l)
);
},
{
closed = 1;
nodes = (
(205,1597,l),
(205,1317,l),
(1378,1317,l),
(1378,1597,l)
);
},
{
closed = 1;
nodes = (
(40,867,l),
(40,583,l),
(1732,583,l),
(1732,867,l)
);
},
{
closed = 1;
nodes = (
(329,1122,l),
(329,771,l),
(683,771,l),
(683,1122,l)
);
},
{
closed = 1;
nodes = (
(1218,1597,l),
(1218,1469,ls),
(1218,1337,o),
(1218,1182,o),
(1190,972,c),
(1542,941,l),
(1575,1159,o),
(1575,1338,o),
(1575,1469,cs),
(1575,1597,l)
);
},
{
closed = 1;
nodes = (
(810,1122,l),
(810,771,l),
(1162,771,l),
(1162,1122,l)
);
}
);
width = 1770;
}
);
unicode = 44373;
}
{
glyphname = "gyonh-ko";
layers = (
{
layerId = m01;
shapes = (
{
closed = 1;
nodes = (
(244,11,l),
(244,-118,l),
(331,-118,ls),
(464,-118,o),
(632,-111,o),
(800,-54,c),
(770,74,l),
(620,21,o),
(453,11,o),
(331,11,cs)
);
},
{
closed = 1;
nodes = (
(244,520,l),
(244,-50,l),
(397,-50,l),
(397,520,l)
);
},
{
closed = 1;
nodes = (
(715,492,l),
(715,370,l),
(1615,370,l),
(1615,492,l)
);
},
{
closed = 1;
nodes = (
(969,295,o),
(831,209,o),
(831,69,cs),
(831,-73,o),
(969,-158,o),
(1165,-158,cs),
(1363,-158,o),
(1500,-73,o),
(1500,69,cs),
(1500,209,o),
(1363,295,o),
(1165,295,cs)
);
},
{
closed = 1;
nodes = (
(1280,188,o),
(1360,141,o),
(1360,69,cs),
(1360,-5,o),
(1280,-50,o),
(1165,-50,cs),
(1051,-50,o),
(971,-5,o),
(971,69,cs),
(971,141,o),
(1051,188,o),
(1165,188,cs)
);
},
{
closed = 1;
nodes = (
(1087,645,l),
(1087,413,l),
(1246,413,l),
(1246,645,l)
);
},
{
closed = 1;
nodes = (
(260,1548,l),
(260,1419,l),
(1416,1419,l),
(1416,1548,l)
);
},
{
closed = 1;
nodes = (
(73,859,l),
(73,728,l),
(1691,728,l),
(1691,859,l)
);
},
{
closed = 1;
nodes = (
(490,1190,l),
(490,787,l),
(644,787,l),
(644,1190,l)
);
},
{
closed = 1;
nodes = (
(1340,1548,l),
(1340,1420,ls),
(1340,1293,o),
(1340,1151,o),
(1300,955,c),
(1453,941,l),
(1495,1137,o),
(1495,1290,o),
(1495,1420,cs),
(1495,1548,l)
);
},
{
closed = 1;
nodes = (
(939,1190,l),
(939,787,l),
(1093,787,l),
(1093,1190,l)
);
}
);
width = 1770;
},
{
layerId = "94F54C43-8AEE-4ED6-B3C2-2A9D33534E61";
shapes = (
{
closed = 1;
nodes = (
(188,114,l),
(188,-171,l),
(308,-171,ls),
(546,-171,o),
(676,-161,o),
(814,-111,c),
(752,168,l),
(633,127,o),
(522,114,o),
(308,114,cs)
);
},
{
closed = 1;
nodes = (
(188,539,l),
(188,-10,l),
(536,-10,l),
(536,539,l)
);
},
{
closed = 1;
nodes = (
(733,524,l),
(733,262,l),
(1670,262,l),
(1670,524,l)
);
},
{
closed = 1;
nodes = (
(978,254,o),
(829,168,o),
(829,21,cs),
(829,-122,o),
(978,-211,o),
(1201,-211,cs),
(1425,-211,o),
(1574,-122,o),
(1574,21,cs),
(1574,168,o),
(1425,254,o),
(1201,254,cs)
);
},
{
closed = 1;
nodes = (
(1231,32,o),
(1258,39,o),
(1258,21,cs),
(1258,6,o),
(1232,13,o),
(1201,13,cs),
(1169,13,o),
(1145,6,o),
(1145,21,cs),
(1145,39,o),
(1169,32,o),
(1201,32,cs)
);
},
{
closed = 1;
nodes = (
(1023,605,l),
(1023,312,l),
(1384,312,l),
(1384,605,l)
);
},
{
closed = 1;
nodes = (
(205,1605,l),
(205,1325,l),
(1378,1325,l),
(1378,1605,l)
);
},
{
closed = 1;
nodes = (
(40,938,l),
(40,655,l),
(1732,655,l),
(1732,938,l)
);
},
{
closed = 1;
nodes = (
(329,1175,l),
(329,824,l),
(683,824,l),
(683,1175,l)
);
},
{
closed = 1;
nodes = (
(1218,1605,l),
(1218,1489,ls),
(1218,1373,o),
(1218,1232,o),
(1192,1040,c),
(1542,1006,l),
(1575,1208,o),
(1575,1374,o),
(1575,1489,cs),
(1575,1605,l)
);
},
{
closed = 1;
nodes = (
(810,1175,l),
(810,824,l),
(1162,824,l),
(1162,1175,l)
);
}
);
width = 1770;
}
);
unicode = 44374;
}
{
glyphname = "gyod-ko";
layers = (
{
layerId = m01;
shapes = (
{
closed = 1;
nodes = (
(260,1538,l),
(260,1411,l),
(1416,1411,l),
(1416,1538,l)
);
},
{
closed = 1;
nodes = (
(73,793,l),
(73,663,l),
(1691,663,l),
(1691,793,l)
);
},
{
closed = 1;
nodes = (
(490,1131,l),
(490,728,l),
(644,728,l),
(644,1131,l)
);
},
{
closed = 1;
nodes = (
(1340,1538,l),
(1340,1409,ls),
(1340,1277,o),
(1340,1133,o),
(1298,934,c),
(1453,921,l),
(1495,1121,o),
(1495,1276,o),
(1495,1409,cs),
(1495,1538,l)
);
},
{
closed = 1;
nodes = (
(939,1131,l),
(939,728,l),
(1093,728,l),
(1093,1131,l)
);
},
{
closed = 1;
nodes = (
(276,465,l),
(276,-96,l),
(433,-96,l),
(433,337,l),
(1483,337,l),
(1483,465,l)
);
},
{
closed = 1;
nodes = (
(276,-6,l),
(276,-136,l),
(1507,-136,l),
(1507,-6,l)
);
}
);
width = 1770;
},
{
layerId = "94F54C43-8AEE-4ED6-B3C2-2A9D33534E61";
shapes = (
{
closed = 1;
nodes = (
(205,1592,l),
(205,1311,l),
(1378,1311,l),
(1378,1592,l)
);
},
{
closed = 1;
nodes = (
(40,874,l),
(40,590,l),
(1732,590,l),
(1732,874,l)
);
},
{
closed = 1;
nodes = (
(329,1130,l),
(329,776,l),
(683,776,l),
(683,1130,l)
);
},
{
closed = 1;
nodes = (
(1218,1592,l),
(1218,1465,ls),
(1218,1337,o),
(1218,1182,o),
(1188,977,c),
(1542,947,l),
(1575,1160,o),
(1575,1338,o),
(1575,1465,cs),
(1575,1592,l)
);
},
{
closed = 1;
nodes = (
(810,1130,l),
(810,776,l),
(1162,776,l),
(1162,1130,l)
);
},
{
closed = 1;
nodes = (
(220,496,l),
(220,-105,l),
(580,-105,l),
(580,215,l),
(1531,215,l),
(1531,496,l)
);
},
{
closed = 1;
nodes = (
(220,91,l),
(220,-191,l),
(1557,-191,l),
(1557,91,l)
);
}
);
width = 1770;
}
);
unicode = 44375;
}
{
glyphname = "gyolt-ko";
layers = (
{
layerId = m01;
shapes = (
{
closed = 1;
nodes = (
(260,1550,l),
(260,1421,l),
(1416,1421,l),
(1416,1550,l)
);
},
{
closed = 1;
nodes = (
(73,868,l),
(73,738,l),
(1691,738,l),
(1691,868,l)
);
},
{
closed = 1;
nodes = (
(492,1199,l),
(492,831,l),
(646,831,l),
(646,1199,l)
);
},
{
closed = 1;
nodes = (
(1340,1550,l),
(1340,1424,ls),
(1340,1305,o),
(1340,1177,o),
(1307,1008,c),
(1461,992,l),
(1495,1163,o),
(1495,1302,o),
(1495,1424,cs),
(1495,1550,l)
);
},
{
closed = 1;
nodes = (
(936,1199,l),
(936,831,l),
(1089,831,l),
(1089,1199,l)
);
},
{
closed = 1;
nodes = (
(938,-22,l),
(938,-145,l),
(1523,-145,l),
(1523,-22,l)
);
},
{
closed = 1;
nodes = (
(969,284,l),
(969,168,l),
(1478,168,l),
(1478,284,l)
);
},
{
closed = 1;
nodes = (
(938,590,l),
(938,-94,l),
(1090,-94,l),
(1090,467,l),
(1502,467,l),
(1502,590,l)
);
},
{
closed = 1;
nodes = (
(243,590,l),
(243,470,l),
(664,470,l),
(664,295,l),
(247,295,l),
(247,-71,l),
(398,-71,l),
(398,182,l),
(816,182,l),
(816,590,l)
);
},
{
closed = 1;
nodes = (
(247,-24,l),
(247,-145,l),
(341,-145,ls),
(591,-145,o),
(713,-144,o),
(874,-113,c),
(860,8,l),
(707,-22,o),
(586,-24,o),
(341,-24,cs)
);
}
);
width = 1770;
},
{
layerId = "94F54C43-8AEE-4ED6-B3C2-2A9D33534E61";
shapes = (
{
closed = 1;
nodes = (
(205,1604,l),
(205,1324,l),
(1378,1324,l),
(1378,1604,l)
);
},
{
closed = 1;
nodes = (
(40,948,l),
(40,669,l),
(1732,669,l),
(1732,948,l)
);
},
{
closed = 1;
nodes = (
(333,1217,l),
(333,856,l),
(689,856,l),
(689,1217,l)
);
},
{
closed = 1;
nodes = (
(1218,1604,l),
(1218,1473,ls),
(1218,1354,o),
(1218,1218,o),
(1196,1049,c),
(1547,1016,l),
(1575,1196,o),
(1575,1356,o),
(1575,1473,cs),
(1575,1604,l)
);
},
{
closed = 1;
nodes = (
(800,1217,l),
(800,856,l),
(1154,856,l),
(1154,1217,l)
);
},
{
closed = 1;
nodes = (
(901,63,l),
(901,-202,l),
(1569,-202,l),
(1569,63,l)
);
},
{
closed = 1;
nodes = (
(963,330,l),
(963,89,l),
(1525,89,l),
(1525,330,l)
);
},
{
closed = 1;
nodes = (
(901,622,l),
(901,-124,l),
(1249,-124,l),
(1249,357,l),
(1536,357,l),
(1536,622,l)
);
},
{
closed = 1;
nodes = (
(198,622,l),
(198,369,l),
(479,369,l),
(479,334,l),
(200,334,l),
(200,-30,l),
(548,-30,l),
(548,100,l),
(827,100,l),
(827,622,l)
);
},
{
closed = 1;
nodes = (
(200,56,l),
(200,-202,l),
(318,-202,ls),
(621,-202,o),
(728,-202,o),
(855,-178,c),
(836,77,l),
(713,56,o),
(611,56,o),
(318,56,cs)
);
}
);
width = 1770;
}
);
unicode = 44381;
}
{
glyphname = "gyolp-ko";
layers = (
{
layerId = m01;
shapes = (
{
closed = 1;
nodes = (
(894,590,l),
(894,464,l),
(1536,464,l),
(1536,590,l)
);
},
{
closed = 1;
nodes = (
(883,-18,l),
(883,-145,l),
(1551,-145,l),
(1551,-18,l)
);
},
{
closed = 1;
nodes = (
(1001,517,l),
(1001,-85,l),
(1134,-85,l),
(1134,517,l)
);
},
{
closed = 1;
nodes = (
(1295,517,l),
(1295,-85,l),
(1429,-85,l),
(1429,517,l)
);
},
{
closed = 1;
nodes = (
(243,590,l),
(243,470,l),
(655,470,l),
(655,295,l),
(247,295,l),
(247,-71,l),
(398,-71,l),
(398,182,l),
(808,182,l),
(808,590,l)
);
},
{
closed = 1;
nodes = (
(247,-24,l),
(247,-145,l),
(337,-145,ls),
(576,-145,o),
(692,-144,o),
(846,-115,c),
(833,6,l),
(684,-23,o),
(570,-24,o),
(337,-24,cs)
);
},
{
closed = 1;
nodes = (
(260,1550,l),
(260,1421,l),
(1416,1421,l),
(1416,1550,l)
);
},
{
closed = 1;
nodes = (
(73,879,l),
(73,749,l),
(1691,749,l),
(1691,879,l)
);
},
{
closed = 1;
nodes = (
(492,1199,l),
(492,831,l),
(646,831,l),
(646,1199,l)
);
},
{
closed = 1;
nodes = (
(1340,1550,l),
(1340,1424,ls),
(1340,1305,o),
(1340,1177,o),
(1307,1008,c),
(1461,992,l),
(1495,1163,o),
(1495,1302,o),
(1495,1424,cs),
(1495,1550,l)
);
},
{
closed = 1;
nodes = (
(936,1199,l),
(936,831,l),
(1089,831,l),
(1089,1199,l)
);
}
);
width = 1770;
},
{
layerId = "94F54C43-8AEE-4ED6-B3C2-2A9D33534E61";
shapes = (
{
closed = 1;
nodes = (
(879,622,l),
(879,349,l),
(1568,349,l),
(1568,622,l)
);
},
{
closed = 1;
nodes = (
(878,75,l),
(878,-202,l),
(1572,-202,l),
(1572,75,l)
);
},
{
closed = 1;
nodes = (
(928,457,l),
(928,-75,l),
(1209,-75,l),
(1209,457,l)
);
},
{
closed = 1;
nodes = (
(1239,457,l),
(1239,-75,l),
(1520,-75,l),
(1520,457,l)
);
},
{
closed = 1;
nodes = (
(198,622,l),
(198,369,l),
(471,369,l),
(471,334,l),
(200,334,l),
(200,-30,l),
(548,-30,l),
(548,100,l),
(819,100,l),
(819,622,l)
);
},
{
closed = 1;
nodes = (
(200,56,l),
(200,-202,l),
(318,-202,ls),
(617,-202,o),
(726,-202,o),
(851,-178,c),
(835,77,l),
(709,56,o),
(607,56,o),
(318,56,cs)
);
},
{
closed = 1;
nodes = (
(205,1604,l),
(205,1324,l),
(1378,1324,l),
(1378,1604,l)
);
},
{
closed = 1;
nodes = (
(40,969,l),
(40,690,l),
(1732,690,l),
(1732,969,l)
);
},
{
closed = 1;
nodes = (
(333,1217,l),
(333,856,l),
(689,856,l),
(689,1217,l)
);
},
{
closed = 1;
nodes = (
(1218,1604,l),
(1218,1473,ls),
(1218,1354,o),
(1218,1218,o),
(1196,1049,c),
(1547,1016,l),
(1575,1196,o),
(1575,1356,o),
(1575,1473,cs),
(1575,1604,l)
);
},
{
closed = 1;
nodes = (
(800,1217,l),
(800,856,l),
(1154,856,l),
(1154,1217,l)
);
}
);
width = 1770;
}
);
unicode = 44382;
}
{
glyphname = "gyob-ko";
layers = (
{
layerId = m01;
shapes = (
{
closed = 1;
nodes = (
(256,1543,l),
(256,1416,l),
(1413,1416,l),
(1413,1543,l)
);
},
{
closed = 1;
nodes = (
(74,835,l),
(74,706,l),
(1691,706,l),
(1691,835,l)
);
},
{
closed = 1;
nodes = (
(491,1164,l),
(491,796,l),
(645,796,l),
(645,1164,l)
);
},
{
closed = 1;
nodes = (
(1338,1543,l),
(1338,1417,ls),
(1338,1293,o),
(1338,1156,o),
(1293,963,c),
(1449,945,l),
(1493,1139,o),
(1493,1289,o),
(1493,1417,cs),
(1493,1543,l)
);
},
{
closed = 1;
nodes = (
(930,1164,l),
(930,796,l),
(1085,796,l),
(1085,1164,l)
);
},
{
closed = 1;
nodes = (
(283,570,l),
(283,-138,l),
(1478,-138,l),
(1478,570,l),
(1323,570,l),
(1323,351,l),
(440,351,l),
(440,570,l)
);
},
{
closed = 1;
nodes = (
(440,228,l),
(1323,228,l),
(1323,-11,l),
(440,-11,l)
);
}
);
width = 1770;
},
{
layerId = "94F54C43-8AEE-4ED6-B3C2-2A9D33534E61";
shapes = (
{
closed = 1;
nodes = (
(192,1602,l),
(192,1324,l),
(1366,1324,l),
(1366,1602,l)
);
},
{
closed = 1;
nodes = (
(40,908,l),
(40,625,l),
(1730,625,l),
(1730,908,l)
);
},
{
closed = 1;
nodes = (
(329,1186,l),
(329,827,l),
(683,827,l),
(683,1186,l)
);
},
{
closed = 1;
nodes = (
(1211,1602,l),
(1211,1511,ls),
(1211,1398,o),
(1211,1236,o),
(1178,1002,c),
(1530,966,l),
(1569,1205,o),
(1569,1397,o),
(1569,1511,cs),
(1569,1602,l)
);
},
{
closed = 1;
nodes = (
(785,1186,l),
(785,827,l),
(1140,827,l),
(1140,1186,l)
);
},
{
closed = 1;
nodes = (
(220,565,l),
(220,-191,l),
(1541,-191,l),
(1541,565,l),
(1186,565,l),
(1186,436,l),
(575,436,l),
(575,565,l)
);
},
{
closed = 1;
nodes = (
(575,173,l),
(1186,173,l),
(1186,90,l),
(575,90,l)
);
}
);
width = 1770;
}
);
unicode = 44385;
}
{
glyphname = "gyos-ko";
layers = (
{
layerId = m01;
shapes = (
{
closed = 1;
nodes = (
(261,1535,l),
(261,1407,l),
(1418,1407,l),
(1418,1535,l)
);
},
{
closed = 1;
nodes = (
(72,769,l),
(72,640,l),
(1692,640,l),
(1692,769,l)
);
},
{
closed = 1;
nodes = (
(494,1135,l),
(494,716,l),
(648,716,l),
(648,1135,l)
);
},
{
closed = 1;
nodes = (
(1349,1535,l),
(1349,1380,ls),
(1349,1238,o),
(1349,1100,o),
(1305,920,c),
(1459,902,l),
(1505,1088,o),
(1505,1235,o),
(1505,1380,cs),
(1505,1535,l)
);
},
{
closed = 1;
nodes = (
(933,1135,l),
(933,716,l),
(1087,716,l),
(1087,1135,l)
);
},
{
closed = 1;
nodes = (
(795,510,l),
(795,430,ls),
(795,194,o),
(512,15,o),
(189,-30,c),
(249,-155,l),
(611,-95,o),
(931,115,o),
(931,430,cs),
(931,510,l)
);
},
{
closed = 1;
nodes = (
(819,510,l),
(819,430,ls),
(819,115,o),
(1138,-95,o),
(1500,-155,c),
(1561,-30,l),
(1237,15,o),
(954,194,o),
(954,430,cs),
(954,510,l)
);
}
);
width = 1770;
},
{
layerId = "94F54C43-8AEE-4ED6-B3C2-2A9D33534E61";
shapes = (
{
closed = 1;
nodes = (
(212,1588,l),
(212,1308,l),
(1385,1308,l),
(1385,1588,l)
);
},
{
closed = 1;
nodes = (
(35,840,l),
(35,556,l),
(1738,556,l),
(1738,840,l)
);
},
{
closed = 1;
nodes = (
(338,1157,l),
(338,715,l),
(692,715,l),
(692,1157,l)
);
},
{
closed = 1;
nodes = (
(1248,1588,l),
(1248,1427,ls),
(1248,1279,o),
(1248,1134,o),
(1212,946,c),
(1567,914,l),
(1606,1111,o),
(1606,1281,o),
(1606,1427,cs),
(1606,1588,l)
);
},
{
closed = 1;
nodes = (
(796,1157,l),
(796,715,l),
(1149,715,l),
(1149,1157,l)
);
},
{
closed = 1;
nodes = (
(696,491,l),
(696,463,ls),
(696,327,o),
(602,122,o),
(116,75,c),
(241,-202,l),
(804,-138,o),
(1004,149,o),
(1004,463,cs),
(1004,491,l)
);
},
{
closed = 1;
nodes = (
(748,491,l),
(748,463,ls),
(748,149,o),
(947,-138,o),
(1512,-202,c),
(1636,75,l),
(1149,122,o),
(1056,327,o),
(1056,463,cs),
(1056,491,l)
);
}
);
width = 1770;
}
);
unicode = 44387;
}
{
glyphname = "gyong-ko";
layers = (
{
layerId = m01;
shapes = (
{
closed = 1;
nodes = (
(260,1529,l),
(260,1401,l),
(1416,1401,l),
(1416,1529,l)
);
},
{
closed = 1;
nodes = (
(73,776,l),
(73,648,l),
(1691,648,l),
(1691,776,l)
);
},
{
closed = 1;
nodes = (
(490,1124,l),
(490,721,l),
(644,721,l),
(644,1124,l)
);
},
{
closed = 1;
nodes = (
(1340,1529,l),
(1340,1400,ls),
(1340,1272,o),
(1340,1128,o),
(1298,931,c),
(1453,917,l),
(1495,1115,o),
(1495,1269,o),
(1495,1400,cs),
(1495,1529,l)
);
},
{
closed = 1;
nodes = (
(939,1124,l),
(939,721,l),
(1093,721,l),
(1093,1124,l)
);
},
{
closed = 1;
nodes = (
(494,493,o),
(251,370,o),
(251,166,cs),
(251,-36,o),
(494,-158,o),
(875,-158,cs),
(1256,-158,o),
(1500,-36,o),
(1500,166,cs),
(1500,370,o),
(1256,493,o),
(875,493,cs)
);
},
{
closed = 1;
nodes = (
(1161,370,o),
(1343,292,o),
(1343,166,cs),
(1343,42,o),
(1159,-35,o),
(875,-35,cs),
(592,-35,o),
(408,42,o),
(408,166,cs),
(408,292,o),
(591,370,o),
(875,370,cs)
);
}
);
width = 1770;
},
{
layerId = "94F54C43-8AEE-4ED6-B3C2-2A9D33534E61";
shapes = (
{
closed = 1;
nodes = (
(205,1584,l),
(205,1305,l),
(1378,1305,l),
(1378,1584,l)
);
},
{
closed = 1;
nodes = (
(40,846,l),
(40,562,l),
(1732,562,l),
(1732,846,l)
);
},
{
closed = 1;
nodes = (
(329,1119,l),
(329,769,l),
(683,769,l),
(683,1119,l)
);
},
{
closed = 1;
nodes = (
(1218,1584,l),
(1218,1455,ls),
(1218,1327,o),
(1218,1169,o),
(1188,962,c),
(1542,929,l),
(1575,1147,o),
(1575,1325,o),
(1575,1455,cs),
(1575,1584,l)
);
},
{
closed = 1;
nodes = (
(810,1119,l),
(810,769,l),
(1162,769,l),
(1162,1119,l)
);
},
{
closed = 1;
nodes = (
(461,513,o),
(193,376,o),
(193,152,cs),
(193,-73,o),
(461,-211,o),
(872,-211,cs),
(1283,-211,o),
(1549,-73,o),
(1549,152,cs),
(1549,376,o),
(1283,513,o),
(872,513,cs)
);
},
{
closed = 1;
nodes = (
(1090,247,o),
(1193,223,o),
(1193,152,cs),
(1193,80,o),
(1087,56,o),
(872,56,cs),
(656,56,o),
(553,80,o),
(553,152,cs),
(553,223,o),
(654,247,o),
(872,247,cs)
);
}
);
width = 1770;
}
);
unicode = 44389;
}
{
glyphname = "gyoc-ko";
layers = (
{
layerId = m01;
shapes = (
{
closed = 1;
nodes = (
(256,1543,l),
(256,1416,l),
(1413,1416,l),
(1413,1543,l)
);
},
{
closed = 1;
nodes = (
(74,854,l),
(74,724,l),
(1691,724,l),
(1691,854,l)
);
},
{
closed = 1;
nodes = (
(491,1179,l),
(491,809,l),
(645,809,l),
(645,1179,l)
);
},
{
closed = 1;
nodes = (
(1338,1543,l),
(1338,1421,ls),
(1338,1298,o),
(1337,1168,o),
(1293,982,c),
(1449,964,l),
(1493,1153,o),
(1493,1299,o),
(1493,1421,cs),
(1493,1543,l)
);
},
{
closed = 1;
nodes = (
(930,1179,l),
(930,809,l),
(1085,809,l),
(1085,1179,l)
);
},
{
closed = 1;
nodes = (
(800,385,l),
(800,361,ls),
(800,154,o),
(522,2,o),
(207,-38,c),
(259,-156,l),
(620,-107,o),
(935,76,o),
(935,361,cs),
(935,385,l)
);
},
{
closed = 1;
nodes = (
(826,385,l),
(826,361,ls),
(826,91,o),
(1146,-107,o),
(1500,-156,c),
(1554,-38,l),
(1247,1,o),
(959,167,o),
(959,361,cs),
(959,385,l)
);
},
{
closed = 1;
nodes = (
(283,446,l),
(283,319,l),
(1478,319,l),
(1478,446,l)
);
},
{
closed = 1;
nodes = (
(802,619,l),
(802,402,l),
(958,402,l),
(958,619,l)
);
}
);
width = 1770;
},
{
layerId = "94F54C43-8AEE-4ED6-B3C2-2A9D33534E61";
shapes = (
{
closed = 1;
nodes = (
(192,1602,l),
(192,1324,l),
(1366,1324,l),
(1366,1602,l)
);
},
{
closed = 1;
nodes = (
(40,933,l),
(40,651,l),
(1730,651,l),
(1730,933,l)
);
},
{
closed = 1;
nodes = (
(329,1206,l),
(329,846,l),
(683,846,l),
(683,1206,l)
);
},
{
closed = 1;
nodes = (
(1211,1602,l),
(1211,1514,ls),
(1211,1409,o),
(1211,1252,o),
(1178,1028,c),
(1530,990,l),
(1569,1222,o),
(1569,1407,o),
(1569,1514,cs),
(1569,1602,l)
);
},
{
closed = 1;
nodes = (
(785,1206,l),
(785,846,l),
(1140,846,l),
(1140,1206,l)
);
},
{
closed = 1;
nodes = (
(703,342,l),
(703,297,ls),
(703,223,o),
(622,83,o),
(150,57,c),
(261,-203,l),
(816,-169,o),
(1005,54,o),
(1005,297,cs),
(1005,342,l)
);
},
{
closed = 1;
nodes = (
(768,342,l),
(768,297,ls),
(768,50,o),
(957,-170,o),
(1512,-203,c),
(1623,57,l),
(1150,84,o),
(1071,216,o),
(1071,297,cs),
(1071,342,l)
);
},
{
closed = 1;
nodes = (
(236,477,l),
(236,201,l),
(1536,201,l),
(1536,477,l)
);
},
{
closed = 1;
nodes = (
(707,598,l),
(707,383,l),
(1068,383,l),
(1068,598,l)
);
}
);
width = 1770;
}
);
unicode = 44391;
}
{
glyphname = "gyok-ko";
layers = (
{
layerId = m01;
shapes = (
{
closed = 1;
nodes = (
(269,482,l),
(269,356,l),
(1332,356,l),
(1332,-162,l),
(1488,-162,l),
(1488,482,l)
);
},
{
closed = 1;
nodes = (
(1389,198,l),
(239,160,l),
(259,34,l),
(1389,88,l)
);
},
{
closed = 1;
nodes = (
(260,1540,l),
(260,1412,l),
(1416,1412,l),
(1416,1540,l)
);
},
{
closed = 1;
nodes = (
(73,800,l),
(73,671,l),
(1691,671,l),
(1691,800,l)
);
},
{
closed = 1;
nodes = (
(490,1139,l),
(490,735,l),
(644,735,l),
(644,1139,l)
);
},
{
closed = 1;
nodes = (
(1340,1540,l),
(1340,1413,ls),
(1340,1286,o),
(1340,1144,o),
(1300,949,c),
(1453,935,l),
(1495,1132,o),
(1495,1286,o),
(1495,1413,cs),
(1495,1540,l)
);
},
{
closed = 1;
nodes = (
(939,1139,l),
(939,735,l),
(1093,735,l),
(1093,1139,l)
);
}
);
width = 1770;
},
{
layerId = "94F54C43-8AEE-4ED6-B3C2-2A9D33534E61";
shapes = (
{
closed = 1;
nodes = (
(230,508,l),
(230,237,l),
(1173,237,l),
(1173,-206,l),
(1527,-206,l),
(1527,508,l)
);
},
{
closed = 1;
nodes = (
(1275,173,l),
(205,149,l),
(237,-115,l),
(1275,-62,l)
);
},
{
closed = 1;
nodes = (
(205,1597,l),
(205,1317,l),
(1378,1317,l),
(1378,1597,l)
);
},
{
closed = 1;
nodes = (
(40,885,l),
(40,603,l),
(1732,603,l),
(1732,885,l)
);
},
{
closed = 1;
nodes = (
(329,1140,l),
(329,788,l),
(683,788,l),
(683,1140,l)
);
},
{
closed = 1;
nodes = (
(1218,1597,l),
(1218,1473,ls),
(1218,1348,o),
(1218,1197,o),
(1192,995,c),
(1542,965,l),
(1575,1173,o),
(1575,1349,o),
(1575,1473,cs),
(1575,1597,l)
);
},
{
closed = 1;
nodes = (
(810,1140,l),
(810,788,l),
(1162,788,l),
(1162,1140,l)
);
}
);
width = 1770;
}
);
unicode = 44392;
}
{
glyphname = "gyot-ko";
layers = (
{
layerId = m01;
shapes = (
{
closed = 1;
nodes = (
(273,567,l),
(273,-62,l),
(430,-62,l),
(430,447,l),
(1500,447,l),
(1500,567,l)
);
},
{
closed = 1;
nodes = (
(273,-21,l),
(273,-141,l),
(1519,-141,l),
(1519,-21,l)
);
},
{
closed = 1;
nodes = (
(373,277,l),
(373,159,l),
(1459,159,l),
(1459,277,l)
);
},
{
closed = 1;
nodes = (
(260,1545,l),
(260,1418,l),
(1416,1418,l),
(1416,1545,l)
);
},
{
closed = 1;
nodes = (
(73,864,l),
(73,735,l),
(1691,735,l),
(1691,864,l)
);
},
{
closed = 1;
nodes = (
(492,1192,l),
(492,824,l),
(646,824,l),
(646,1192,l)
);
},
{
closed = 1;
nodes = (
(1340,1545,l),
(1340,1418,ls),
(1340,1293,o),
(1339,1170,o),
(1307,1003,c),
(1461,986,l),
(1495,1157,o),
(1495,1296,o),
(1495,1418,cs),
(1495,1545,l)
);
},
{
closed = 1;
nodes = (
(936,1192,l),
(936,824,l),
(1089,824,l),
(1089,1192,l)
);
}
);
width = 1770;
},
{
layerId = "94F54C43-8AEE-4ED6-B3C2-2A9D33534E61";
shapes = (
{
closed = 1;
nodes = (
(232,625,l),
(232,-26,l),
(589,-26,l),
(589,373,l),
(1549,373,l),
(1549,625,l)
);
},
{
closed = 1;
nodes = (
(232,52,l),
(232,-202,l),
(1592,-202,l),
(1592,52,l)
);
},
{
closed = 1;
nodes = (
(471,334,l),
(471,93,l),
(1525,93,l),
(1525,334,l)
);
},
{
closed = 1;
nodes = (
(205,1600,l),
(205,1323,l),
(1378,1323,l),
(1378,1600,l)
);
},
{
closed = 1;
nodes = (
(40,962,l),
(40,682,l),
(1732,682,l),
(1732,962,l)
);
},
{
closed = 1;
nodes = (
(333,1214,l),
(333,854,l),
(689,854,l),
(689,1214,l)
);
},
{
closed = 1;
nodes = (
(1218,1600,l),
(1218,1470,ls),
(1218,1357,o),
(1218,1222,o),
(1196,1052,c),
(1547,1020,l),
(1575,1198,o),
(1575,1358,o),
(1575,1470,cs),
(1575,1600,l)
);
},
{
closed = 1;
nodes = (
(800,1214,l),
(800,854,l),
(1154,854,l),
(1154,1214,l)
);
}
);
width = 1770;
}
);
unicode = 44393;
}
{
glyphname = "gug-ko";
layers = (
{
layerId = m01;
shapes = (
{
closed = 1;
nodes = (
(279,1530,l),
(279,1401,l),
(1434,1401,l),
(1434,1530,l)
);
},
{
closed = 1;
nodes = (
(72,895,l),
(72,764,l),
(1697,764,l),
(1697,895,l)
);
},
{
closed = 1;
nodes = (
(804,805,l),
(804,385,l),
(960,385,l),
(960,805,l)
);
},
{
closed = 1;
nodes = (
(1331,1530,l),
(1331,1400,ls),
(1331,1257,o),
(1331,1088,o),
(1272,849,c),
(1426,832,l),
(1485,1074,o),
(1485,1253,o),
(1485,1400,cs),
(1485,1530,l)
);
},
{
closed = 1;
nodes = (
(241,437,l),
(241,308,l),
(1340,308,l),
(1340,-162,l),
(1497,-162,l),
(1497,437,l)
);
}
);
width = 1770;
},
{
layerId = "94F54C43-8AEE-4ED6-B3C2-2A9D33534E61";
shapes = (
{
closed = 1;
nodes = (
(237,1587,l),
(237,1305,l),
(1411,1305,l),
(1411,1587,l)
);
},
{
closed = 1;
nodes = (
(35,967,l),
(35,683,l),
(1736,683,l),
(1736,967,l)
);
},
{
closed = 1;
nodes = (
(704,763,l),
(704,417,l),
(1064,417,l),
(1064,763,l)
);
},
{
closed = 1;
nodes = (
(1201,1587,l),
(1201,1427,ls),
(1201,1264,o),
(1201,1099,o),
(1146,870,c),
(1501,840,l),
(1556,1074,o),
(1556,1260,o),
(1556,1427,cs),
(1556,1587,l)
);
},
{
closed = 1;
nodes = (
(202,494,l),
(202,214,l),
(1191,214,l),
(1191,-206,l),
(1551,-206,l),
(1551,494,l)
);
}
);
width = 1770;
}
);
unicode = 44397;
}
{
glyphname = "gun-ko";
layers = (
{
layerId = m01;
shapes = (
{
closed = 1;
nodes = (
(279,1520,l),
(279,1390,l),
(1424,1390,l),
(1424,1520,l)
);
},
{
closed = 1;
nodes = (
(72,831,l),
(72,702,l),
(1697,702,l),
(1697,831,l)
);
},
{
closed = 1;
nodes = (
(812,752,l),
(812,273,l),
(969,273,l),
(969,752,l)
);
},
{
closed = 1;
nodes = (
(1331,1520,l),
(1331,1379,ls),
(1331,1221,o),
(1331,1038,o),
(1271,781,c),
(1426,762,l),
(1485,1028,o),
(1485,1217,o),
(1485,1379,cs),
(1485,1520,l)
);
},
{
closed = 1;
nodes = (
(278,8,l),
(278,-122,l),
(1522,-122,l),
(1522,8,l)
);
},
{
closed = 1;
nodes = (
(278,431,l),
(278,-27,l),
(435,-27,l),
(435,431,l)
);
}
);
width = 1770;
},
{
layerId = "94F54C43-8AEE-4ED6-B3C2-2A9D33534E61";
shapes = (
{
closed = 1;
nodes = (
(237,1585,l),
(237,1302,l),
(1413,1302,l),
(1413,1585,l)
);
},
{
closed = 1;
nodes = (
(35,904,l),
(35,622,l),
(1736,622,l),
(1736,904,l)
);
},
{
closed = 1;
nodes = (
(722,733,l),
(722,275,l),
(1084,275,l),
(1084,733,l)
);
},
{
closed = 1;
nodes = (
(1201,1585,l),
(1201,1411,ls),
(1201,1231,o),
(1201,1056,o),
(1146,811,c),
(1501,778,l),
(1558,1033,o),
(1558,1227,o),
(1558,1411,cs),
(1558,1585,l)
);
},
{
closed = 1;
nodes = (
(214,103,l),
(214,-182,l),
(1575,-182,l),
(1575,103,l)
);
},
{
closed = 1;
nodes = (
(214,440,l),
(214,47,l),
(574,47,l),
(574,440,l)
);
}
);
width = 1770;
}
);
unicode = 44400;
}
{
glyphname = "gunj-ko";
layers = (
{
layerId = m01;
shapes = (
{
closed = 1;
nodes = (
(1111,455,l),
(1111,339,ls),
(1111,189,o),
(980,30,o),
(773,-37,c),
(845,-156,l),
(1093,-74,o),
(1231,132,o),
(1231,339,cs),
(1231,455,l)
);
},
{
closed = 1;
nodes = (
(1144,455,l),
(1144,339,ls),
(1144,136,o),
(1285,-73,o),
(1529,-156,c),
(1602,-37,l),
(1396,33,o),
(1265,191,o),
(1265,339,cs),
(1265,455,l)
);
},
{
closed = 1;
nodes = (
(244,458,l),
(244,-52,l),
(397,-52,l),
(397,458,l)
);
},
{
closed = 1;
nodes = (
(244,11,l),
(244,-119,l),
(334,-119,ls),
(458,-119,o),
(674,-103,o),
(823,-21,c),
(781,105,l),
(657,28,o),
(435,11,o),
(334,11,cs)
);
},
{
closed = 1;
nodes = (
(817,496,l),
(817,370,l),
(1563,370,l),
(1563,496,l)
);
},
{
closed = 1;
nodes = (
(279,1535,l),
(279,1408,l),
(1434,1408,l),
(1434,1535,l)
);
},
{
closed = 1;
nodes = (
(72,931,l),
(72,802,l),
(1697,802,l),
(1697,931,l)
);
},
{
closed = 1;
nodes = (
(799,880,l),
(799,545,l),
(955,545,l),
(955,880,l)
);
},
{
closed = 1;
nodes = (
(1331,1535,l),
(1331,1413,ls),
(1331,1272,o),
(1331,1110,o),
(1272,878,c),
(1427,857,l),
(1484,1092,o),
(1485,1261,o),
(1485,1413,cs),
(1485,1535,l)
);
}
);
width = 1770;
},
{
layerId = "94F54C43-8AEE-4ED6-B3C2-2A9D33534E61";
shapes = (
{
closed = 1;
nodes = (
(1032,406,l),
(1032,338,ls),
(1032,228,o),
(949,124,o),
(751,71,c),
(906,-199,l),
(1193,-122,o),
(1300,99,o),
(1300,338,cs),
(1300,406,l)
);
},
{
closed = 1;
nodes = (
(1125,406,l),
(1125,338,ls),
(1125,109,o),
(1235,-120,o),
(1516,-199,c),
(1671,71,l),
(1474,130,o),
(1390,235,o),
(1390,338,cs),
(1390,406,l)
);
},
{
closed = 1;
nodes = (
(188,488,l),
(188,-29,l),
(536,-29,l),
(536,488,l)
);
},
{
closed = 1;
nodes = (
(188,114,l),
(188,-173,l),
(312,-173,ls),
(512,-173,o),
(686,-152,o),
(845,-85,c),
(766,185,l),
(630,134,o),
(488,114,o),
(312,114,cs)
);
},
{
closed = 1;
nodes = (
(819,528,l),
(819,255,l),
(1599,255,l),
(1599,528,l)
);
},
{
closed = 1;
nodes = (
(237,1598,l),
(237,1315,l),
(1411,1315,l),
(1411,1598,l)
);
},
{
closed = 1;
nodes = (
(35,984,l),
(35,702,l),
(1736,702,l),
(1736,984,l)
);
},
{
closed = 1;
nodes = (
(688,849,l),
(688,477,l),
(1050,477,l),
(1050,849,l)
);
},
{
closed = 1;
nodes = (
(1201,1598,l),
(1201,1436,ls),
(1201,1272,o),
(1201,1106,o),
(1146,874,c),
(1500,845,l),
(1556,1081,o),
(1556,1270,o),
(1556,1436,cs),
(1556,1598,l)
);
}
);
width = 1770;
}
);
unicode = 44401;
}
{
glyphname = "gunh-ko";
layers = (
{
layerId = m01;
shapes = (
{
closed = 1;
nodes = (
(244,11,l),
(244,-118,l),
(331,-118,ls),
(464,-118,o),
(632,-111,o),
(800,-54,c),
(770,74,l),
(620,21,o),
(453,11,o),
(331,11,cs)
);
},
{
closed = 1;
nodes = (
(244,527,l),
(244,-42,l),
(397,-42,l),
(397,527,l)
);
},
{
closed = 1;
nodes = (
(715,497,l),
(715,373,l),
(1615,373,l),
(1615,497,l)
);
},
{
closed = 1;
nodes = (
(969,297,o),
(831,210,o),
(831,69,cs),
(831,-73,o),
(969,-158,o),
(1165,-158,cs),
(1363,-158,o),
(1500,-73,o),
(1500,69,cs),
(1500,210,o),
(1363,297,o),
(1165,297,cs)
);
},
{
closed = 1;
nodes = (
(1280,189,o),
(1360,142,o),
(1360,69,cs),
(1360,-5,o),
(1280,-51,o),
(1165,-51,cs),
(1051,-51,o),
(971,-5,o),
(971,69,cs),
(971,142,o),
(1051,189,o),
(1165,189,cs)
);
},
{
closed = 1;
nodes = (
(1095,653,l),
(1095,422,l),
(1254,422,l),
(1254,653,l)
);
},
{
closed = 1;
nodes = (
(279,1543,l),
(279,1415,l),
(1434,1415,l),
(1434,1543,l)
);
},
{
closed = 1;
nodes = (
(72,971,l),
(72,843,l),
(1697,843,l),
(1697,971,l)
);
},
{
closed = 1;
nodes = (
(792,918,l),
(792,588,l),
(949,588,l),
(949,918,l)
);
},
{
closed = 1;
nodes = (
(1331,1543,l),
(1331,1430,ls),
(1331,1305,o),
(1331,1153,o),
(1283,938,c),
(1437,921,l),
(1485,1136,o),
(1485,1297,o),
(1485,1430,cs),
(1485,1543,l)
);
}
);
width = 1770;
},
{
layerId = "94F54C43-8AEE-4ED6-B3C2-2A9D33534E61";
shapes = (
{
closed = 1;
nodes = (
(188,114,l),
(188,-171,l),
(308,-171,ls),
(546,-171,o),
(676,-161,o),
(814,-111,c),
(752,168,l),
(633,127,o),
(522,114,o),
(308,114,cs)
);
},
{
closed = 1;
nodes = (
(188,564,l),
(188,13,l),
(536,13,l),
(536,564,l)
);
},
{
closed = 1;
nodes = (
(733,538,l),
(733,273,l),
(1670,273,l),
(1670,538,l)
);
},
{
closed = 1;
nodes = (
(978,260,o),
(829,171,o),
(829,23,cs),
(829,-122,o),
(978,-211,o),
(1201,-211,cs),
(1425,-211,o),
(1574,-122,o),
(1574,23,cs),
(1574,171,o),
(1425,260,o),
(1201,260,cs)
);
},
{
closed = 1;
nodes = (
(1231,33,o),
(1258,41,o),
(1258,23,cs),
(1258,6,o),
(1231,11,o),
(1201,11,cs),
(1169,11,o),
(1145,6,o),
(1145,23,cs),
(1145,41,o),
(1169,33,o),
(1201,33,cs)
);
},
{
closed = 1;
nodes = (
(1046,634,l),
(1046,342,l),
(1408,342,l),
(1408,634,l)
);
},
{
closed = 1;
nodes = (
(237,1593,l),
(237,1315,l),
(1411,1315,l),
(1411,1593,l)
);
},
{
closed = 1;
nodes = (
(35,1051,l),
(35,772,l),
(1736,772,l),
(1736,1051,l)
);
},
{
closed = 1;
nodes = (
(672,967,l),
(672,595,l),
(1034,595,l),
(1034,967,l)
);
},
{
closed = 1;
nodes = (
(1201,1593,l),
(1201,1460,ls),
(1201,1327,o),
(1201,1187,o),
(1154,987,c),
(1508,958,l),
(1556,1158,o),
(1556,1330,o),
(1556,1460,cs),
(1556,1593,l)
);
}
);
width = 1770;
}
);
unicode = 44402;
}
{
glyphname = "gud-ko";
layers = (
{
layerId = m01;
shapes = (
{
closed = 1;
nodes = (
(279,1529,l),
(279,1400,l),
(1434,1400,l),
(1434,1529,l)
);
},
{
closed = 1;
nodes = (
(72,905,l),
(72,776,l),
(1697,776,l),
(1697,905,l)
);
},
{
closed = 1;
nodes = (
(804,816,l),
(804,425,l),
(960,425,l),
(960,816,l)
);
},
{
closed = 1;
nodes = (
(1331,1529,l),
(1331,1400,ls),
(1331,1257,o),
(1331,1088,o),
(1272,849,c),
(1426,831,l),
(1485,1074,o),
(1485,1253,o),
(1485,1400,cs),
(1485,1529,l)
);
},
{
closed = 1;
nodes = (
(271,479,l),
(271,-81,l),
(428,-81,l),
(428,354,l),
(1496,354,l),
(1496,479,l)
);
},
{
closed = 1;
nodes = (
(271,-10,l),
(271,-138,l),
(1512,-138,l),
(1512,-10,l)
);
}
);
width = 1770;
},
{
layerId = "94F54C43-8AEE-4ED6-B3C2-2A9D33534E61";
shapes = (
{
closed = 1;
nodes = (
(237,1589,l),
(237,1307,l),
(1411,1307,l),
(1411,1589,l)
);
},
{
closed = 1;
nodes = (
(35,974,l),
(35,692,l),
(1736,692,l),
(1736,974,l)
);
},
{
closed = 1;
nodes = (
(704,761,l),
(704,406,l),
(1064,406,l),
(1064,761,l)
);
},
{
closed = 1;
nodes = (
(1201,1589,l),
(1201,1431,ls),
(1201,1267,o),
(1201,1102,o),
(1146,872,c),
(1501,842,l),
(1556,1075,o),
(1556,1263,o),
(1556,1431,cs),
(1556,1589,l)
);
},
{
closed = 1;
nodes = (
(227,518,l),
(227,-83,l),
(586,-83,l),
(586,241,l),
(1543,241,l),
(1543,518,l)
);
},
{
closed = 1;
nodes = (
(227,90,l),
(227,-191,l),
(1574,-191,l),
(1574,90,l)
);
}
);
width = 1770;
}
);
unicode = 44403;
}
